<?xml version="1.0" encoding="UTF-8" standalone="no"?>
<!-- Created with Inkscape (http://www.inkscape.org/) -->

<svg
   width="256"
   height="256"
   viewBox="0 0 67.733334 67.733334"
   version="1.1"
   id="svg1"
   sodipodi:docname="SolarSystemLevelArt.svg"
   inkscape:version="1.3 (0e150ed6c4, 2023-07-21)"
   inkscape:export-filename="SolarSystemLevelArt.png"
   inkscape:export-xdpi="96"
   inkscape:export-ydpi="96"
   xml:space="preserve"
   xmlns:inkscape="http://www.inkscape.org/namespaces/inkscape"
   xmlns:sodipodi="http://sodipodi.sourceforge.net/DTD/sodipodi-0.dtd"
   xmlns="http://www.w3.org/2000/svg"
   xmlns:svg="http://www.w3.org/2000/svg"><sodipodi:namedview
     id="namedview1"
     pagecolor="#000000"
     bordercolor="#000000"
     borderopacity="0.25"
     inkscape:showpageshadow="false"
     inkscape:pageopacity="0.0"
     inkscape:pagecheckerboard="true"
     inkscape:deskcolor="#d1d1d1"
     inkscape:document-units="mm"
     showgrid="true"
     inkscape:zoom="0.1767767"
     inkscape:cx="1948.7863"
     inkscape:cy="1077.6307"
     inkscape:window-width="1858"
     inkscape:window-height="1057"
     inkscape:window-x="54"
     inkscape:window-y="-8"
     inkscape:window-maximized="1"
     inkscape:current-layer="layer1"><inkscape:grid
       id="grid1"
       units="px"
       originx="0"
       originy="0"
       spacingx="67.733334"
       spacingy="67.733334"
       empcolor="#0099e5"
       empopacity="0.30196078"
       color="#0099e5"
       opacity="0.14901961"
       empspacing="5"
       dotted="false"
       gridanglex="30"
       gridanglez="30"
       visible="true" /></sodipodi:namedview><defs
     id="defs1"><inkscape:path-effect
       effect="skeletal"
       id="path-effect77"
       is_visible="true"
       lpeversion="1"
       pattern="M 0,4.9921384 C 0,2.236478 2.236478,0 4.9921384,0 c 2.7556604,0 4.9921384,2.236478 4.9921384,4.9921384 0,2.7556604 -2.236478,4.9921384 -4.9921384,4.9921384 C 2.236478,9.9842768 0,7.7477988 0,4.9921384 Z"
       copytype="single_stretched"
       prop_scale="0.5"
       scale_y_rel="false"
       spacing="0"
       normal_offset="0"
       tang_offset="0"
       prop_units="false"
       vertical_pattern="false"
       hide_knot="false"
       fuse_tolerance="0" /><inkscape:perspective
       sodipodi:type="inkscape:persp3d"
       inkscape:vp_x="0 : 33.866667 : 1"
       inkscape:vp_y="0 : 1000 : 0"
       inkscape:vp_z="67.733334 : 33.866667 : 1"
       inkscape:persp3d-origin="33.866667 : 22.577778 : 1"
       id="perspective28" /><inkscape:path-effect
       effect="skeletal"
       id="path-effect57"
       is_visible="true"
       lpeversion="1"
       pattern="M 0,4.9921384 C 0,2.236478 2.236478,0 4.9921384,0 c 2.7556604,0 4.9921384,2.236478 4.9921384,4.9921384 0,2.7556604 -2.236478,4.9921384 -4.9921384,4.9921384 C 2.236478,9.9842768 0,7.7477988 0,4.9921384 Z"
       copytype="single_stretched"
       prop_scale="0.5"
       scale_y_rel="false"
       spacing="0"
       normal_offset="0"
       tang_offset="0"
       prop_units="false"
       vertical_pattern="false"
       hide_knot="false"
       fuse_tolerance="0" /></defs><g
     inkscape:label="Layer 1"
     inkscape:groupmode="layer"
     id="layer1"><g
       id="g33"
       transform="matrix(0.23184265,0.09353596,-0.09353596,0.23184265,-57.623917,-74.139077)"><path
         style="opacity:1;fill:#f7b010;fill-opacity:1;stroke-width:0.776999;stroke-linejoin:round;stroke-miterlimit:17"
         d="m 639.23332,291.04166 c -4.23334,-0.52916 -32.80834,15.34584 -42.33333,25.4 -9.525,10.05417 -21.16667,40.74584 -21.16667,46.0375 0,5.29167 1.05833,17.99167 3.175,20.10834 2.11667,2.11666 24.87083,4.23333 44.97916,2.11666 20.10834,-2.11666 55.5625,-5.29166 72.49584,-10.05416 16.93333,-4.7625 46.56666,-10.58336 55.03333,-23.28334 8.46667,-12.69997 13.75833,-25.4 10.58333,-30.1625 -3.175,-4.7625 -20.10833,-17.4625 -28.04583,-24.34166 -7.9375,-6.87917 -0.52918,-9.525 -28.575,-9.525 -28.04582,0 -66.14583,3.70416 -66.14583,3.70416 z"
         id="path8" /><circle
         style="fill:#2fb1f8;fill-opacity:1;stroke:none;stroke-width:0.776999;stroke-linejoin:round;stroke-miterlimit:17"
         id="circle7"
         cx="677.33337"
         cy="338.66669"
         r="203.20001" /><rect
         style="opacity:1;fill:#1aae32;fill-opacity:1;stroke-width:0.776999;stroke-linejoin:round;stroke-miterlimit:17"
         id="rect12"
         width="116.74332"
         height="178.19527"
         x="539.92175"
         y="487.66846"
         ry="50.477749"
         transform="rotate(-14.705241)" /><rect
         style="opacity:1;fill:#1aae32;fill-opacity:1;stroke-width:0.496321;stroke-linejoin:round;stroke-miterlimit:17"
         id="rect13"
         width="74.571732"
         height="113.82518"
         x="301.59677"
         y="621.0246"
         ry="32.2435"
         transform="rotate(-31.858812)" /><rect
         style="opacity:1;fill:#f7b010;fill-opacity:1;stroke-width:0.776999;stroke-linejoin:round;stroke-miterlimit:17"
         id="rect11"
         width="185.59196"
         height="100.9555"
         x="421.60129"
         y="501.90588"
         ry="50.477749"
         transform="rotate(-20.192191)" /><rect
         style="opacity:1;fill:#f7b010;fill-opacity:1;stroke-width:0.390749;stroke-linejoin:round;stroke-miterlimit:17"
         id="rect15"
         width="93.333298"
         height="50.770027"
         x="711.36023"
         y="-358.14813"
         ry="25.385014"
         transform="rotate(44.891353)" /><rect
         style="opacity:1;fill:#1aae32;fill-opacity:1;stroke-width:0.496321;stroke-linejoin:round;stroke-miterlimit:17"
         id="rect14"
         width="74.571732"
         height="113.82518"
         x="426.98514"
         y="-605.20587"
         ry="32.2435"
         transform="rotate(67.075255)" /><rect
         style="opacity:1;fill:#1aae32;fill-opacity:1;stroke-width:0.325418;stroke-linejoin:round;stroke-miterlimit:17"
         id="rect16"
         width="48.893707"
         height="74.630623"
         x="465.08148"
         y="-513.08972"
         ry="21.140776"
         transform="rotate(67.075255)" /><rect
         style="opacity:1;fill:#1aae32;fill-opacity:1;stroke-width:0.23395;stroke-linejoin:round;stroke-miterlimit:17"
         id="rect17"
         width="35.150787"
         height="53.653637"
         x="-484.89474"
         y="-440.48145"
         ry="15.198581"
         transform="rotate(157.07526)" /><path
         id="rect18"
         style="opacity:1;fill:#1aae32;fill-opacity:1;stroke-width:0.325418;stroke-linejoin:round;stroke-miterlimit:17"
         d="m 388.60321,-571.06848 c -7.11921,16.99127 -11.89472,34.87176 -14.19527,53.15 3.83839,5.25962 10.03402,8.67919 17.07247,8.67919 l 6.61229,8e-5 c 11.71198,0 21.14057,-9.42887 21.14057,-21.14085 l 3.7e-4,-32.34891 c 0,-11.71198 -10.70242,-25.43786 -22.4144,-25.43786 l -2.20261,4.2966 c -2.15242,4.19618 -4.15811,8.46601 -6.01342,12.80175 z"
         transform="rotate(67.075255)"
         sodipodi:nodetypes="ccccccccc" /><path
         id="rect19"
         style="opacity:1;fill:#1aae32;fill-opacity:1;stroke-width:0.776999;stroke-linejoin:round;stroke-miterlimit:17"
         d="m 390.946,592.08695 -8.04766,-1.3e-4 c -27.96464,0 -50.4779,22.51291 -50.4779,50.47755 l 4.4e-4,77.23967 c 0,27.96464 22.5129,50.4779 50.47754,50.4779 l 15.78763,-1.5e-4 c 13.45104,0 25.60771,-5.24429 34.63746,-13.76295 A 203.20001,203.20001 0 0 0 390.946,592.08695 Z"
         transform="rotate(-45.482163)" /><path
         id="rect20"
         style="opacity:1;fill:#1aae32;fill-opacity:1;stroke-width:0.325418;stroke-linejoin:round;stroke-miterlimit:17"
         d="m 398.44159,-787.24672 1.6e-4,24.66511 c 0,11.71197 9.42883,21.14075 21.14081,21.14075 l 6.61195,-1.6e-4 c 11.71198,0 21.14076,-9.42883 21.14076,-21.14081 l 2.9e-4,-32.34859 c 0,-1.12011 -0.0879,-2.21896 -0.25416,-3.29105 a 203.20001,203.20001 0 0 0 -48.63981,10.97475 z"
         transform="rotate(78.47809)" /><path
         id="rect21"
         style="opacity:1;fill:#1aae32;fill-opacity:1;stroke-width:0.325418;stroke-linejoin:round;stroke-miterlimit:17"
         d="m 366.08909,-772.2741 -1.1e-4,3.09736 c 0,11.71197 9.42883,21.14075 21.14081,21.14075 l 6.61245,-6e-5 c 11.71198,0 21.14076,-9.42883 21.14076,-21.1408 l -3.3e-4,-23.19478 a 203.20001,203.20001 0 0 0 -48.89358,20.09753 z"
         transform="rotate(78.47809)" /><path
         id="rect22"
         style="opacity:1;fill:#1aae32;fill-opacity:1;stroke-width:0.496321;stroke-linejoin:round;stroke-miterlimit:17"
         d="m 539.56405,-297.43492 c -0.6308,1.49634 -1.14889,3.05228 -1.55084,4.65529 a 203.20001,203.20001 0 0 0 72.84406,0.96939 c -3.1625,-14.49914 -16.01613,-25.29392 -31.49071,-25.29392 l -10.08472,-3.2e-4 c -13.39716,0 -24.83593,8.08911 -29.71779,19.66956 z"
         transform="rotate(67.075255)" /><path
         id="rect23"
         style="opacity:1;fill:#d1ffff;fill-opacity:1;stroke-width:0.496321;stroke-linejoin:round;stroke-miterlimit:17"
         d="m 785.14455,502.9328 c -2.13499,0.21602 -4.28193,0.64841 -6.41394,1.31189 l -47.10972,14.66084 c -10.23296,3.18453 -17.69784,10.95215 -20.91294,20.33019 a 203.20001,203.20001 0 0 0 84.99842,-35.58061 c -3.40514,-0.80105 -6.96158,-1.08664 -10.56182,-0.72231 z" /><path
         id="rect24"
         style="opacity:1;fill:#d1ffff;fill-opacity:1;stroke-width:0.496321;stroke-linejoin:round;stroke-miterlimit:17"
         d="m 512.36918,220.07184 a 203.20001,203.20001 0 0 0 -37.41167,99.21875 c 10.53426,-1.76021 19.94759,-8.69715 24.40575,-19.31304 l 19.10322,-45.48973 c 5.07663,-12.08861 2.2606,-25.42942 -6.0973,-34.41598 z" /><rect
         style="opacity:1;fill:#1aae32;fill-opacity:1;stroke-width:0.40558;stroke-linejoin:round;stroke-miterlimit:17"
         id="rect25"
         width="58.387783"
         height="97.077621"
         x="541.94708"
         y="-572.97272"
         ry="27.499384"
         transform="matrix(0.40238899,0.91546879,-0.94441877,0.32874487,0,0)" /></g><g
       id="g39"
       transform="matrix(0.23603315,0.0962534,-0.0962534,0.23603315,-21.4634,-135.35778)"><rect
         style="opacity:1;fill:#e5ffff;fill-opacity:1;stroke:none;stroke-width:0.776999;stroke-linejoin:round;stroke-miterlimit:17"
         id="rect27"
         width="156.59058"
         height="66.045914"
         x="934.27869"
         y="725.211"
         ry="33.022957"
         transform="rotate(-22.197697)" /><rect
         style="opacity:1;fill:#e5ffff;fill-opacity:1;stroke:none;stroke-width:0.776999;stroke-linejoin:round;stroke-miterlimit:17"
         id="rect28"
         width="156.59058"
         height="66.045914"
         x="871.42731"
         y="684.25562"
         ry="33.022957"
         transform="rotate(-22.197697)" /><rect
         style="opacity:1;fill:#e5ffff;fill-opacity:1;stroke:none;stroke-width:0.776999;stroke-linejoin:round;stroke-miterlimit:17"
         id="rect34"
         width="156.59058"
         height="66.045914"
         x="718.78516"
         y="890.35175"
         ry="33.022957"
         transform="rotate(-22.197697)" /><rect
         style="opacity:1;fill:#e5ffff;fill-opacity:1;stroke:none;stroke-width:0.776999;stroke-linejoin:round;stroke-miterlimit:17"
         id="rect35"
         width="156.59058"
         height="66.045914"
         x="791.06042"
         y="857.24805"
         ry="33.022957"
         transform="rotate(-22.197697)" /><rect
         style="opacity:1;fill:#e5ffff;fill-opacity:1;stroke:none;stroke-width:0.776999;stroke-linejoin:round;stroke-miterlimit:17"
         id="rect36"
         width="156.59058"
         height="66.045914"
         x="839.48914"
         y="912.38062"
         ry="33.022957"
         transform="rotate(-22.197697)" /><rect
         style="opacity:1;fill:#e5ffff;fill-opacity:1;stroke:none;stroke-width:0.776999;stroke-linejoin:round;stroke-miterlimit:17"
         id="rect37"
         width="156.59058"
         height="66.045914"
         x="1013.9534"
         y="613.14075"
         ry="33.022957"
         transform="rotate(-22.197697)" /><rect
         style="opacity:1;fill:#e5ffff;fill-opacity:1;stroke:none;stroke-width:0.776999;stroke-linejoin:round;stroke-miterlimit:17"
         id="rect38"
         width="156.59058"
         height="66.045914"
         x="1068.7418"
         y="825.95502"
         ry="33.022957"
         transform="rotate(-22.197697)" /><rect
         style="opacity:1;fill:#e5ffff;fill-opacity:1;stroke:none;stroke-width:0.776999;stroke-linejoin:round;stroke-miterlimit:17"
         id="rect39"
         width="156.59058"
         height="66.045914"
         x="649.07837"
         y="713.48407"
         ry="33.022957"
         transform="rotate(-22.197697)" /></g><g
       id="g64"
       transform="matrix(0.33335012,0,0,0.33335012,9.7285968,-11.298005)"><circle
         style="opacity:1;fill:#876042;fill-opacity:1;stroke:none;stroke-width:0.770328;stroke-linejoin:round;stroke-miterlimit:17"
         id="path39"
         cx="72.410553"
         cy="541.8667"
         r="67.733337" /><circle
         style="opacity:1;fill:#5f4e41;fill-opacity:1;stroke:none;stroke-width:1.00955;stroke-linejoin:round;stroke-miterlimit:17"
         id="path45"
         cx="57.764912"
         cy="514.30676"
         r="19.6898" /><circle
         style="opacity:1;fill:#5f4e41;fill-opacity:1;stroke:none;stroke-width:0.776999;stroke-linejoin:round;stroke-miterlimit:17"
         id="circle45"
         cx="77.454712"
         cy="499.15259"
         r="15.154182" /><path
         id="circle46"
         style="opacity:1;fill:#5f4e41;fill-opacity:1;stroke:none;stroke-width:0.776999;stroke-linejoin:round;stroke-miterlimit:17"
         d="m 33.866667,589.14233 a 15.154182,15.154182 0 0 0 -7.628475,2.09755 67.733337,67.733337 0 0 0 22.716443,13.98519 15.154182,15.154182 0 0 0 0.06614,-0.92862 15.154182,15.154182 0 0 0 -15.154113,-15.15412 z" /><path
         id="circle47"
         style="opacity:1;fill:#5f4e41;fill-opacity:1;stroke:none;stroke-width:0.776999;stroke-linejoin:round;stroke-miterlimit:17"
         d="m 116.63681,562.8597 a 15.154182,15.154182 0 0 0 -15.15412,15.15411 15.154182,15.154182 0 0 0 15.13655,15.15308 67.733337,67.733337 0 0 0 14.81201,-18.41644 15.154182,15.154182 0 0 0 -14.79444,-11.89075 z" /><circle
         style="opacity:1;fill:#5f4e41;fill-opacity:1;stroke:none;stroke-width:0.364518;stroke-linejoin:round;stroke-miterlimit:17"
         id="circle48"
         cx="116.63695"
         cy="525.62909"
         r="7.1093855" /><circle
         style="opacity:1;fill:#5f4e41;fill-opacity:1;stroke:none;stroke-width:0.776999;stroke-linejoin:round;stroke-miterlimit:17"
         id="circle49"
         cx="37.685528"
         cy="566.31732"
         r="15.154182" /><circle
         style="opacity:1;fill:#5f4e41;fill-opacity:1;stroke:none;stroke-width:0.51837;stroke-linejoin:round;stroke-miterlimit:17"
         id="circle50"
         cx="58.331779"
         cy="562.85974"
         r="10.110023" /><path
         id="circle51"
         style="opacity:1;fill:#5f4e41;fill-opacity:1;stroke:none;stroke-width:0.51837;stroke-linejoin:round;stroke-miterlimit:17"
         d="m 82.49884,592.03828 a 10.110023,10.110023 0 0 0 -10.109977,10.10998 10.110023,10.110023 0 0 0 3.081466,7.23315 67.733337,67.733337 0 0 0 15.937011,-2.50631 10.110023,10.110023 0 0 0 1.201478,-4.72684 10.110023,10.110023 0 0 0 -10.109978,-10.10998 z" /><path
         id="circle52"
         style="opacity:1;fill:#5f4e41;fill-opacity:1;stroke:none;stroke-width:0.51837;stroke-linejoin:round;stroke-miterlimit:17"
         d="m 15.944763,504.55887 a 67.733337,67.733337 0 0 0 -8.4470294,18.01905 10.110023,10.110023 0 0 0 5.7784584,1.83865 10.110023,10.110023 0 0 0 10.109977,-10.10998 10.110023,10.110023 0 0 0 -7.441406,-9.74772 z" /><circle
         style="opacity:1;fill:#5f4e41;fill-opacity:1;stroke:none;stroke-width:0.287777;stroke-linejoin:round;stroke-miterlimit:17"
         id="circle54"
         cx="99.798958"
         cy="580.68445"
         r="5.6126604" /><circle
         style="opacity:1;fill:#5f4e41;fill-opacity:1;stroke:none;stroke-width:0.287777;stroke-linejoin:round;stroke-miterlimit:17"
         id="circle55"
         cx="123.74633"
         cy="524.41681"
         r="5.6126604" /><path
         id="circle56"
         style="opacity:1;fill:#5f4e41;fill-opacity:1;stroke:none;stroke-width:0.51837;stroke-linejoin:round;stroke-miterlimit:17"
         d="m 138.80806,528.50056 a 10.110023,10.110023 0 0 0 -7.95248,9.85056 10.110023,10.110023 0 0 0 8.82323,10.01799 67.733337,67.733337 0 0 0 0.46509,-6.50244 67.733337,67.733337 0 0 0 -1.33584,-13.36611 z" /><ellipse
         style="opacity:1;fill:#786659;fill-opacity:1;stroke:none;stroke-width:0.522158;stroke-linejoin:round;stroke-miterlimit:17"
         id="circle57"
         cx="294.17047"
         cy="444.86713"
         rx="13.292423"
         ry="7.802319"
         transform="rotate(28.139932)" /><ellipse
         style="opacity:1;fill:#786659;fill-opacity:1;stroke:none;stroke-width:0.52042;stroke-linejoin:round;stroke-miterlimit:17"
         id="circle59"
         cx="25.171803"
         cy="570.85315"
         rx="9.6033077"
         ry="10.727787" /><circle
         style="opacity:1;fill:#786659;fill-opacity:1;stroke:none;stroke-width:0.313498;stroke-linejoin:round;stroke-miterlimit:17"
         id="circle60"
         cx="121.53831"
         cy="566.37531"
         r="6.1143036" /><circle
         style="opacity:1;fill:#786659;fill-opacity:1;stroke:none;stroke-width:0.177838;stroke-linejoin:round;stroke-miterlimit:17"
         id="circle61"
         cx="114.22018"
         cy="519.75183"
         r="3.4684703" /><circle
         style="opacity:1;fill:#5f4e41;fill-opacity:1;stroke:none;stroke-width:0.287777;stroke-linejoin:round;stroke-miterlimit:17"
         id="circle53"
         cx="111.02428"
         cy="538.35114"
         r="5.6126604" /></g><circle
       style="fill:#ffffff;fill-opacity:1;stroke-width:20;stroke-linecap:round;stroke-linejoin:round;stroke-miterlimit:17"
       id="path1"
       cx="101.60001"
       cy="169.33334"
       r="33.866665" /><path
       d="m 208.74406,150.78965 c 0.17118,0 0.34021,0.009 0.50681,0.0258 0.1666,0.0168 0.33078,0.0417 0.49198,0.0746 0.1612,0.0328 0.31954,0.0733 0.47453,0.12125 0.155,0.048 0.30651,0.10335 0.45447,0.16574 0.14798,0.0624 0.29255,0.13211 0.43267,0.20804 0.14012,0.076 0.2759,0.1582 0.40737,0.24686 0.13146,0.0887 0.25833,0.18378 0.38033,0.28437 0.12198,0.1006 0.23897,0.2067 0.35066,0.31839 0.1117,0.1117 0.21823,0.22868 0.31882,0.35067 0.1006,0.12199 0.19528,0.24887 0.28395,0.38033 0.0886,0.13146 0.17136,0.26768 0.24729,0.4078 0.076,0.14012 0.14524,0.28426 0.20762,0.43223 0.0624,0.14797 0.11772,0.29948 0.16573,0.45446 0.048,0.155 0.0889,0.31334 0.12169,0.47454 0.0328,0.1612 0.0577,0.32538 0.0746,0.49198 0.0168,0.1666 0.0253,0.33563 0.0253,0.50681 0,-0.17118 0.008,-0.34021 0.0253,-0.50681 0.0168,-0.1666 0.0422,-0.33078 0.075,-0.49198 0.0328,-0.1612 0.0733,-0.31954 0.12125,-0.47454 0.0481,-0.15498 0.10337,-0.30649 0.16574,-0.45446 0.0624,-0.14797 0.13168,-0.29211 0.20761,-0.43223 0.076,-0.14012 0.15864,-0.27634 0.2473,-0.4078 0.0887,-0.13146 0.18335,-0.25834 0.28394,-0.38033 0.10059,-0.12199 0.20713,-0.23897 0.31883,-0.35067 0.11169,-0.11169 0.22867,-0.21779 0.35066,-0.31839 0.122,-0.10059 0.24887,-0.19569 0.38033,-0.28437 0.13147,-0.0887 0.26725,-0.17093 0.40736,-0.24686 0.14013,-0.076 0.2847,-0.14567 0.43267,-0.20804 0.14797,-0.0624 0.29948,-0.11774 0.45447,-0.16574 0.155,-0.0481 0.31333,-0.0884 0.47454,-0.12125 0.1612,-0.0328 0.32538,-0.0577 0.49198,-0.0746 0.1666,-0.0168 0.33563,-0.0258 0.5068,-0.0258 z"
       style="fill:#ffffff;stroke-width:16.8802;stroke-linecap:round;stroke-linejoin:round;stroke-miterlimit:17;fill-opacity:1"
       id="path9" /><path
       d="m 195.90284,145.84629 c 0,0.17119 0.009,0.34022 0.0258,0.50681 0.0168,0.1666 0.0417,0.33079 0.0746,0.49198 0.0328,0.16121 0.0733,0.31911 0.12126,0.47411 0.048,0.15499 0.10335,0.30694 0.16574,0.4549 0.0624,0.14797 0.13167,0.29211 0.2076,0.43224 0.076,0.14011 0.15863,0.27633 0.2473,0.4078 0.0887,0.13146 0.18334,0.25833 0.28393,0.38033 0.1006,0.12198 0.20714,0.23896 0.31883,0.35066 0.1117,0.1117 0.22868,0.2178 0.35068,0.31839 0.12198,0.10059 0.24886,0.1957 0.38031,0.28438 0.13147,0.0886 0.26769,0.17093 0.4078,0.24685 0.14013,0.076 0.28427,0.14524 0.43223,0.20761 0.14797,0.0624 0.29948,0.11817 0.45448,0.16618 0.15499,0.0481 0.31333,0.0884 0.47453,0.12125 0.1612,0.0328 0.32538,0.0577 0.49198,0.0746 0.1666,0.0168 0.33564,0.0253 0.50681,0.0253 h 7.89742 9.88759 7.89742 c 0.17118,0 0.34021,-0.008 0.50681,-0.0253 0.1666,-0.0168 0.33079,-0.0418 0.49198,-0.0746 0.16121,-0.0328 0.31954,-0.0733 0.47454,-0.12125 0.15499,-0.0481 0.30651,-0.1038 0.45447,-0.16618 0.14796,-0.0624 0.2921,-0.13168 0.43223,-0.20761 0.14011,-0.076 0.27634,-0.15819 0.4078,-0.24685 0.13146,-0.0887 0.25833,-0.18379 0.38032,-0.28438 0.122,-0.10059 0.23897,-0.20669 0.35068,-0.31839 0.11169,-0.1117 0.21823,-0.22868 0.31882,-0.35066 0.10059,-0.122 0.19527,-0.24887 0.28393,-0.38033 0.0887,-0.13147 0.17138,-0.26769 0.2473,-0.4078 0.076,-0.14013 0.14524,-0.28427 0.20761,-0.43224 0.0624,-0.14796 0.11774,-0.29991 0.16574,-0.4549 0.0481,-0.155 0.0884,-0.3129 0.12125,-0.47411 0.0328,-0.16119 0.0582,-0.32538 0.075,-0.49198 0.0168,-0.16659 0.0253,-0.33562 0.0253,-0.50681 0,-0.17117 -0.008,-0.34064 -0.0253,-0.50723 -0.0168,-0.1666 -0.0422,-0.33035 -0.075,-0.49155 -0.0328,-0.1612 -0.0733,-0.31954 -0.12125,-0.47454 -0.048,-0.15498 -0.10336,-0.30694 -0.16574,-0.4549 -0.0624,-0.14797 -0.13168,-0.2921 -0.20761,-0.43223 -0.0759,-0.14012 -0.15863,-0.2759 -0.2473,-0.40737 -0.0887,-0.13146 -0.18334,-0.25877 -0.28393,-0.38077 -0.10059,-0.12198 -0.20713,-0.23896 -0.31882,-0.35066 -0.11171,-0.1117 -0.22868,-0.2178 -0.35068,-0.31838 -0.12199,-0.1006 -0.24886,-0.19571 -0.38032,-0.28438 -0.13146,-0.0887 -0.26769,-0.17094 -0.4078,-0.24686 -0.14013,-0.076 -0.28427,-0.14524 -0.43223,-0.20761 -0.14796,-0.0624 -0.29948,-0.11773 -0.45447,-0.16574 -0.155,-0.048 -0.31333,-0.0889 -0.47454,-0.12169 -0.16119,-0.0328 -0.32538,-0.0577 -0.49198,-0.0746 -0.1666,-0.0168 -0.33563,-0.0253 -0.50681,-0.0253 h -25.68243 c -0.17117,0 -0.34021,0.008 -0.50681,0.0253 -0.1666,0.0168 -0.33078,0.0417 -0.49198,0.0746 -0.1612,0.0328 -0.31954,0.0737 -0.47453,0.12169 -0.155,0.0481 -0.30651,0.10336 -0.45448,0.16574 -0.14796,0.0624 -0.2921,0.13167 -0.43223,0.20761 -0.14011,0.076 -0.27633,0.15819 -0.4078,0.24686 -0.13145,0.0887 -0.25833,0.18378 -0.38031,0.28438 -0.122,0.10058 -0.23898,0.20668 -0.35068,0.31838 -0.11169,0.1117 -0.21823,0.22868 -0.31883,0.35066 -0.10059,0.122 -0.19526,0.24931 -0.28393,0.38077 -0.0887,0.13147 -0.17137,0.26725 -0.2473,0.40737 -0.0759,0.14013 -0.14523,0.28426 -0.2076,0.43223 -0.0624,0.14796 -0.11774,0.29992 -0.16574,0.4549 -0.0481,0.155 -0.0884,0.31334 -0.12126,0.47454 -0.0328,0.1612 -0.0577,0.32495 -0.0746,0.49155 -0.0168,0.16659 -0.0258,0.33606 -0.0258,0.50723 z"
       style="fill:#ffffff;stroke-width:16.8802;stroke-linecap:round;stroke-linejoin:round;stroke-miterlimit:17;fill-opacity:1"
       id="path7" /><path
       d="m 195.90284,145.84629 c 0,0.17119 -0.008,0.34022 -0.0253,0.50681 -0.0168,0.1666 -0.0417,0.33079 -0.0746,0.49198 -0.0328,0.16121 -0.0737,0.31911 -0.12169,0.47411 -0.048,0.15499 -0.10336,0.30694 -0.16573,0.4549 -0.0624,0.14797 -0.13168,0.29211 -0.20761,0.43224 -0.076,0.14011 -0.15819,0.27633 -0.24686,0.4078 -0.0887,0.13146 -0.18378,0.25833 -0.28437,0.38033 -0.10059,0.12198 -0.2067,0.23896 -0.3184,0.35066 -0.1117,0.1117 -0.22868,0.2178 -0.35066,0.31839 -0.12199,0.10059 -0.2493,0.1957 -0.38077,0.28438 -0.13146,0.0886 -0.26724,0.17093 -0.40737,0.24685 -0.14011,0.076 -0.28426,0.14524 -0.43222,0.20761 -0.14796,0.0624 -0.29992,0.11817 -0.4549,0.16618 -0.15499,0.0481 -0.31334,0.0884 -0.47454,0.12125 -0.16121,0.0328 -0.32495,0.0577 -0.49155,0.0746 -0.1666,0.0168 -0.33607,0.0253 -0.50724,0.0253 h 9.88759 c -0.17118,0 -0.34022,-0.008 -0.50682,-0.0253 -0.16659,-0.0168 -0.33077,-0.0418 -0.49198,-0.0746 -0.16119,-0.0328 -0.31953,-0.0733 -0.47453,-0.12125 -0.15499,-0.0481 -0.3065,-0.1038 -0.45447,-0.16618 -0.14797,-0.0624 -0.2921,-0.13168 -0.43223,-0.20761 -0.14012,-0.076 -0.27633,-0.15819 -0.4078,-0.24685 -0.13146,-0.0887 -0.25834,-0.18379 -0.38033,-0.28438 -0.12199,-0.10059 -0.23896,-0.20669 -0.35066,-0.31839 -0.1117,-0.1117 -0.21823,-0.22868 -0.31883,-0.35066 -0.10059,-0.122 -0.19527,-0.24887 -0.28393,-0.38033 -0.0887,-0.13147 -0.17137,-0.26769 -0.2473,-0.4078 -0.076,-0.14013 -0.14524,-0.28427 -0.20761,-0.43224 -0.0624,-0.14796 -0.11774,-0.29991 -0.16574,-0.4549 -0.048,-0.155 -0.0884,-0.3129 -0.12126,-0.47411 -0.0328,-0.16119 -0.0577,-0.32538 -0.0746,-0.49198 -0.0168,-0.16659 -0.0258,-0.33562 -0.0258,-0.50681 z"
       style="fill:#ffffff;stroke-width:16.8802;stroke-linecap:round;stroke-linejoin:round;stroke-miterlimit:17;fill-opacity:1"
       id="path6" /><path
       d="m 200.84664,150.78965 h -9.88759 -7.89742 c -0.17118,0 -0.34022,0.009 -0.50682,0.0258 -0.16659,0.0168 -0.33033,0.0417 -0.49154,0.0746 -0.1612,0.0328 -0.31953,0.0733 -0.47453,0.12125 -0.15499,0.048 -0.30693,0.10335 -0.4549,0.16574 -0.14797,0.0624 -0.29211,0.13211 -0.43223,0.20804 -0.14013,0.076 -0.27634,0.1582 -0.4078,0.24686 -0.13147,0.0887 -0.25835,0.18378 -0.38033,0.28437 -0.12199,0.1006 -0.23897,0.2067 -0.35067,0.31839 -0.11169,0.1117 -0.21779,0.22868 -0.31839,0.35067 -0.10059,0.12199 -0.1957,0.24887 -0.28437,0.38033 -0.0887,0.13146 -0.17093,0.26768 -0.24686,0.4078 -0.076,0.14012 -0.14524,0.28426 -0.20762,0.43223 -0.0624,0.14797 -0.11816,0.29948 -0.16616,0.45446 -0.0481,0.155 -0.0884,0.31334 -0.12126,0.47454 -0.0328,0.1612 -0.0577,0.32538 -0.0746,0.49198 -0.0168,0.1666 -0.0253,0.33563 -0.0253,0.50681 0,0.17119 0.008,0.34066 0.0253,0.50725 0.0168,0.1666 0.0417,0.33035 0.0746,0.49154 0.0328,0.16121 0.0733,0.31955 0.12126,0.47454 0.0481,0.15499 0.10379,0.30694 0.16616,0.45491 0.0624,0.14796 0.13168,0.2921 0.20762,0.43222 0.076,0.14012 0.15819,0.27591 0.24686,0.40737 0.0887,0.13146 0.18378,0.25878 0.28437,0.38077 0.1006,0.12198 0.2067,0.23896 0.31839,0.35066 0.1117,0.1117 0.22868,0.2178 0.35067,0.31839 0.12198,0.1006 0.24886,0.19571 0.38033,0.28437 0.13146,0.0887 0.26767,0.17094 0.4078,0.24686 0.14012,0.076 0.28426,0.14524 0.43223,0.20761 0.14797,0.0624 0.29991,0.11774 0.4549,0.16574 0.155,0.0481 0.31333,0.0889 0.47453,0.12169 0.16121,0.0328 0.32495,0.0577 0.49154,0.0746 0.1666,0.0168 0.33564,0.0253 0.50682,0.0253 h 25.68243 c 0.17118,0 0.34021,-0.008 0.50681,-0.0253 0.1666,-0.0168 0.33078,-0.0417 0.49198,-0.0746 0.1612,-0.0328 0.31954,-0.0737 0.47453,-0.12169 0.155,-0.048 0.30651,-0.10335 0.45447,-0.16574 0.14798,-0.0624 0.29255,-0.13167 0.43267,-0.20761 0.14012,-0.076 0.2759,-0.15818 0.40737,-0.24686 0.13146,-0.0887 0.25833,-0.18377 0.38033,-0.28437 0.12198,-0.10059 0.23897,-0.20669 0.35066,-0.31839 0.1117,-0.1117 0.21823,-0.22868 0.31882,-0.35066 0.1006,-0.12199 0.19528,-0.24931 0.28395,-0.38077 0.0886,-0.13146 0.17136,-0.26725 0.24729,-0.40737 0.076,-0.14012 0.14524,-0.28426 0.20762,-0.43222 0.0624,-0.14797 0.11772,-0.29992 0.16573,-0.45491 0.048,-0.15499 0.0889,-0.31333 0.12169,-0.47454 0.0328,-0.16119 0.0577,-0.32494 0.0746,-0.49154 0.0168,-0.16659 0.0253,-0.33606 0.0253,-0.50725 0,-0.17118 -0.008,-0.34021 -0.0253,-0.50681 -0.0168,-0.1666 -0.0418,-0.33078 -0.0746,-0.49198 -0.0328,-0.1612 -0.0737,-0.31954 -0.12169,-0.47454 -0.0481,-0.15498 -0.10336,-0.30649 -0.16573,-0.45446 -0.0624,-0.14797 -0.13168,-0.29211 -0.20762,-0.43223 -0.076,-0.14012 -0.15863,-0.27634 -0.24729,-0.4078 -0.0887,-0.13146 -0.18335,-0.25834 -0.28395,-0.38033 -0.10059,-0.12199 -0.20712,-0.23897 -0.31882,-0.35067 -0.11169,-0.11169 -0.22868,-0.21779 -0.35066,-0.31839 -0.122,-0.10059 -0.24887,-0.19569 -0.38033,-0.28437 -0.13147,-0.0887 -0.26725,-0.17093 -0.40737,-0.24686 -0.14012,-0.076 -0.28469,-0.14567 -0.43267,-0.20804 -0.14796,-0.0624 -0.29947,-0.11774 -0.45447,-0.16574 -0.15499,-0.0481 -0.31333,-0.0884 -0.47453,-0.12125 -0.1612,-0.0328 -0.32538,-0.0577 -0.49198,-0.0746 -0.1666,-0.0168 -0.33563,-0.0258 -0.50681,-0.0258 z"
       style="fill:#ffffff;stroke-width:16.8802;stroke-linecap:round;stroke-linejoin:round;stroke-miterlimit:17;fill-opacity:1"
       id="path5" /><path
       d="m 207.98559,173.89268 c 0,0.34235 -0.0343,0.67638 -0.0999,0.99879 -0.0657,0.3224 -0.16269,0.63307 -0.28744,0.92901 -0.12475,0.29593 -0.27713,0.5771 -0.45446,0.84002 -0.17734,0.26294 -0.37937,0.50761 -0.60276,0.731 -0.22341,0.2234 -0.4685,0.42542 -0.73144,0.60276 -0.26293,0.17734 -0.54365,0.33015 -0.83959,0.4549 -0.29593,0.12475 -0.60704,0.22136 -0.92944,0.28701 -0.32241,0.0657 -0.65644,0.1003 -0.99879,0.1003 h 9.88758 c -0.34235,0 -0.67638,-0.0347 -0.99879,-0.1003 -0.3224,-0.0657 -0.63307,-0.16226 -0.929,-0.28701 -0.29593,-0.12475 -0.5771,-0.27756 -0.84003,-0.4549 -0.26292,-0.17734 -0.50759,-0.37936 -0.731,-0.60276 -0.22338,-0.22339 -0.42542,-0.46806 -0.60276,-0.731 -0.17734,-0.26292 -0.33015,-0.54409 -0.4549,-0.84002 -0.12475,-0.29594 -0.22135,-0.60661 -0.28699,-0.92901 -0.0657,-0.32241 -0.10032,-0.65644 -0.10032,-0.99879 z"
       style="fill:#ffffff;stroke-width:16.8802;stroke-linecap:round;stroke-linejoin:round;stroke-miterlimit:17;fill-opacity:1"
       id="path41" /><path
       d="m 207.98559,173.89268 c 0,0.34235 0.0347,0.67638 0.10032,0.99879 0.0657,0.3224 0.16224,0.63307 0.28699,0.92901 0.12475,0.29593 0.27756,0.5771 0.4549,0.84002 0.17734,0.26294 0.37938,0.50761 0.60276,0.731 0.22341,0.2234 0.46808,0.42542 0.731,0.60276 0.26293,0.17734 0.5441,0.33015 0.84003,0.4549 0.29593,0.12475 0.6066,0.22136 0.929,0.28701 0.32241,0.0657 0.65644,0.1003 0.99879,0.1003 h 11.43856 9.88758 4.3563 c 0.34236,0 0.67638,-0.0347 0.99879,-0.1003 0.3224,-0.0657 0.63307,-0.16226 0.929,-0.28701 0.29593,-0.12475 0.5771,-0.27756 0.84004,-0.4549 0.26292,-0.17734 0.50759,-0.37936 0.73099,-0.60276 0.22339,-0.22339 0.42542,-0.46806 0.60277,-0.731 0.17733,-0.26292 0.33014,-0.54409 0.4549,-0.84002 0.12475,-0.29594 0.22134,-0.60661 0.28698,-0.92901 0.0657,-0.32241 0.10032,-0.65644 0.10032,-0.99879 0,-0.34235 -0.0347,-0.67638 -0.10032,-0.99878 -0.0657,-0.32242 -0.16223,-0.63309 -0.28698,-0.92902 -0.12476,-0.29593 -0.27757,-0.5771 -0.4549,-0.84003 -0.17735,-0.26292 -0.37938,-0.50759 -0.60277,-0.731 -0.2234,-0.22339 -0.46807,-0.42542 -0.73099,-0.60275 -0.26294,-0.17734 -0.54411,-0.33016 -0.84004,-0.45491 -0.29593,-0.12475 -0.6066,-0.22179 -0.929,-0.28743 -0.32241,-0.0657 -0.65643,-0.0999 -0.99879,-0.0999 h -25.68244 c -0.34235,0 -0.67638,0.0343 -0.99879,0.0999 -0.3224,0.0657 -0.63307,0.16268 -0.929,0.28743 -0.29593,0.12475 -0.5771,0.27757 -0.84003,0.45491 -0.26292,0.17733 -0.50759,0.37936 -0.731,0.60275 -0.22338,0.22341 -0.42542,0.46808 -0.60276,0.731 -0.17734,0.26293 -0.33015,0.5441 -0.4549,0.84003 -0.12475,0.29593 -0.22135,0.6066 -0.28699,0.92902 -0.0657,0.3224 -0.10032,0.65643 -0.10032,0.99878 z"
       style="fill:#ffffff;stroke-width:16.8802;stroke-linecap:round;stroke-linejoin:round;stroke-miterlimit:17;fill-opacity:1"
       id="path40" /><path
       d="m 224.36794,178.83647 c 0.34235,0 0.67638,0.0343 0.99879,0.0999 0.3224,0.0657 0.6335,0.16267 0.92943,0.28742 0.29594,0.12475 0.57668,0.27713 0.8396,0.45447 0.26292,0.17733 0.50803,0.37937 0.73143,0.60275 0.2234,0.22341 0.42542,0.46852 0.60276,0.73144 0.17734,0.26293 0.32972,0.54366 0.45447,0.83959 0.12476,0.29593 0.22179,0.60704 0.28743,0.92944 0.0657,0.32241 0.0999,0.65644 0.0999,0.99879 0,-0.34235 0.0347,-0.67638 0.10033,-0.99879 0.0657,-0.3224 0.16223,-0.63351 0.28698,-0.92944 0.12475,-0.29593 0.27757,-0.57666 0.45491,-0.83959 0.17734,-0.26292 0.37936,-0.50803 0.60277,-0.73144 0.22338,-0.22338 0.46805,-0.42542 0.73099,-0.60275 0.26292,-0.17734 0.5441,-0.32972 0.84003,-0.45447 0.29592,-0.12475 0.6066,-0.22179 0.929,-0.28742 0.32241,-0.0657 0.65643,-0.0999 0.99879,-0.0999 z"
       style="fill:#ffffff;stroke-width:16.8802;stroke-linecap:round;stroke-linejoin:round;stroke-miterlimit:17;fill-opacity:1"
       id="path38" /><path
       d="m 224.36794,188.72406 h 9.88758 c -0.34236,0 -0.67638,-0.0347 -0.99879,-0.10032 -0.3224,-0.0657 -0.63308,-0.16223 -0.929,-0.28698 -0.29593,-0.12476 -0.57711,-0.27758 -0.84003,-0.45491 -0.26294,-0.17734 -0.50761,-0.37937 -0.73099,-0.60276 -0.22341,-0.22341 -0.42543,-0.46808 -0.60277,-0.731 -0.17734,-0.26292 -0.33016,-0.54409 -0.45491,-0.84003 -0.12475,-0.29593 -0.22134,-0.60659 -0.28698,-0.929 -0.0657,-0.32241 -0.10033,-0.65645 -0.10033,-0.9988 0,0.34235 -0.0343,0.67639 -0.0999,0.9988 -0.0657,0.32241 -0.16267,0.63307 -0.28743,0.929 -0.12475,0.29594 -0.27713,0.57711 -0.45447,0.84003 -0.17734,0.26292 -0.37936,0.50759 -0.60276,0.731 -0.2234,0.22339 -0.46851,0.42542 -0.73143,0.60276 -0.26292,0.17733 -0.54366,0.33015 -0.8396,0.45491 -0.29593,0.12475 -0.60703,0.22135 -0.92943,0.28698 -0.32241,0.0657 -0.65644,0.10032 -0.99879,0.10032 z"
       style="fill:#ffffff;stroke-width:16.8802;stroke-linecap:round;stroke-linejoin:round;stroke-miterlimit:17;fill-opacity:1"
       id="path37" /><path
       d="m 217.12605,193.66786 c 0,-0.34237 0.0347,-0.67639 0.10031,-0.9988 0.0657,-0.3224 0.16225,-0.63351 0.287,-0.92944 0.12475,-0.29593 0.27756,-0.57666 0.4549,-0.83959 0.17734,-0.26294 0.37937,-0.50804 0.60276,-0.73143 0.2234,-0.22339 0.46807,-0.42542 0.731,-0.60276 0.26292,-0.17734 0.54409,-0.32973 0.84003,-0.45448 0.29593,-0.12475 0.6066,-0.22178 0.929,-0.28742 0.32241,-0.0657 0.65644,-0.0999 0.99879,-0.0999 h -9.88758 c 0.34235,0 0.67638,0.0343 0.99879,0.0999 0.3224,0.0657 0.63351,0.16267 0.92944,0.28742 0.29593,0.12475 0.57666,0.27714 0.83959,0.45448 0.26294,0.17734 0.50803,0.37937 0.73144,0.60276 0.22338,0.22339 0.42542,0.46849 0.60276,0.73143 0.17733,0.26293 0.32971,0.54366 0.45446,0.83959 0.12475,0.29593 0.22179,0.60704 0.28742,0.92944 0.0657,0.32241 0.0999,0.65643 0.0999,0.9988 z"
       style="fill:#ffffff;stroke-width:16.8802;stroke-linecap:round;stroke-linejoin:round;stroke-miterlimit:17;fill-opacity:1"
       id="path35" /><path
       d="m 188.79834,178.83647 c 0.34237,0 0.6764,0.0343 0.99881,0.0999 0.3224,0.0657 0.63307,0.16267 0.92899,0.28742 0.29594,0.12475 0.57711,0.27713 0.84003,0.45447 0.26293,0.17733 0.5076,0.37937 0.731,0.60275 0.22339,0.22341 0.42542,0.46852 0.60276,0.73144 0.17734,0.26293 0.33016,0.54366 0.45491,0.83959 0.12475,0.29593 0.22135,0.60704 0.28699,0.92944 0.0657,0.32241 0.10032,0.65644 0.10032,0.99879 0,-0.34235 0.0343,-0.67638 0.0999,-0.99879 0.0657,-0.3224 0.16267,-0.63351 0.28742,-0.92944 0.12476,-0.29593 0.27714,-0.57666 0.45447,-0.83959 0.17734,-0.26292 0.37937,-0.50803 0.60276,-0.73144 0.2234,-0.22338 0.46851,-0.42542 0.73144,-0.60275 0.26292,-0.17734 0.54366,-0.32972 0.83959,-0.45447 0.29592,-0.12475 0.60703,-0.22179 0.92943,-0.28742 0.32241,-0.0657 0.65644,-0.0999 0.9988,-0.0999 z"
       style="fill:#ffffff;stroke-width:16.8802;stroke-linecap:round;stroke-linejoin:round;stroke-miterlimit:17;fill-opacity:1"
       id="path33" /><path
       d="m 193.74215,183.78026 c 0,0.34235 -0.0347,0.67639 -0.10032,0.9988 -0.0657,0.32241 -0.16224,0.63307 -0.28699,0.929 -0.12475,0.29594 -0.27757,0.57711 -0.45491,0.84003 -0.17734,0.26292 -0.37937,0.50759 -0.60276,0.731 -0.2234,0.22339 -0.46807,0.42542 -0.731,0.60276 -0.26292,0.17733 -0.54409,0.33015 -0.84003,0.45491 -0.29592,0.12475 -0.60659,0.22135 -0.92899,0.28698 -0.32241,0.0657 -0.65644,0.10032 -0.99881,0.10032 h 9.8876 c -0.34236,0 -0.67639,-0.0347 -0.9988,-0.10032 -0.3224,-0.0657 -0.63351,-0.16223 -0.92943,-0.28698 -0.29593,-0.12476 -0.57667,-0.27758 -0.83959,-0.45491 -0.26293,-0.17734 -0.50804,-0.37937 -0.73144,-0.60276 -0.22339,-0.22341 -0.42542,-0.46808 -0.60276,-0.731 -0.17733,-0.26292 -0.32971,-0.54409 -0.45447,-0.84003 -0.12475,-0.29593 -0.22179,-0.60659 -0.28742,-0.929 -0.0657,-0.32241 -0.0999,-0.65645 -0.0999,-0.9988 z"
       style="fill:#ffffff;stroke-width:16.8802;stroke-linecap:round;stroke-linejoin:round;stroke-miterlimit:17;fill-opacity:1"
       id="path32" /><path
       d="m 212.92938,178.83647 h -9.88758 -4.35586 c -0.34236,0 -0.67639,0.0343 -0.9988,0.0999 -0.3224,0.0657 -0.63351,0.16267 -0.92943,0.28742 -0.29593,0.12475 -0.57667,0.27713 -0.83959,0.45447 -0.26293,0.17733 -0.50804,0.37937 -0.73144,0.60275 -0.22339,0.22341 -0.42542,0.46852 -0.60276,0.73144 -0.17733,0.26293 -0.32971,0.54366 -0.45447,0.83959 -0.12475,0.29593 -0.22179,0.60704 -0.28742,0.92944 -0.0657,0.32241 -0.0999,0.65644 -0.0999,0.99879 0,0.34235 0.0343,0.67639 0.0999,0.9988 0.0657,0.32241 0.16267,0.63307 0.28742,0.929 0.12476,0.29594 0.27714,0.57711 0.45447,0.84003 0.17734,0.26292 0.37937,0.50759 0.60276,0.731 0.2234,0.22339 0.46851,0.42542 0.73144,0.60276 0.26292,0.17733 0.54366,0.33015 0.83959,0.45491 0.29592,0.12475 0.60703,0.22135 0.92943,0.28698 0.32241,0.0657 0.65644,0.10032 0.9988,0.10032 h 13.49632 9.88758 2.2981 c 0.34235,0 0.67638,-0.0347 0.99879,-0.10032 0.3224,-0.0657 0.6335,-0.16223 0.92943,-0.28698 0.29594,-0.12476 0.57668,-0.27758 0.8396,-0.45491 0.26292,-0.17734 0.50803,-0.37937 0.73143,-0.60276 0.2234,-0.22341 0.42542,-0.46808 0.60276,-0.731 0.17734,-0.26292 0.32972,-0.54409 0.45447,-0.84003 0.12476,-0.29593 0.22179,-0.60659 0.28743,-0.929 0.0657,-0.32241 0.0999,-0.65645 0.0999,-0.9988 0,-0.34235 -0.0343,-0.67638 -0.0999,-0.99879 -0.0657,-0.3224 -0.16267,-0.63351 -0.28743,-0.92944 -0.12475,-0.29593 -0.27713,-0.57666 -0.45447,-0.83959 -0.17734,-0.26292 -0.37936,-0.50803 -0.60276,-0.73144 -0.2234,-0.22338 -0.46851,-0.42542 -0.73143,-0.60275 -0.26292,-0.17734 -0.54366,-0.32972 -0.8396,-0.45447 -0.29593,-0.12475 -0.60703,-0.22179 -0.92943,-0.28742 -0.32241,-0.0657 -0.65644,-0.0999 -0.99879,-0.0999 z"
       style="fill:#ffffff;stroke-width:16.8802;stroke-linecap:round;stroke-linejoin:round;stroke-miterlimit:17;fill-opacity:1"
       id="path34" /><path
       d="m 186.50026,188.72406 h 2.29808 c 0.34237,0 0.6764,-0.0347 0.99881,-0.10032 0.3224,-0.0657 0.63307,-0.16223 0.92899,-0.28698 0.29594,-0.12476 0.57711,-0.27758 0.84003,-0.45491 0.26293,-0.17734 0.5076,-0.37937 0.731,-0.60276 0.22339,-0.22341 0.42542,-0.46808 0.60276,-0.731 0.17734,-0.26292 0.33016,-0.54409 0.45491,-0.84003 0.12475,-0.29593 0.22135,-0.60659 0.28699,-0.929 0.0657,-0.32241 0.10032,-0.65645 0.10032,-0.9988 0,-0.34235 -0.0347,-0.67638 -0.10032,-0.99879 -0.0657,-0.3224 -0.16224,-0.63351 -0.28699,-0.92944 -0.12475,-0.29593 -0.27757,-0.57666 -0.45491,-0.83959 -0.17734,-0.26292 -0.37937,-0.50803 -0.60276,-0.73144 -0.2234,-0.22338 -0.46807,-0.42542 -0.731,-0.60275 -0.26292,-0.17734 -0.54409,-0.32972 -0.84003,-0.45447 -0.29592,-0.12475 -0.60659,-0.22179 -0.92899,-0.28742 -0.32241,-0.0657 -0.65644,-0.0999 -0.99881,-0.0999 h -11.43854 -1.61689 c -0.34236,0 -0.67639,0.0343 -0.9988,0.0999 -0.3224,0.0657 -0.63306,0.16267 -0.92899,0.28742 -0.29594,0.12475 -0.57711,0.27713 -0.84004,0.45447 -0.26292,0.17733 -0.50759,0.37937 -0.73099,0.60275 -0.2234,0.22341 -0.42542,0.46852 -0.60276,0.73144 -0.17734,0.26293 -0.33015,0.54366 -0.45491,0.83959 -0.12476,0.29593 -0.22135,0.60704 -0.28699,0.92944 -0.0657,0.32241 -0.10031,0.65644 -0.10031,0.99879 0,0.34235 0.0347,0.67639 0.10031,0.9988 0.0657,0.32241 0.16223,0.63307 0.28699,0.929 0.12476,0.29594 0.27757,0.57711 0.45491,0.84003 0.17734,0.26292 0.37936,0.50759 0.60276,0.731 0.2234,0.22339 0.46807,0.42542 0.73099,0.60276 0.26293,0.17733 0.5441,0.33015 0.84004,0.45491 0.29593,0.12475 0.60659,0.22135 0.92899,0.28698 0.32241,0.0657 0.65644,0.10032 0.9988,0.10032 z"
       style="fill:#ffffff;stroke-width:16.8802;stroke-linecap:round;stroke-linejoin:round;stroke-miterlimit:17;fill-opacity:1"
       id="path31"
       sodipodi:nodetypes="cscssssscscssssscscscssssscscssssscsc" /><path
       d="m 247.75227,188.72406 h -13.49675 -9.88758 -2.2981 c -0.34235,0 -0.67638,0.0343 -0.99879,0.0999 -0.3224,0.0657 -0.63307,0.16267 -0.929,0.28742 -0.29594,0.12475 -0.57711,0.27714 -0.84003,0.45448 -0.26293,0.17734 -0.5076,0.37937 -0.731,0.60276 -0.22339,0.22339 -0.42542,0.46849 -0.60276,0.73143 -0.17734,0.26293 -0.33015,0.54366 -0.4549,0.83959 -0.12475,0.29593 -0.22135,0.60704 -0.287,0.92944 -0.0657,0.32241 -0.10031,0.65643 -0.10031,0.9988 0,0.34235 0.0347,0.67594 0.10031,0.99835 0.0657,0.32241 0.16225,0.63351 0.287,0.92944 0.12475,0.29592 0.27756,0.57711 0.4549,0.84003 0.17734,0.26293 0.37937,0.5076 0.60276,0.73099 0.2234,0.2234 0.46807,0.42543 0.731,0.60277 0.26292,0.17734 0.54409,0.32972 0.84003,0.45447 0.29593,0.12475 0.6066,0.22179 0.929,0.28742 0.32241,0.0657 0.65644,0.0999 0.99879,0.0999 h 25.68243 c 0.34237,0 0.67639,-0.0343 0.9988,-0.0999 0.3224,-0.0657 0.63307,-0.16267 0.929,-0.28742 0.29593,-0.12475 0.5771,-0.27713 0.84003,-0.45447 0.26293,-0.17734 0.5076,-0.37937 0.73099,-0.60277 0.2234,-0.22339 0.42543,-0.46806 0.60277,-0.73099 0.17734,-0.26292 0.33015,-0.54411 0.45491,-0.84003 0.12475,-0.29593 0.22134,-0.60703 0.28698,-0.92944 0.0657,-0.32241 0.10032,-0.656 0.10032,-0.99835 0,-0.34237 -0.0347,-0.67639 -0.10032,-0.9988 -0.0657,-0.3224 -0.16223,-0.63351 -0.28698,-0.92944 -0.12476,-0.29593 -0.27757,-0.57666 -0.45491,-0.83959 -0.17734,-0.26294 -0.37937,-0.50804 -0.60277,-0.73143 -0.22339,-0.22339 -0.46806,-0.42542 -0.73099,-0.60276 -0.26293,-0.17734 -0.5441,-0.32973 -0.84003,-0.45448 -0.29593,-0.12475 -0.6066,-0.22178 -0.929,-0.28742 -0.32241,-0.0657 -0.65643,-0.0999 -0.9988,-0.0999 z"
       style="fill:#ffffff;stroke-width:16.8802;stroke-linecap:round;stroke-linejoin:round;stroke-miterlimit:17;fill-opacity:1"
       id="path36" /><path
       d="m 139.26747,145.84629 c 0,0.17119 0.009,0.34022 0.0258,0.50681 0.0168,0.1666 0.0418,0.33079 0.0746,0.49198 0.0328,0.16121 0.0733,0.31911 0.12126,0.47411 0.0481,0.15499 0.10336,0.30694 0.16573,0.4549 0.0624,0.14797 0.13168,0.29211 0.20762,0.43224 0.076,0.14011 0.15862,0.27633 0.24729,0.4078 0.0887,0.13146 0.18335,0.25833 0.28394,0.38033 0.10059,0.12198 0.20713,0.23896 0.31883,0.35066 0.11169,0.1117 0.22867,0.2178 0.35066,0.31839 0.12199,0.10059 0.24887,0.1957 0.38033,0.28438 0.13147,0.0886 0.26767,0.17093 0.4078,0.24685 0.14013,0.076 0.28426,0.14524 0.43223,0.20761 0.14797,0.0624 0.29948,0.11817 0.45447,0.16618 0.155,0.0481 0.31334,0.0884 0.47453,0.12125 0.16121,0.0328 0.32539,0.0577 0.49198,0.0746 0.1666,0.0168 0.33564,0.0253 0.50682,0.0253 h 7.89741 9.8876 7.89741 c 0.17119,0 0.34022,-0.008 0.50682,-0.0253 0.1666,-0.0168 0.33078,-0.0418 0.49198,-0.0746 0.1612,-0.0328 0.31954,-0.0733 0.47453,-0.12125 0.155,-0.0481 0.30651,-0.1038 0.45447,-0.16618 0.14796,-0.0624 0.29211,-0.13168 0.43222,-0.20761 0.14013,-0.076 0.27635,-0.15819 0.40781,-0.24685 0.13147,-0.0887 0.25834,-0.18379 0.38033,-0.28438 0.12198,-0.10059 0.23896,-0.20669 0.35067,-0.31839 0.11169,-0.1117 0.21823,-0.22868 0.31882,-0.35066 0.10059,-0.122 0.19527,-0.24887 0.28393,-0.38033 0.0887,-0.13147 0.17138,-0.26769 0.24731,-0.4078 0.076,-0.14013 0.14523,-0.28427 0.20761,-0.43224 0.0624,-0.14796 0.11773,-0.29991 0.16573,-0.4549 0.0481,-0.155 0.0884,-0.3129 0.12125,-0.47411 0.0328,-0.16119 0.0582,-0.32538 0.075,-0.49198 0.0168,-0.16659 0.0253,-0.33562 0.0253,-0.50681 0,-0.17117 -0.008,-0.34064 -0.0253,-0.50723 -0.0168,-0.1666 -0.0422,-0.33035 -0.075,-0.49155 -0.0328,-0.1612 -0.0733,-0.31954 -0.12125,-0.47454 -0.048,-0.15498 -0.10336,-0.30694 -0.16573,-0.4549 -0.0624,-0.14797 -0.13168,-0.2921 -0.20761,-0.43223 -0.076,-0.14012 -0.15863,-0.2759 -0.24731,-0.40737 -0.0887,-0.13146 -0.18334,-0.25877 -0.28393,-0.38077 -0.10059,-0.12198 -0.20713,-0.23896 -0.31882,-0.35066 -0.11171,-0.1117 -0.22869,-0.2178 -0.35067,-0.31838 -0.12199,-0.1006 -0.24886,-0.19571 -0.38033,-0.28438 -0.13146,-0.0887 -0.26768,-0.17094 -0.40781,-0.24686 -0.14011,-0.076 -0.28426,-0.14524 -0.43222,-0.20761 -0.14796,-0.0624 -0.29947,-0.11773 -0.45447,-0.16574 -0.15499,-0.048 -0.31333,-0.0889 -0.47453,-0.12169 -0.1612,-0.0328 -0.32538,-0.0577 -0.49198,-0.0746 -0.1666,-0.0168 -0.33563,-0.0253 -0.50682,-0.0253 h -25.68242 c -0.17118,0 -0.34022,0.008 -0.50682,0.0253 -0.16659,0.0168 -0.33077,0.0417 -0.49198,0.0746 -0.16119,0.0328 -0.31953,0.0737 -0.47453,0.12169 -0.15499,0.0481 -0.3065,0.10336 -0.45447,0.16574 -0.14797,0.0624 -0.2921,0.13167 -0.43223,0.20761 -0.14013,0.076 -0.27633,0.15819 -0.4078,0.24686 -0.13146,0.0887 -0.25834,0.18378 -0.38033,0.28438 -0.12199,0.10058 -0.23897,0.20668 -0.35066,0.31838 -0.1117,0.1117 -0.21824,0.22868 -0.31883,0.35066 -0.10059,0.122 -0.19527,0.24931 -0.28394,0.38077 -0.0887,0.13147 -0.17136,0.26725 -0.24729,0.40737 -0.076,0.14013 -0.14524,0.28426 -0.20762,0.43223 -0.0624,0.14796 -0.11773,0.29992 -0.16573,0.4549 -0.0481,0.155 -0.0884,0.31334 -0.12126,0.47454 -0.0328,0.1612 -0.0577,0.32495 -0.0746,0.49155 -0.0168,0.16659 -0.0258,0.33606 -0.0258,0.50723 z"
       style="fill:#ffffff;stroke-width:16.8802;stroke-linecap:round;stroke-linejoin:round;stroke-miterlimit:17;fill-opacity:1"
       id="path42" /><path
       d="m 156.85313,168.94909 c 0,0.17119 0.009,0.34021 0.0258,0.50681 0.0168,0.1666 0.0418,0.33079 0.0746,0.49198 0.0328,0.16121 0.0733,0.31911 0.12125,0.47411 0.0481,0.15499 0.10336,0.30694 0.16575,0.4549 0.0624,0.14797 0.13167,0.29211 0.2076,0.43225 0.076,0.14011 0.15863,0.27632 0.2473,0.40779 0.0887,0.13145 0.18334,0.25833 0.28393,0.38032 0.1006,0.12199 0.20713,0.23897 0.31883,0.35067 0.1117,0.1117 0.22867,0.21779 0.35067,0.31839 0.12199,0.10059 0.24887,0.1957 0.38032,0.28437 0.13147,0.0887 0.26769,0.17093 0.4078,0.24687 0.14013,0.076 0.28426,0.14523 0.43223,0.2076 0.14797,0.0624 0.29948,0.11817 0.45447,0.16617 0.155,0.0481 0.31334,0.0884 0.47454,0.12127 0.1612,0.0328 0.32538,0.0577 0.49198,0.0746 0.1666,0.0168 0.33564,0.0253 0.50681,0.0253 h 7.89742 9.88759 7.89742 c 0.17118,0 0.34021,-0.008 0.50681,-0.0253 0.1666,-0.0168 0.33079,-0.0417 0.49198,-0.0746 0.16121,-0.0328 0.31954,-0.0733 0.47453,-0.12127 0.155,-0.0481 0.30652,-0.10379 0.45448,-0.16617 0.14796,-0.0624 0.2921,-0.13168 0.43222,-0.2076 0.14012,-0.076 0.27635,-0.15821 0.40781,-0.24687 0.13146,-0.0887 0.25833,-0.18378 0.38032,-0.28437 0.12199,-0.1006 0.23897,-0.20669 0.35067,-0.31839 0.1117,-0.1117 0.21824,-0.22868 0.31883,-0.35067 0.10059,-0.12199 0.19527,-0.24887 0.28393,-0.38032 0.0887,-0.13146 0.17138,-0.26768 0.2473,-0.40779 0.0759,-0.14014 0.14524,-0.28428 0.20761,-0.43225 0.0624,-0.14796 0.11773,-0.29991 0.16574,-0.4549 0.0481,-0.155 0.0884,-0.3129 0.12125,-0.47411 0.0328,-0.16119 0.0582,-0.32538 0.075,-0.49198 0.0168,-0.1666 0.0253,-0.33562 0.0253,-0.50681 0,-0.17117 -0.008,-0.34064 -0.0253,-0.50723 -0.0168,-0.1666 -0.0422,-0.33035 -0.075,-0.49155 -0.0328,-0.1612 -0.0733,-0.31955 -0.12125,-0.47454 -0.048,-0.15498 -0.10336,-0.30694 -0.16574,-0.4549 -0.0624,-0.14797 -0.13168,-0.2921 -0.20761,-0.43223 -0.076,-0.14012 -0.15863,-0.2759 -0.2473,-0.40737 -0.0886,-0.13146 -0.18334,-0.25877 -0.28393,-0.38077 -0.10059,-0.12198 -0.20713,-0.23896 -0.31883,-0.35066 -0.1117,-0.1117 -0.22868,-0.2178 -0.35067,-0.31839 -0.12199,-0.10059 -0.24886,-0.19571 -0.38032,-0.28437 -0.13146,-0.0887 -0.26769,-0.17094 -0.40781,-0.24686 -0.14012,-0.076 -0.28426,-0.14524 -0.43222,-0.20761 -0.14796,-0.0624 -0.29948,-0.11773 -0.45448,-0.16574 -0.15499,-0.048 -0.31332,-0.0889 -0.47453,-0.12169 -0.16119,-0.0328 -0.32538,-0.0577 -0.49198,-0.0746 -0.1666,-0.0168 -0.33563,-0.0253 -0.50681,-0.0253 h -25.68243 c -0.17117,0 -0.34021,0.008 -0.50681,0.0253 -0.1666,0.0168 -0.33078,0.0418 -0.49198,0.0746 -0.1612,0.0328 -0.31954,0.0737 -0.47454,0.12169 -0.15499,0.0481 -0.3065,0.10336 -0.45447,0.16574 -0.14797,0.0624 -0.2921,0.13167 -0.43223,0.20761 -0.14011,0.076 -0.27633,0.15819 -0.4078,0.24686 -0.13145,0.0887 -0.25833,0.18378 -0.38032,0.28437 -0.122,0.10059 -0.23897,0.20669 -0.35067,0.31839 -0.1117,0.1117 -0.21823,0.22868 -0.31883,0.35066 -0.10059,0.122 -0.19526,0.24931 -0.28393,0.38077 -0.0887,0.13147 -0.17137,0.26725 -0.2473,0.40737 -0.0759,0.14013 -0.14524,0.28426 -0.2076,0.43223 -0.0624,0.14796 -0.11775,0.29992 -0.16575,0.4549 -0.0481,0.15499 -0.0884,0.31334 -0.12125,0.47454 -0.0328,0.1612 -0.0577,0.32495 -0.0746,0.49155 -0.0168,0.16659 -0.0258,0.33606 -0.0258,0.50723 z"
       style="fill:#ffffff;stroke-width:16.8802;stroke-linecap:round;stroke-linejoin:round;stroke-miterlimit:17;fill-opacity:1"
       id="path43" /><path
       id="path44"
       style="fill:#ffffff;stroke-width:16.8802;stroke-linecap:round;stroke-linejoin:round;stroke-miterlimit:17;fill-opacity:1"
       d="m 246.31185,155.73365 c -0.17117,0 -0.33983,0.008 -0.50643,0.0253 -0.1666,0.0168 -0.33076,0.0415 -0.49196,0.0744 -0.16121,0.0328 -0.31991,0.074 -0.4749,0.12196 -0.15499,0.048 -0.30626,0.10349 -0.45424,0.16588 -0.14796,0.0624 -0.29241,0.13129 -0.43253,0.20722 -0.14012,0.076 -0.27626,0.15835 -0.40773,0.24702 -0.13146,0.0887 -0.25836,0.18362 -0.38034,0.28422 -0.12199,0.10059 -0.23867,0.20715 -0.35036,0.31884 -0.11169,0.11171 -0.21825,0.22839 -0.31885,0.35037 -0.10058,0.122 -0.19554,0.24939 -0.28422,0.38085 -0.0887,0.13146 -0.17109,0.26709 -0.24701,0.40721 -0.076,0.14012 -0.14536,0.28457 -0.20774,0.43253 -0.0624,0.14797 -0.11787,0.29978 -0.16588,0.45476 -0.048,0.155 -0.0881,0.31319 -0.12092,0.47439 -0.0328,0.16121 -0.058,0.32484 -0.0749,0.49144 -0.0168,0.16659 -0.0258,0.33629 -0.0258,0.50746 0,0.17119 0.009,0.34036 0.0258,0.50695 0.0168,0.1666 0.042,0.33077 0.0749,0.49196 0.0328,0.16121 0.073,0.31887 0.12092,0.47387 0.048,0.15499 0.1035,0.30731 0.16588,0.45527 0.0624,0.14796 0.13181,0.29188 0.20774,0.43201 0.076,0.14012 0.15834,0.27626 0.24701,0.40773 0.0887,0.13146 0.18364,0.25836 0.28422,0.38034 0.1006,0.12199 0.20716,0.23918 0.31885,0.35088 0.11169,0.1117 0.22837,0.21773 0.35036,0.31833 0.12198,0.10059 0.24888,0.19555 0.38034,0.28422 0.13147,0.0887 0.26761,0.17108 0.40773,0.24701 0.14012,0.076 0.28457,0.14537 0.43253,0.20774 0.14798,0.0624 0.29925,0.11788 0.45424,0.16588 0.15499,0.0481 0.31369,0.0886 0.4749,0.12144 0.1612,0.0328 0.32536,0.0575 0.49196,0.0744 0.1666,0.0168 0.33526,0.0253 0.50643,0.0253 h 7.89771 9.88725 3.03599 v -9.88725 z" /><path
       id="path62"
       style="fill:#ffffff;stroke-width:16.8802;stroke-linecap:round;stroke-linejoin:round;stroke-miterlimit:17;fill-opacity:1"
       d="m 139.26747,155.73365 v 9.88725 h 4.86172 c 0.17117,0 0.34035,-0.008 0.50695,-0.0253 0.1666,-0.0168 0.33077,-0.0415 0.49196,-0.0744 0.16121,-0.0328 0.3194,-0.0735 0.47439,-0.12144 0.15499,-0.048 0.30627,-0.1035 0.45423,-0.16588 0.14797,-0.0624 0.29241,-0.1318 0.43253,-0.20774 0.14012,-0.076 0.27626,-0.15834 0.40773,-0.24701 0.13145,-0.0887 0.25835,-0.18363 0.38034,-0.28422 0.12199,-0.1006 0.23918,-0.20663 0.35088,-0.31833 0.1117,-0.1117 0.21827,-0.22889 0.31885,-0.35088 0.10059,-0.12199 0.19503,-0.24888 0.2837,-0.38034 0.0887,-0.13146 0.17161,-0.26761 0.24753,-0.40773 0.0759,-0.14013 0.14485,-0.28405 0.20722,-0.43201 0.0624,-0.14796 0.11787,-0.30028 0.16588,-0.45527 0.048,-0.155 0.0886,-0.31266 0.12144,-0.47387 0.0328,-0.16119 0.0581,-0.32536 0.0749,-0.49196 0.0168,-0.16659 0.0253,-0.33576 0.0253,-0.50695 0,-0.17117 -0.008,-0.34087 -0.0253,-0.50746 -0.0168,-0.1666 -0.0421,-0.33023 -0.0749,-0.49144 -0.0328,-0.1612 -0.0735,-0.31939 -0.12144,-0.47439 -0.0481,-0.15498 -0.10351,-0.30679 -0.16588,-0.45476 -0.0624,-0.14796 -0.1313,-0.29241 -0.20722,-0.43253 -0.076,-0.14012 -0.15887,-0.27575 -0.24753,-0.40721 -0.0887,-0.13146 -0.18311,-0.25885 -0.2837,-0.38085 -0.10058,-0.12198 -0.20715,-0.23866 -0.31885,-0.35037 -0.1117,-0.11169 -0.22889,-0.21825 -0.35088,-0.31884 -0.12199,-0.1006 -0.24889,-0.19555 -0.38034,-0.28422 -0.13147,-0.0887 -0.26761,-0.1711 -0.40773,-0.24702 -0.14012,-0.076 -0.28456,-0.14485 -0.43253,-0.20722 -0.14796,-0.0624 -0.29924,-0.11788 -0.45423,-0.16588 -0.15499,-0.0481 -0.31318,-0.0892 -0.47439,-0.12196 -0.16119,-0.0328 -0.32536,-0.0575 -0.49196,-0.0744 -0.1666,-0.0168 -0.33578,-0.0253 -0.50695,-0.0253 z" /><path
       id="path63"
       style="fill:#ffffff;stroke-width:16.8802;stroke-linecap:round;stroke-linejoin:round;stroke-miterlimit:17;fill-opacity:1"
       d="m 139.26722,191.19608 v 9.88725 h 2.51354 9.88777 7.8972 c 0.17118,0 0.34034,-0.008 0.50694,-0.0253 0.1666,-0.0168 0.33077,-0.042 0.49196,-0.0749 0.16121,-0.0328 0.3194,-0.0729 0.47439,-0.12092 0.155,-0.0481 0.30679,-0.10402 0.45475,-0.1664 0.14796,-0.0624 0.2919,-0.13182 0.43202,-0.20774 0.14012,-0.076 0.27627,-0.15784 0.40773,-0.2465 0.13146,-0.0887 0.25834,-0.18414 0.38033,-0.28473 0.12199,-0.1006 0.23919,-0.20663 0.35089,-0.31833 0.1117,-0.1117 0.21825,-0.22838 0.31884,-0.35037 0.10059,-0.12199 0.19504,-0.24888 0.2837,-0.38033 0.0887,-0.13146 0.17161,-0.26762 0.24753,-0.40773 0.0759,-0.14014 0.14537,-0.28456 0.20774,-0.43253 0.0624,-0.14796 0.11736,-0.29977 0.16537,-0.45476 0.0481,-0.155 0.0886,-0.31318 0.12144,-0.47439 0.0328,-0.16119 0.0581,-0.32536 0.0749,-0.49196 0.0168,-0.16659 0.0253,-0.33523 0.0253,-0.50642 0,-0.17117 -0.008,-0.34088 -0.0253,-0.50747 -0.0168,-0.1666 -0.0421,-0.33024 -0.0749,-0.49144 -0.0328,-0.1612 -0.0735,-0.3194 -0.12144,-0.47439 -0.048,-0.15498 -0.10299,-0.30731 -0.16537,-0.45527 -0.0624,-0.14797 -0.13181,-0.29188 -0.20774,-0.43201 -0.076,-0.14012 -0.15886,-0.27574 -0.24753,-0.40721 -0.0886,-0.13146 -0.18311,-0.25886 -0.2837,-0.38086 -0.10059,-0.12198 -0.20714,-0.23918 -0.31884,-0.35088 -0.1117,-0.1117 -0.2289,-0.21774 -0.35089,-0.31833 -0.12199,-0.10059 -0.24887,-0.19556 -0.38033,-0.28422 -0.13146,-0.0887 -0.26761,-0.17109 -0.40773,-0.24701 -0.14012,-0.076 -0.28406,-0.14537 -0.43202,-0.20774 -0.14796,-0.0624 -0.29975,-0.11736 -0.45475,-0.16537 -0.15499,-0.048 -0.31318,-0.0892 -0.47439,-0.12195 -0.16119,-0.0328 -0.32536,-0.0575 -0.49196,-0.0744 -0.1666,-0.0168 -0.33576,-0.0253 -0.50694,-0.0253 z" /><path
       id="path64"
       style="fill:#ffffff;stroke-width:16.8802;stroke-linecap:round;stroke-linejoin:round;stroke-miterlimit:17;fill-opacity:1"
       d="m 261.74917,191.19608 c -0.17117,0 -0.34034,0.008 -0.50694,0.0253 -0.1666,0.0168 -0.33076,0.0416 -0.49196,0.0744 -0.1612,0.0328 -0.31939,0.074 -0.47439,0.12195 -0.15499,0.0481 -0.30679,0.10299 -0.45476,0.16537 -0.14797,0.0624 -0.29188,0.1318 -0.43201,0.20774 -0.14011,0.076 -0.27626,0.15834 -0.40773,0.24701 -0.13145,0.0887 -0.25835,0.18363 -0.38034,0.28422 -0.122,0.10059 -0.23918,0.20663 -0.35088,0.31833 -0.1117,0.1117 -0.21824,0.2289 -0.31884,0.35088 -0.10059,0.122 -0.19504,0.2494 -0.28371,0.38086 -0.0887,0.13147 -0.1716,0.26709 -0.24753,0.40721 -0.0759,0.14013 -0.14538,0.28404 -0.20774,0.43201 -0.0624,0.14796 -0.11736,0.30029 -0.16536,0.45527 -0.0481,0.15499 -0.0886,0.31319 -0.12144,0.47439 -0.0328,0.1612 -0.0575,0.32484 -0.0744,0.49144 -0.0168,0.16659 -0.0258,0.3363 -0.0258,0.50747 0,0.17119 0.009,0.33983 0.0258,0.50642 0.0168,0.1666 0.0416,0.33077 0.0744,0.49196 0.0328,0.16121 0.0735,0.31939 0.12144,0.47439 0.0481,0.15499 0.10297,0.3068 0.16536,0.45476 0.0624,0.14797 0.13181,0.29239 0.20774,0.43253 0.076,0.14011 0.15886,0.27626 0.24753,0.40773 0.0887,0.13145 0.18312,0.25834 0.28371,0.38033 0.1006,0.12199 0.20714,0.23867 0.31884,0.35037 0.1117,0.1117 0.22888,0.21773 0.35088,0.31833 0.12199,0.10059 0.24889,0.19606 0.38034,0.28473 0.13147,0.0887 0.26762,0.17056 0.40773,0.2465 0.14013,0.076 0.28404,0.14537 0.43201,0.20774 0.14797,0.0624 0.29977,0.1184 0.45476,0.1664 0.155,0.0481 0.31319,0.0881 0.47439,0.12092 0.1612,0.0328 0.32536,0.058 0.49196,0.0749 0.1666,0.0168 0.33577,0.0253 0.50694,0.0253 h 5.38365 v -9.88725 z" /><circle
       style="fill:#ffffff;fill-opacity:1;stroke-width:40;stroke-linecap:round;stroke-linejoin:round;stroke-miterlimit:17"
       id="circle67"
       cx="406.40002"
       cy="135.46666"
       r="67.73333" /><rect
       style="fill:#ffffff;fill-opacity:1;stroke-width:20;stroke-linecap:round;stroke-linejoin:round;stroke-miterlimit:17"
       id="rect67"
       width="95.789398"
       height="23.94735"
       x="493.97198"
       y="90.176735"
       ry="11.973675" /><rect
       style="fill:#ffffff;fill-opacity:1;stroke-width:20;stroke-linecap:round;stroke-linejoin:round;stroke-miterlimit:17"
       id="rect68"
       width="95.789398"
       height="23.94735"
       x="553.84039"
       y="102.15041"
       ry="11.973675" /><rect
       style="fill:#ffffff;fill-opacity:1;stroke-width:20;stroke-linecap:round;stroke-linejoin:round;stroke-miterlimit:17"
       id="rect69"
       width="95.789398"
       height="23.94735"
       x="624.93408"
       y="90.176743"
       ry="11.973675" /><rect
       style="fill:#ffffff;fill-opacity:1;stroke-width:20;stroke-linecap:round;stroke-linejoin:round;stroke-miterlimit:17"
       id="rect70"
       width="95.789398"
       height="23.94735"
       x="662.72601"
       y="78.203064"
       ry="11.973675" /><rect
       style="fill:#ffffff;fill-opacity:1;stroke-width:20;stroke-linecap:round;stroke-linejoin:round;stroke-miterlimit:17"
       id="rect71"
       width="95.789398"
       height="23.94735"
       x="702.38879"
       y="90.176743"
       ry="11.973675" /><rect
       style="fill:#ffffff;fill-opacity:1;stroke-width:20;stroke-linecap:round;stroke-linejoin:round;stroke-miterlimit:17"
       id="rect72"
       width="95.789398"
       height="23.94735"
       x="683.30573"
       y="102.15042"
       ry="11.973675" /><rect
       style="fill:#ffffff;fill-opacity:1;stroke-width:20;stroke-linecap:round;stroke-linejoin:round;stroke-miterlimit:17"
       id="rect73"
       width="95.789398"
       height="23.94735"
       x="525.40289"
       y="78.203064"
       ry="11.973675" /><rect
       style="fill:#ffffff;fill-opacity:1;stroke-width:20;stroke-linecap:round;stroke-linejoin:round;stroke-miterlimit:17"
       id="rect80"
       width="95.789398"
       height="23.94735"
       x="686.29919"
       y="154.88911"
       ry="11.973675" /><path
       id="rect81"
       style="fill:#ffffff;fill-opacity:1;stroke-width:20;stroke-linecap:round;stroke-linejoin:round;stroke-miterlimit:17"
       d="m 493.97218,166.86268 v 23.94738 h 58.37163 c 6.63341,0 11.97343,-5.34002 11.97343,-11.97343 0,-6.63341 -5.34002,-11.97395 -11.97343,-11.97395 z" /><rect
       style="fill:#ffffff;fill-opacity:1;stroke-width:20;stroke-linecap:round;stroke-linejoin:round;stroke-miterlimit:17"
       id="rect82"
       width="95.789398"
       height="23.94735"
       x="539.62164"
       y="154.88911"
       ry="11.973675" /><rect
       style="fill:#ffffff;fill-opacity:1;stroke-width:20;stroke-linecap:round;stroke-linejoin:round;stroke-miterlimit:17"
       id="rect83"
       width="95.789398"
       height="23.94735"
       x="577.41357"
       y="142.91544"
       ry="11.973675" /><rect
       style="fill:#ffffff;fill-opacity:1;stroke-width:20;stroke-linecap:round;stroke-linejoin:round;stroke-miterlimit:17"
       id="rect84"
       width="95.789398"
       height="23.94735"
       x="617.07635"
       y="154.88911"
       ry="11.973675" /><rect
       style="fill:#ffffff;fill-opacity:1;stroke-width:20;stroke-linecap:round;stroke-linejoin:round;stroke-miterlimit:17"
       id="rect85"
       width="95.789398"
       height="23.94735"
       x="597.99329"
       y="166.86279"
       ry="11.973675" /><path
       id="rect86"
       style="fill:#ffffff;fill-opacity:1;stroke-width:20;stroke-linecap:round;stroke-linejoin:round;stroke-miterlimit:17"
       d="m 735.31662,166.86268 c -6.63341,0 -11.97394,5.34054 -11.97394,11.97395 0,6.63341 5.34053,11.97343 11.97394,11.97343 h 65.19344 v -23.94738 z" /><circle
       style="fill:#ffffff;fill-opacity:1;stroke-width:20;stroke-linecap:round;stroke-linejoin:round;stroke-miterlimit:17"
       id="path86"
       cx="691.10486"
       cy="114.12409"
       r="22.489584" /><circle
       style="fill:#ffffff;fill-opacity:1;stroke-width:20;stroke-linecap:round;stroke-linejoin:round;stroke-miterlimit:17"
       id="circle86"
       cx="517.13208"
       cy="166.86279"
       r="22.489584" /><path
       id="path101"
       style="fill:#ffffff;fill-opacity:1;stroke-width:14.144;stroke-linecap:round;stroke-linejoin:round;stroke-miterlimit:17"
       d="m 474.13336,234.78223 a 135.46664,36.150923 0 0 0 -135.46668,36.15112 135.46664,36.150923 0 0 0 135.46668,36.15114 135.46664,36.150923 0 0 0 135.46667,-36.15114 135.46664,36.150923 0 0 0 -135.46667,-36.15112 z m 0,21.85435 a 83.308357,14.296626 0 0 1 83.30846,14.29677 83.308357,14.296626 0 0 1 -83.30846,14.29678 83.308357,14.296626 0 0 1 -83.30848,-14.29678 83.308357,14.296626 0 0 1 83.30848,-14.29677 z" /><path
       id="path102"
       style="fill:#ffffff;fill-opacity:1;stroke-width:14.144;stroke-linecap:round;stroke-linejoin:round;stroke-miterlimit:17"
       d="M 135.46667,234.78223 A 135.46663,36.150922 0 0 0 -3.0573082e-6,270.93335 135.46663,36.150922 0 0 0 135.46667,307.08448 135.46663,36.150922 0 0 0 270.93335,270.93335 135.46663,36.150922 0 0 0 135.46667,234.78223 Z m 0,10.86614 a 111.0355,25.28468 0 0 1 111.0356,25.28498 111.0355,25.28468 0 0 1 -111.0356,25.28498 111.0355,25.28468 0 0 1 -111.0356,-25.28498 111.0355,25.28468 0 0 1 111.0356,-25.28498 z" /><path
       id="path104"
       style="fill:#ffffff;fill-opacity:1;stroke-width:11.4815;stroke-linecap:round;stroke-linejoin:round;stroke-miterlimit:17"
       d="m 135.46667,251.80595 a 96.720133,19.127178 0 0 0 -96.720219,19.1274 96.720133,19.127178 0 0 0 96.720219,19.1274 96.720133,19.127178 0 0 0 96.72021,-19.1274 96.720133,19.127178 0 0 0 -96.72021,-19.1274 z m 0,8.31228 a 72.567736,10.815011 0 0 1 72.56784,10.81512 72.567736,10.815011 0 0 1 -72.56784,10.81512 72.567736,10.815011 0 0 1 -72.567835,-10.81512 72.567736,10.815011 0 0 1 72.567835,-10.81512 z" /><path
       id="path3"
       style="fill:#ffffff;fill-opacity:1;stroke-width:20;stroke-linecap:round;stroke-linejoin:round;stroke-miterlimit:17"
       inkscape:transform-center-x="9.3923279"
       inkscape:transform-center-y="5.5120504"
       d="M 754.83073 315.33002 C 752.91698 315.90238 761.73507 366.96972 759.97947 367.96406 C 758.22387 368.95839 735.14417 347.84496 733.44402 349.00055 C 731.74386 350.15614 727.87668 370.62017 726.47651 372.07972 C 725.07634 373.53927 691.23118 374.46654 690.10346 376.12555 C 688.97574 377.78455 709.32967 410.56368 708.26541 412.39035 C 707.20115 414.21702 657.12259 410.34677 656.34353 412.15806 C 655.56447 413.96934 698.10346 450.0791 697.69922 452.03422 C 697.29499 453.98934 660.73149 451.21999 660.45221 453.23349 C 660.17294 455.24698 678.86415 489.35886 678.86283 491.44447 C 678.86152 493.53009 663.2303 517.81683 663.79112 519.77549 C 664.35194 521.73415 692.54377 515.51518 693.30784 517.36502 C 694.07191 519.21486 676.09241 545.0886 677.12992 546.90079 C 678.16743 548.71298 706.03693 549.6697 707.27765 551.20232 C 708.51838 552.73494 710.92844 592.12675 712.33171 593.62626 C 713.73497 595.12577 744.98286 573.65132 746.65513 574.91805 C 748.3274 576.18477 743.80429 620.31583 745.63209 621.26338 C 747.45988 622.21093 773.85337 590.96118 775.91129 591.39857 C 777.96921 591.83596 796.57919 630.48855 798.55566 630.95878 C 800.53214 631.429 801.25558 603.20943 803.32727 603.18766 C 805.39897 603.1659 845.65412 638.25116 847.66528 638.13783 C 848.07691 638.11463 848.80797 636.4042 849.65802 634.06095 L 799.89 326.95667 C 796.49112 335.54628 791.82435 349.83513 790.38457 350.08493 C 788.33616 350.44032 756.74448 314.75766 754.83073 315.33002 z "
       transform="matrix(0.79771224,0.11941444,-0.12927387,0.80495573,420.18491,-343.96336)" /><path
       id="path2"
       style="fill:#ffffff;stroke-width:20;stroke-linecap:round;stroke-linejoin:round;stroke-miterlimit:17;fill-opacity:1"
       d="M 846.66667 270.93333 A 169.33334 169.33334 0 0 0 711.73899 338.66667 L 982.10801 338.66667 A 169.33334 169.33334 0 0 0 846.66667 270.93333 z " /></g></svg>
