<?xml version="1.0" encoding="UTF-8" standalone="no"?>
<!-- Created with Inkscape (http://www.inkscape.org/) -->

<svg
   width="256"
   height="256"
   viewBox="0 0 67.733334 67.733334"
   version="1.1"
   id="svg1"
   sodipodi:docname="DesertLevelSandFountainArt.svg"
   inkscape:version="1.3 (0e150ed6c4, 2023-07-21)"
   xml:space="preserve"
   inkscape:export-filename="DesertLevelSandFountainArt.png"
   inkscape:export-xdpi="96"
   inkscape:export-ydpi="96"
   xmlns:inkscape="http://www.inkscape.org/namespaces/inkscape"
   xmlns:sodipodi="http://sodipodi.sourceforge.net/DTD/sodipodi-0.dtd"
   xmlns="http://www.w3.org/2000/svg"
   xmlns:svg="http://www.w3.org/2000/svg"><sodipodi:namedview
     id="namedview1"
     pagecolor="#000000"
     bordercolor="#000000"
     borderopacity="0.25"
     inkscape:showpageshadow="false"
     inkscape:pageopacity="0.0"
     inkscape:pagecheckerboard="true"
     inkscape:deskcolor="#d1d1d1"
     inkscape:document-units="mm"
     showgrid="true"
     inkscape:zoom="0.1767767"
     inkscape:cx="1991.2126"
     inkscape:cy="664.68036"
     inkscape:window-width="1858"
     inkscape:window-height="1057"
     inkscape:window-x="54"
     inkscape:window-y="-8"
     inkscape:window-maximized="1"
     inkscape:current-layer="layer1"><inkscape:grid
       id="grid1"
       units="px"
       originx="0"
       originy="0"
       spacingx="67.733334"
       spacingy="67.733334"
       empcolor="#0099e5"
       empopacity="0.30196078"
       color="#0099e5"
       opacity="0.14901961"
       empspacing="5"
       dotted="false"
       gridanglex="30"
       gridanglez="30"
       visible="true" /></sodipodi:namedview><defs
     id="defs1"><inkscape:path-effect
       effect="skeletal"
       id="path-effect68"
       is_visible="true"
       lpeversion="1"
       pattern="M 0,4.9921384 C 0,2.236478 2.236478,0 4.9921384,0 c 2.7556604,0 4.9921384,2.236478 4.9921384,4.9921384 0,2.7556604 -2.236478,4.9921384 -4.9921384,4.9921384 C 2.236478,9.9842768 0,7.7477988 0,4.9921384 Z"
       copytype="single_stretched"
       prop_scale="0.5"
       scale_y_rel="false"
       spacing="0"
       normal_offset="0"
       tang_offset="0"
       prop_units="false"
       vertical_pattern="false"
       hide_knot="false"
       fuse_tolerance="0" /></defs><g
     inkscape:label="Layer 1"
     inkscape:groupmode="layer"
     id="layer1"><rect
       style="fill:#f4d47e;fill-opacity:1;stroke-width:0.776999;stroke-linejoin:round;stroke-miterlimit:17"
       id="rect1"
       width="270.93332"
       height="135.46666"
       x="0"
       y="-4.8127425e-13"
       ry="0" /><path
       id="path1"
       style="fill:#f3c268;fill-opacity:1;stroke-width:0.776999;stroke-linejoin:round;stroke-miterlimit:17"
       d="M 99.92982,29.558919 C 79.54039,30.655836 64.95519,47.95799 42.33334,59.899186 20.890901,71.217814 18.653026,70.385693 3.2270508e-6,68.9684 v 47.98415 C 3.6417042,117.79931 9.3880032,117.49362 20.637503,113.96772 51.49723,102.70936 67.73337,97.503944 96.8375,104.02259 c 24.40194,5.46547 42.86252,-4.096205 60.325,-10.614855 17.46248,-6.518646 32.27917,8.192265 56.09167,8.192265 23.81248,0 20.10836,-11.112231 44.97916,8.57415 4.14149,3.27818 8.42876,5.4982 12.7,7.04092 V 66.847083 C 261.02051,65.516492 247.218,62.145797 233.3625,53.445833 210.60836,39.158351 186.79581,47.625007 164.57083,52.3875 142.34586,57.149995 157.16246,50.799976 122.76667,34.662484 114.16772,30.62811 106.72629,29.19328 99.92982,29.558919 Z" /><path
       style="display:inline;fill:#f4d47e;fill-opacity:1;stroke-width:0.776999;stroke-linejoin:round;stroke-miterlimit:17"
       d="m 338.66668,135.46667 c -0.52917,-27.51666 -17.94517,-56.356244 -38.62917,-67.733327 -18.05102,-9.928824 14.1889,-31.318526 66.67499,-19.598421 43.33958,9.677694 69.38302,23.261632 107.42083,19.598421 25.92916,-3.592025 39.15834,0.973943 78.84584,-13.155273 39.6875,-14.12921 32.80833,-22.752447 62.44166,-14.5979 29.63333,8.154548 62.0579,11.474652 36.51251,27.753173 C 628.23272,82.836296 609.6,101.60001 609.60003,135.46667 Z"
       id="path2"
       sodipodi:nodetypes="csssssscc" /><path
       id="path3"
       style="fill:#f3c268;fill-opacity:1;stroke-width:0.776999;stroke-linejoin:round;stroke-miterlimit:17"
       d="m 366.71251,48.135053 c 48.68328,30.975472 62.44168,34.701241 76.72916,34.701241 14.28749,0 14.24704,1.895744 34.64027,-3.725871 20.39323,-5.621614 29.91809,12.350132 46.8514,-14.969112 0.38216,-0.616548 0.77335,-1.176247 1.15859,-1.774569 -20.72182,4.416118 -32.98207,2.737738 -51.95859,5.366598 -38.03777,3.663207 -64.0813,-9.920603 -107.42083,-19.598287 z" /><path
       id="path4"
       style="fill:#f3c268;fill-opacity:1;stroke-width:0.776999;stroke-linejoin:round;stroke-miterlimit:17"
       d="M 623.35834,73.096261 C 616.68847,93.40701 607.38472,113.91519 609.6,135.46667 c 3.37827,-17.03099 23.92914,-56.739707 42.33334,-67.73333 0.92999,-4.120297 -22.45428,-7.18463 -28.575,5.362921 z"
       sodipodi:nodetypes="sccs" /><path
       style="fill:#f4d47e;fill-opacity:1;stroke-width:0.776999;stroke-linejoin:round;stroke-miterlimit:17"
       d="m 338.66668,270.93335 c -0.52917,-27.51666 -4.1593,-47.05043 -30.62975,-44.15654 -20.47945,2.23893 -29.0001,-51.72032 23.48599,-40.00021 43.33958,9.67769 72.39524,32.75091 110.43305,29.0877 25.92916,-3.59203 49.92326,-16.86975 89.61076,-30.99896 39.6875,-14.12921 34.11244,-2.22721 63.74577,5.92734 29.63333,8.15454 49.76865,-0.16701 49.74167,15.58234 -0.0481,28.10367 -35.45417,30.69167 -35.45414,64.55833 z"
       id="path8"
       sodipodi:nodetypes="csssssscc" /><path
       style="fill:#f4d47e;fill-opacity:1;stroke-width:0.776999;stroke-linejoin:round;stroke-miterlimit:17"
       d="m 610.76161,406.40002 c 0.52917,-27.51666 15.29934,-60.58958 35.98334,-71.96666 18.05102,-9.92882 -14.1889,-31.31853 -66.67499,-19.59842 -43.33958,9.67769 -61.44552,27.49495 -99.48333,23.83174 -25.92916,-3.59203 -17.03429,-12.0583 -59.00209,-8.39276 -18.1613,1.58624 -42.60248,-17.03798 -72.23581,-8.88343 -29.63333,8.15454 -62.0579,12.59718 -36.51251,28.8757 23.70062,15.10295 26.99207,22.26717 26.99204,56.13383 z"
       id="path11"
       sodipodi:nodetypes="csssssscc" /><rect
       style="fill:#f4d47e;fill-opacity:1;stroke-width:0.776999;stroke-linejoin:round;stroke-miterlimit:17"
       id="rect13"
       width="270.93332"
       height="135.46666"
       x="0"
       y="135.46671"
       ry="0" /><path
       id="path14"
       style="fill:#f3c268;fill-opacity:1;stroke-width:0.776999;stroke-linejoin:round;stroke-miterlimit:17"
       d="m 162.01905,252.85745 c -3.66177,0.13532 -6.83835,0.60733 -8.98808,1.61592 -34.39576,16.13747 -36.7916,5.27563 -59.016553,0.51315 -21.358465,-4.57682 -27.062911,2.6972 -47.658073,15.94683 H 237.54157 c -2.59763,-0.65615 -5.50317,-1.75585 -8.94157,-3.57084 -22.62183,-11.94119 -14.75625,-10.91373 -35.14566,-12.01064 -5.09735,-0.27423 -20.44998,-2.90039 -31.43529,-2.49442 z m 108.91428,10.10377 c -10.89553,0.82787 -16.20253,6.02576 -22.99549,7.97213 h 22.99549 z" /><rect
       style="fill:#f4d47e;fill-opacity:1;stroke-width:0.776999;stroke-linejoin:round;stroke-miterlimit:17"
       id="rect14"
       width="270.93332"
       height="135.46666"
       x="0"
       y="270.93335"
       ry="0" /><path
       id="path15"
       style="fill:#f3c268;fill-opacity:1;stroke-width:0.776999;stroke-linejoin:round;stroke-miterlimit:17"
       d="m 203.20001,312.81655 c 20.38943,1.09691 2.77813,13.90894 25.39998,25.85013 21.44244,11.31863 23.68032,10.48651 42.33334,9.06922 v 47.98415 c -3.6417,0.84676 -9.388,0.54107 -20.6375,-2.98483 -17.19083,-6.27162 -35.28801,-1.23296 -54.63563,-3.6933 -15.38382,-1.95628 -32.24627,-12.50677 -45.13755,-9.61942 -24.40194,5.46547 -22.65694,15.73518 -40.11942,9.21653 -17.462473,-6.51864 -28.911567,-8.27153 -52.724067,-8.27153 -23.81248,0 -20.10836,-11.11223 -44.97916,8.57415 -4.1414898,3.27818 -8.4287598,5.4982 -12.6999997729499,7.04092 V 345.61458 C 9.9128232,344.28399 23.715333,330.43632 37.570833,321.73636 c 22.75414,-14.28748 47.689222,-1.70487 69.914197,3.05763 22.22497,4.76249 16.76402,14.12791 51.15981,-2.00958 8.59895,-4.03437 37.7587,-10.3335 44.55517,-9.96786 z"
       sodipodi:nodetypes="sscccsssssccssss" /><path
       id="path16"
       style="display:inline;fill:#f3c268;fill-opacity:1;stroke-width:0.776999;stroke-linejoin:round;stroke-miterlimit:17"
       d="m 46.356344,135.46667 c -0.835524,0.53752 -1.537538,1.01807 -2.424659,1.57509 C 30.076199,145.74172 9.9128101,137.51313 0,138.84372 v 50.36799 c 4.2712357,-1.54272 8.5585143,-3.76274 12.7,-7.04092 24.870775,-19.68636 31.220877,1.52859 55.033333,1.52859 23.812477,0 36.807097,-7.22763 54.269557,-0.709 17.46246,6.51864 27.69103,-1.50569 52.09294,-6.97115 29.1041,-6.51864 45.3403,-1.31322 76.2,9.94513 11.24949,3.5259 16.99581,3.83159 20.6375,2.98483 v -53.48252 h -22.99549 c -2.97166,0.85145 -6.25691,1.04557 -10.39627,0 z" /><circle
       style="fill:#f4d47e;fill-opacity:1;stroke-width:0.776999;stroke-linejoin:round;stroke-miterlimit:17"
       id="path17"
       cx="288.25366"
       cy="256.68564"
       r="6.7351918" /><circle
       style="fill:#f4d47e;fill-opacity:1;stroke-width:1.295;stroke-linejoin:round;stroke-miterlimit:17"
       id="circle17"
       cx="303.34845"
       cy="247.70537"
       r="11.22532" /><circle
       style="fill:#f4d47e;fill-opacity:1;stroke-width:0.388499;stroke-linejoin:round;stroke-miterlimit:17"
       id="circle18"
       cx="283.38934"
       cy="224.62166"
       r="3.3675959" /><circle
       style="fill:#f4d47e;fill-opacity:1;stroke-width:0.776999;stroke-linejoin:round;stroke-miterlimit:17"
       id="circle19"
       cx="654.43945"
       cy="171.57477"
       r="6.7351918" /><path
       id="path19"
       style="fill:#f3c268;fill-opacity:1;stroke-width:0.776999;stroke-linejoin:round;stroke-miterlimit:17"
       d="m 566.48582,179.29242 c -3.48667,2.03663 -6.11202,3.9799 -7.15667,5.65133 -5.29166,8.46666 9.26043,21.16668 27.78125,18.25625 10.46512,-1.64453 35.19519,-2.78802 55.12377,-4.08709 -6.47362,-5.58952 -23.77365,-1.95051 -46.92169,-8.32042 -15.2947,-4.20882 -21.2262,-9.38905 -28.82666,-11.50007 z" /><path
       id="path20"
       style="fill:#f3c268;fill-opacity:1;stroke-width:0.776999;stroke-linejoin:round;stroke-miterlimit:17"
       d="m 322.29917,211.63618 c -9.47531,-0.15476 -18.358,4.71725 -20.42976,14.00948 1.87757,0.92424 3.94593,1.37408 6.16759,1.1312 26.47042,-2.89389 30.10048,16.63984 30.62965,44.15647 14.81665,-12.00264 8.46665,-45.51792 0,-53.44583 -4.76989,-3.85171 -10.67538,-5.75836 -16.36748,-5.85132 z" /><path
       id="path22"
       style="fill:#f3c268;fill-opacity:1;stroke-width:0.776999;stroke-linejoin:round;stroke-miterlimit:17"
       d="m 500.68575,252.85745 c -3.66177,0.13532 -6.83835,0.60733 -8.98808,1.61592 -34.39576,16.13747 -36.7916,5.27563 -59.01656,0.51315 -21.35846,-4.57682 -27.06291,2.6972 -47.65807,15.94683 h 191.18523 c -2.59763,-0.65615 -5.50317,-1.75585 -8.94157,-3.57084 -22.62183,-11.94119 -14.75625,-10.91373 -35.14566,-12.01064 -5.09735,-0.27423 -20.44998,-2.90039 -31.43529,-2.49442 z m 108.91428,10.10377 c -10.89553,0.82787 -16.20253,6.02576 -22.99549,7.97213 h 22.99549 z" /><path
       id="path23"
       style="fill:#f3c268;fill-opacity:1;stroke-width:0.776999;stroke-linejoin:round;stroke-miterlimit:17"
       d="m 592.25221,312.69823 c -3.93814,0.53721 -7.9674,1.19565 -12.18221,2.13682 -43.33953,9.67768 -61.44556,27.49482 -99.48333,23.83162 16.72487,5.57643 12.5716,11.15285 39.51232,5.5764 26.94075,-5.57643 27.58677,1.71901 43.77872,-13.84463 10.21622,-9.81977 21.15012,-13.53377 28.3745,-17.70021 z" /><path
       id="path24"
       style="fill:#f3c268;fill-opacity:1;stroke-width:0.776999;stroke-linejoin:round;stroke-miterlimit:17"
       d="m 342.61008,334.90772 c -9.51048,-0.0196 -25.24075,4.29866 -37.51141,8.81807 1.43257,1.95285 3.92762,4.11235 7.73752,6.54017 23.70059,15.10293 26.99218,22.26741 26.99215,56.13404 0,0 0.95553,-25.45437 17.35914,-34.925 15.27925,-8.82147 36.00889,-16.30795 27.51564,-22.44204 -9.70417,-7.00865 -26.4575,-10.3663 -37.14864,-13.54129 -1.33639,-0.39688 -3.01168,-0.57996 -4.9444,-0.58395 z" /><path
       id="path25"
       style="fill:#f3c268;fill-opacity:1;stroke-width:0.776999;stroke-linejoin:round;stroke-miterlimit:17"
       d="m 619.14139,338.66668 c -20.9539,17.21216 -17.16057,25.4783 -17.16057,29.9488 0,4.4705 7.61916,37.78452 7.61916,37.78452 l 1.2237,-1.2237 c 0.93102,-27.26802 15.54053,-59.53266 35.92132,-70.74297 2.85543,-1.5706 4.44505,-3.42881 4.90255,-5.39657 -6.48454,-2.04515 -29.38439,7.06561 -32.50616,9.62992 z"
       sodipodi:nodetypes="ssccscs" /></g></svg>
