<?xml version="1.0" encoding="UTF-8" standalone="no"?>
<!-- Created with Inkscape (http://www.inkscape.org/) -->

<svg
   width="256"
   height="256"
   viewBox="0 0 67.733334 67.733334"
   version="1.1"
   id="svg1"
   sodipodi:docname="DesertLevelBackgroundArt.svg"
   inkscape:version="1.3 (0e150ed6c4, 2023-07-21)"
   xml:space="preserve"
   inkscape:export-filename="DesertLevelBackgroundArt.png"
   inkscape:export-xdpi="96"
   inkscape:export-ydpi="96"
   xmlns:inkscape="http://www.inkscape.org/namespaces/inkscape"
   xmlns:sodipodi="http://sodipodi.sourceforge.net/DTD/sodipodi-0.dtd"
   xmlns="http://www.w3.org/2000/svg"
   xmlns:svg="http://www.w3.org/2000/svg"><sodipodi:namedview
     id="namedview1"
     pagecolor="#000000"
     bordercolor="#000000"
     borderopacity="0.25"
     inkscape:showpageshadow="false"
     inkscape:pageopacity="0.0"
     inkscape:pagecheckerboard="true"
     inkscape:deskcolor="#d1d1d1"
     inkscape:document-units="mm"
     showgrid="true"
     inkscape:zoom="0.35355339"
     inkscape:cx="1294.0054"
     inkscape:cy="677.4083"
     inkscape:window-width="1858"
     inkscape:window-height="1057"
     inkscape:window-x="54"
     inkscape:window-y="-8"
     inkscape:window-maximized="1"
     inkscape:current-layer="layer1"><inkscape:grid
       id="grid1"
       units="px"
       originx="0"
       originy="0"
       spacingx="67.733334"
       spacingy="67.733334"
       empcolor="#0099e5"
       empopacity="0.30196078"
       color="#0099e5"
       opacity="0.14901961"
       empspacing="5"
       dotted="false"
       gridanglex="30"
       gridanglez="30"
       visible="true" /></sodipodi:namedview><defs
     id="defs1"><inkscape:path-effect
       effect="skeletal"
       id="path-effect68"
       is_visible="true"
       lpeversion="1"
       pattern="M 0,4.9921384 C 0,2.236478 2.236478,0 4.9921384,0 c 2.7556604,0 4.9921384,2.236478 4.9921384,4.9921384 0,2.7556604 -2.236478,4.9921384 -4.9921384,4.9921384 C 2.236478,9.9842768 0,7.7477988 0,4.9921384 Z"
       copytype="single_stretched"
       prop_scale="0.5"
       scale_y_rel="false"
       spacing="0"
       normal_offset="0"
       tang_offset="0"
       prop_units="false"
       vertical_pattern="false"
       hide_knot="false"
       fuse_tolerance="0" /></defs><g
     inkscape:label="Layer 1"
     inkscape:groupmode="layer"
     id="layer1"><g
       id="g208"
       transform="translate(-285.75,-67.733334)"><rect
         style="fill:#e4a146;fill-opacity:1;stroke-width:4.23333;stroke-linecap:round;stroke-linejoin:round;stroke-miterlimit:17;stroke-opacity:0.448077"
         id="rect29"
         width="67.73333"
         height="67.73333"
         x="0"
         y="135.46667" /><rect
         style="fill:#f3c268;fill-opacity:1;stroke-width:4.23333;stroke-linecap:round;stroke-linejoin:round;stroke-miterlimit:17;stroke-opacity:0.448077"
         id="rect35"
         width="47.394058"
         height="28.258429"
         x="9.0874958"
         y="135.46667"
         ry="2.8925946" /><path
         id="path36"
         style="fill:#f1b250;fill-opacity:1;stroke-width:4.23333;stroke-linecap:round;stroke-linejoin:round;stroke-miterlimit:17;stroke-opacity:0.448077"
         d="m 9.0874938,147.41581 v 13.41676 c 0,1.60249 1.2903502,2.89233 2.8928502,2.89233 h 41.60883 c 1.602496,0 2.89233,-1.28984 2.89233,-2.89233 v -10.75955 c -0.9318,-0.32607 -1.910995,-0.69378 -2.967261,-1.15497 -5.585438,-2.43871 -13.421611,0.0736 -19.038114,1.80919 -3.603971,1.11372 -7.074744,-1.31348 -8.859944,-1.33232 -1.775516,1.78985 -4.855874,2.51019 -7.974688,1.01761 -3.368633,-1.61213 -6.351803,-2.28757 -8.5540032,-2.99672 z"
         sodipodi:nodetypes="csssscsscsc" /><circle
         style="fill:#f1b250;fill-opacity:1;stroke-width:4.23333;stroke-linecap:round;stroke-linejoin:round;stroke-miterlimit:17;stroke-opacity:0.448077"
         id="circle36"
         cx="23.049791"
         cy="146.81358"
         r="1.0816879" /><ellipse
         style="fill:#f1b250;fill-opacity:1;stroke-width:4.23333;stroke-linecap:round;stroke-linejoin:round;stroke-miterlimit:17;stroke-opacity:0.448077"
         id="ellipse36"
         cx="26.668528"
         cy="145.08287"
         rx="0.64901274"
         ry="0.64901364" /><circle
         style="fill:#f1b250;fill-opacity:1;stroke-width:4.23333;stroke-linecap:round;stroke-linejoin:round;stroke-miterlimit:17;stroke-opacity:0.448077"
         id="circle37"
         cx="50.87867"
         cy="140.1071"
         r="0.86535037" /><path
         id="path37"
         style="fill:#e5a143;fill-opacity:1;stroke-width:4.23333;stroke-linecap:round;stroke-linejoin:round;stroke-miterlimit:17;stroke-opacity:0.448077"
         d="m 9.1412438,161.38757 c 0.25759,1.33501 1.4266602,2.33733 2.8391002,2.33733 h 4.402315 c -1.53492,-1.20897 -4.754715,-1.93143 -7.2414152,-2.33733 z m 39.6249692,0.35295 c -2.470076,-0.064 -5.793445,1.98438 -5.793445,1.98438 h 10.616406 c 0.492287,0 0.947393,-0.13315 1.352372,-0.3483 -1.541927,-0.095 -3.447894,-0.38359 -4.652946,-1.20303 -0.427758,-0.29088 -0.95237,-0.41829 -1.522387,-0.43305 z m -5.793445,1.98438 c 0,0 -10.18816,-1.2e-4 -13.964006,-1.1188 -2.068093,-0.61272 -4.854438,0.41146 -7.39283,1.1188 z" /><path
         id="path38"
         style="fill:#f4d47e;fill-opacity:1;stroke-width:4.23333;stroke-linecap:round;stroke-linejoin:round;stroke-miterlimit:17;stroke-opacity:0.448077"
         d="m 11.980344,135.46667 c -0.62149,0 -1.19298,0.1976 -1.66346,0.52865 3.899848,1.64721 4.22653,1.36702 4.833809,3.24632 0.454539,1.40663 1.269507,-1.88287 3.911906,-3.77497 z m 17.027385,0 c 3.044968,0.94674 4.110343,1.89136 4.110343,1.89136 0,0 4.227861,2.2251 10.235551,0.16691 2.405679,-0.82416 4.792051,-1.51599 6.811987,-2.05827 z" /><path
         id="rect43"
         style="display:inline;fill:#f3c268;fill-opacity:1;stroke-width:4.23333;stroke-linecap:round;stroke-linejoin:round;stroke-miterlimit:17;stroke-opacity:0.448077"
         d="m 36.735742,174.94178 c -1.602496,0 -2.89233,1.28983 -2.89233,2.89233 v 22.47304 c 0,1.6025 1.289834,2.89285 2.89233,2.89285 h 30.997591 v -28.25822 z" /><circle
         style="display:inline;fill:#f1b250;fill-opacity:1;stroke-width:4.23333;stroke-linecap:round;stroke-linejoin:round;stroke-miterlimit:17;stroke-opacity:0.448077"
         id="circle44"
         cx="48.616959"
         cy="187.98911"
         r="0.86535037" /><path
         id="path44"
         style="display:inline;fill:#f1b250;fill-opacity:1;stroke-width:4.23333;stroke-linecap:round;stroke-linejoin:round;stroke-miterlimit:17;stroke-opacity:0.448077"
         d="m 33.843412,184.50502 v 15.80265 c 0,1.60249 1.289836,2.89233 2.89233,2.89233 h 30.997591 v -13.77694 c -4.653327,-2.57682 -2.124527,-1.68455 -3.446818,-4.21628 -1.335042,-2.55613 -5.506951,6.0052 -12.213208,7.0621 -6.706258,1.0569 -4.919844,1.89127 -8.591207,0.61185 -3.671363,-1.27942 -2.948222,-2.22485 -2.503206,-4.78368 0.364031,-2.09318 -4.158313,-3.12017 -7.135482,-3.59203 z" /><path
         id="path45"
         style="display:inline;fill:#f4d47e;fill-opacity:1;stroke-width:4.23333;stroke-linecap:round;stroke-linejoin:round;stroke-miterlimit:17;stroke-opacity:0.448077"
         d="m 36.735742,174.94178 c -0.927724,0 -1.74101,0.44063 -2.269629,1.11569 6.274109,0.01 7.75713,-0.51164 10.290845,2.28358 2.994934,3.30407 2.517137,3.77582 5.585189,2.20245 3.068055,-1.57336 0.703458,-3.6189 7.628475,-3.6189 6.010343,0 5.80934,0.17941 9.762711,0.7922 v -2.77502 z" /><path
         id="path46"
         style="display:inline;fill:#e5a143;fill-opacity:1;stroke-width:4.23333;stroke-linecap:round;stroke-linejoin:round;stroke-miterlimit:17;stroke-opacity:0.448077"
         d="m 33.843412,199.47413 v 0.83354 c 0,1.60249 1.289836,2.89233 2.89233,2.89233 h 15.64659 c 0,0 -5.339734,-1.1409 -10.346138,-1.41903 -4.20415,-0.23356 -6.134283,-1.06117 -8.192782,-2.30684 z M 52.382332,203.2 h 9.456787 c -4.895149,0 -4.783897,-1.97505 -5.785176,-1.80816 -1.001282,0.16688 -3.671611,1.80816 -3.671611,1.80816 z m 9.456787,0 h 5.894214 v -0.66042 C 65.952163,202.89842 63.891737,203.2 61.839119,203.2 Z" /><path
         id="rect61"
         style="display:inline;fill:#f3c268;fill-opacity:1;stroke-width:4.23333;stroke-linecap:round;stroke-linejoin:round;stroke-miterlimit:17;stroke-opacity:0.448077"
         d="M 0,174.94178 V 203.2 h 10.611239 c 1.602496,0 2.892847,-1.29035 2.892847,-2.89285 v -22.47304 c 0,-1.6025 -1.290351,-2.89233 -2.892847,-2.89233 z" /><circle
         style="display:inline;fill:#f1b250;fill-opacity:1;stroke-width:4.23333;stroke-linecap:round;stroke-linejoin:round;stroke-miterlimit:17;stroke-opacity:0.448077"
         id="circle61"
         cx="6.7174573"
         cy="189.07079"
         r="1.0816879" /><ellipse
         style="display:inline;fill:#f1b250;fill-opacity:1;stroke-width:4.23333;stroke-linecap:round;stroke-linejoin:round;stroke-miterlimit:17;stroke-opacity:0.448077"
         id="ellipse61"
         cx="10.336194"
         cy="187.34009"
         rx="0.64901274"
         ry="0.64901364" /><path
         id="path62"
         style="display:inline;fill:#f1b250;fill-opacity:1;stroke-width:4.23333;stroke-linecap:round;stroke-linejoin:round;stroke-miterlimit:17;stroke-opacity:0.448077"
         d="M 0,189.42306 V 203.2 h 10.611239 c 1.602494,0 2.892847,-1.28984 2.892847,-2.89233 v -7.52305 c -1.432305,0.4084 -2.857079,0.9422 -3.767212,1.59835 C 7.344927,196.1074 4.953213,192.15774 0.113688,189.48766 0.06747,189.46216 0.044869,189.44791 0,189.42306 Z" /><path
         id="path64"
         style="display:inline;fill:#e5a143;fill-opacity:1;stroke-width:4.23333;stroke-linecap:round;stroke-linejoin:round;stroke-miterlimit:17;stroke-opacity:0.448077"
         d="m 9.936345,201.12467 c -1.608776,-0.008 -4.499211,0.0862 -5.09478,0.21136 C 4.380451,201.43294 2.466624,202.04263 0,202.53958 V 203.2 h 10.611239 c 1.274229,0 2.348616,-0.81663 2.736267,-1.95647 -1.009161,-0.0324 -2.114853,-0.0166 -2.36213,-0.0744 -0.119015,-0.0278 -0.512773,-0.0418 -1.049031,-0.0444 z" /><path
         id="path63"
         style="display:inline;fill:#f4d47e;fill-opacity:1;stroke-width:4.23333;stroke-linecap:round;stroke-linejoin:round;stroke-miterlimit:17;stroke-opacity:0.448077"
         d="m 0,174.94178 v 2.77502 c 0.601635,0.0933 1.287483,0.19525 2.118734,0.30954 6.293444,0.86535 3.887762,-0.079 8.866642,-0.78703 0.858954,-0.12215 1.61675,-0.31293 2.285132,-0.54519 -0.441034,-1.03188 -1.462454,-1.75234 -2.659269,-1.75234 z" /><rect
         style="fill:#f3c268;fill-opacity:1;stroke-width:3.98564;stroke-linecap:round;stroke-linejoin:round;stroke-miterlimit:17;stroke-opacity:0.448077"
         id="rect75"
         width="18.179375"
         height="28.258446"
         x="14.668898"
         y="174.94122"
         ry="2.8925946" /><path
         id="path76"
         style="fill:#f1b250;fill-opacity:1;stroke-width:3.98564;stroke-linecap:round;stroke-linejoin:round;stroke-miterlimit:17;stroke-opacity:0.448077"
         d="m 32.848055,189.96307 v 10.34408 c 0,1.60249 -1.143318,2.89233 -2.56377,2.89233 H 17.232736 c -1.420461,0 -2.56377,-1.28984 -2.56377,-2.89233 v -4.96663 c 1.695813,0.4807 3.653035,1.02426 4.7643,1.28365 2.022205,0.47201 5.717832,-0.5507 7.914383,-3.38274 1.105318,-1.42511 3.410897,-2.53079 5.500406,-3.27836 z" /><path
         id="path77"
         style="fill:#e5a143;fill-opacity:1;stroke-width:3.98564;stroke-linecap:round;stroke-linejoin:round;stroke-miterlimit:17;stroke-opacity:0.448077"
         d="m 14.668966,200.13661 c 0.714148,0.26172 1.611241,0.62527 2.776764,1.08934 3.556319,1.41603 2.231608,-4e-5 5.578737,-0.31471 2.196028,-0.20645 4.396763,1.22063 6.120613,2.28824 H 17.232736 c -1.420461,0 -2.56377,-1.28984 -2.56377,-2.89233 z" /><path
         id="path78"
         style="fill:#f4d47e;fill-opacity:1;stroke-width:3.98564;stroke-linecap:round;stroke-linejoin:round;stroke-miterlimit:17;stroke-opacity:0.448077"
         d="m 17.232736,174.94125 c -1.420452,0 -2.56377,1.28984 -2.56377,2.89233 v 2.43344 c 1.052142,-0.16507 1.234555,-3.44921 4.767962,-2.48408 2.580701,0.7049 4.471381,-2.13557 6.179257,-2.84169 z"
         sodipodi:nodetypes="sscscs" /><circle
         style="fill:#f1b250;fill-opacity:1;stroke-width:4.23333;stroke-linecap:round;stroke-linejoin:round;stroke-miterlimit:17;stroke-opacity:0.448077"
         id="circle78"
         cx="19.235355"
         cy="183.24667"
         r="1.2390243" /><circle
         style="fill:#f1b250;fill-opacity:1;stroke-width:4.23333;stroke-linecap:round;stroke-linejoin:round;stroke-miterlimit:17;stroke-opacity:0.448077"
         id="circle79"
         cx="23.051502"
         cy="186.55"
         r="1.6724509" /><path
         id="rect79"
         style="fill:#f3c268;fill-opacity:1;stroke-width:3.98564;stroke-linecap:round;stroke-linejoin:round;stroke-miterlimit:17;stroke-opacity:0.448077"
         d="m 60.552893,135.46667 c -1.602496,0 -2.892847,1.29035 -2.892847,2.89284 v 22.47305 c 0,1.6025 1.290351,2.89233 2.892847,2.89233 h 7.18044 v -28.25822 z" /><path
         id="path79"
         style="fill:#f1b250;fill-opacity:1;stroke-width:3.98564;stroke-linecap:round;stroke-linejoin:round;stroke-miterlimit:17;stroke-opacity:0.448077"
         d="m 57.660046,150.48849 v 10.34407 c 0,1.60247 1.143218,2.89233 2.563668,2.89233 h 7.509619 v -6.83834 c -1.62186,-0.5032 -3.335308,-1.52413 -4.572847,-3.11971 -1.105317,-1.42511 -3.410933,-2.5308 -5.50044,-3.27835 z" /><path
         id="path80"
         style="fill:#e5a143;fill-opacity:1;stroke-width:3.98564;stroke-linecap:round;stroke-linejoin:round;stroke-miterlimit:17;stroke-opacity:0.448077"
         d="m 57.660046,160.66203 v 0.17053 c 0,1.60249 1.143209,2.89233 2.563668,2.89233 h 7.509619 v -2.14819 c -0.567236,-0.13427 -1.142477,-0.19412 -1.717724,-0.14004 -3.347126,0.31466 -2.022156,1.73074 -5.578471,0.31471 -1.165522,-0.46407 -2.062944,-0.82762 -2.777092,-1.08934 z" /><path
         id="circle81"
         style="fill:#f1b250;fill-opacity:1;stroke-width:4.23333;stroke-linecap:round;stroke-linejoin:round;stroke-miterlimit:17;stroke-opacity:0.448077"
         d="m 67.733333,145.22731 a 1.2390243,1.2390243 0 0 0 -1.239201,1.2392 1.2390243,1.2390243 0 0 0 1.239201,1.2392 z" /><path
         id="path82"
         style="fill:#f4d47e;fill-opacity:1;stroke-width:4.23333;stroke-linecap:round;stroke-linejoin:round;stroke-miterlimit:17;stroke-opacity:0.448077"
         d="m 60.552893,135.46667 c -1.144661,0 -2.127191,0.6599 -2.596741,1.62005 2.249995,-0.33525 5.674823,-0.26303 8.086845,0.38499 0.503413,0.13525 1.079385,0.29692 1.690336,0.45837 v -2.46341 z" /><path
         id="rect82"
         style="fill:#f3c268;fill-opacity:1;stroke-width:3.98564;stroke-linecap:round;stroke-linejoin:round;stroke-miterlimit:17;stroke-opacity:0.448077"
         d="m 0,135.46667 v 28.25822 h 5.2136353 c 1.6024957,0 2.8923299,-1.28983 2.8923299,-2.89233 v -22.47305 c 0,-1.60249 -1.2898342,-2.89284 -2.8923299,-2.89284 z" /><path
         id="path83"
         style="fill:#f1b250;fill-opacity:1;stroke-width:3.98564;stroke-linecap:round;stroke-linejoin:round;stroke-miterlimit:17;stroke-opacity:0.448077"
         d="M 8.1059652,155.86594 C 6.4101539,156.34665 4.452662,156.89019 3.3413981,157.14958 2.4585073,157.35566 1.2568332,157.27649 0,156.88655 v 6.83834 h 5.5422974 c 1.4204595,0 2.5636678,-1.28985 2.5636678,-2.89233 z" /><path
         id="path84"
         style="fill:#e5a143;fill-opacity:1;stroke-width:3.98564;stroke-linecap:round;stroke-linejoin:round;stroke-miterlimit:17;stroke-opacity:0.448077"
         d="m 0,161.5767 v 2.14819 H 4.402832 C 3.1305443,162.93694 1.5982094,161.95502 0,161.5767 Z" /><path
         id="circle84"
         style="fill:#f1b250;fill-opacity:1;stroke-width:4.23333;stroke-linecap:round;stroke-linejoin:round;stroke-miterlimit:17;stroke-opacity:0.448077"
         d="m 0,145.22731 v 2.4784 A 1.2390243,1.2390243 0 0 0 1.2392008,146.46651 1.2390243,1.2390243 0 0 0 0,145.22731 Z" /><circle
         style="fill:#f1b250;fill-opacity:1;stroke-width:3.31811;stroke-linecap:round;stroke-linejoin:round;stroke-miterlimit:17;stroke-opacity:0.448077"
         id="circle85"
         cx="4.4029465"
         cy="142.847"
         r="1.3108765" /><path
         id="path85"
         style="fill:#f4d47e;fill-opacity:1;stroke-width:4.23333;stroke-linecap:round;stroke-linejoin:round;stroke-miterlimit:17;stroke-opacity:0.448077"
         d="m 0,135.46667 v 2.46341 c 2.9505073,0.77971 6.7806705,1.5584 7.9075277,-0.6227 -0.4194386,-1.07871 -1.4633637,-1.84071 -2.6938924,-1.84071 z" /><circle
         style="fill:#f1b250;fill-opacity:1;stroke-width:4.23333;stroke-linecap:round;stroke-linejoin:round;stroke-miterlimit:17;stroke-opacity:0.448077"
         id="circle125"
         cx="31.375383"
         cy="147.72247"
         r="1.6724509" /><rect
         style="fill:#f3c268;fill-opacity:1;stroke-width:4.03244;stroke-linecap:round;stroke-linejoin:round;stroke-miterlimit:17;stroke-opacity:0.448077"
         id="rect160"
         width="20.699968"
         height="11.216456"
         x="27.725431"
         y="163.72511"
         ry="2.8925946" /><rect
         style="fill:#f3c268;fill-opacity:1;stroke-width:4.23333;stroke-linecap:round;stroke-linejoin:round;stroke-miterlimit:17;stroke-opacity:0.448077"
         id="rect161"
         width="18.251022"
         height="11.216461"
         x="49.482311"
         y="163.72511"
         ry="2.8925946" /><rect
         style="fill:#f3c268;fill-opacity:1;stroke-width:4.1789;stroke-linecap:round;stroke-linejoin:round;stroke-miterlimit:17;stroke-opacity:0.448077"
         id="rect162"
         width="25.987104"
         height="11.216461"
         x="0.68142557"
         y="163.72511"
         ry="2.8925946" /><path
         id="path162"
         style="fill:#f1b250;fill-opacity:1;stroke-width:4.1789;stroke-linecap:round;stroke-linejoin:round;stroke-miterlimit:17;stroke-opacity:0.448077"
         d="m 4.8013685,169.29128 c -1.0255582,0.01 -2.2796051,0.27173 -4.1201335,0.63149 v 2.12596 c 0,1.6025 1.2573795,2.89285 2.8189331,2.89285 H 23.850041 c 1.561544,0 2.818427,-1.29035 2.818427,-2.89285 v -0.70434 c -0.557122,-0.29466 -1.222115,-0.66778 -1.990077,-0.84285 -2.665614,-0.60767 -5.48785,-0.12586 -5.906298,0.71235 -3.905472,1.15871 -5.79787,-0.15448 -7.062734,0.003 -1.264853,0.15734 -1.595844,0.58324 -3.9722411,-0.99013 -1.0396774,-0.68833 -1.8736104,-0.9454 -2.9357494,-0.93534 z"
         sodipodi:nodetypes="scsssscscsss" /><path
         id="path163"
         style="fill:#e5a143;fill-opacity:1;stroke-width:4.1789;stroke-linecap:round;stroke-linejoin:round;stroke-miterlimit:17;stroke-opacity:0.448077"
         d="m 4.5475734,173.07658 c -0.9397677,0.008 -2.2141611,0.25672 -3.3869488,0.59014 0.5054172,0.77006 1.3629221,1.27486 2.3395435,1.27486 H 11.301826 C 10.151957,173.91389 6.6639779,173.924 5.7057541,173.29465 5.4662054,173.13732 5.0566253,173.07218 4.5475734,173.07658 Z m 21.6253876,0.6134 c -1.327969,-0.0401 -4.867409,1.2516 -4.867409,1.2516 h 2.544489 c 0.966497,0 1.815544,-0.49499 2.32292,-1.2516 z" /><path
         id="path164"
         style="fill:#f4d47e;fill-opacity:1;stroke-width:4.1789;stroke-linecap:round;stroke-linejoin:round;stroke-miterlimit:17;stroke-opacity:0.448077"
         d="m 3.5001681,163.72521 c -0.2907852,0 -0.5708806,0.045 -0.8344007,0.12816 2.84956,0.395 3.8443451,1.62136 7.8313686,2.24327 4.791119,0.74735 7.627027,-1.79266 11.191618,-2.37143 z" /><circle
         style="fill:#f1b250;fill-opacity:1;stroke-width:2.68449;stroke-linecap:round;stroke-linejoin:round;stroke-miterlimit:17;stroke-opacity:0.448077"
         id="circle164"
         cx="20.889414"
         cy="167.61855"
         r="1.0605558" /><path
         id="path165"
         style="fill:#f1b250;fill-opacity:1;stroke-width:4.03244;stroke-linecap:round;stroke-linejoin:round;stroke-miterlimit:17;stroke-opacity:0.448077"
         d="m 44.553552,169.69129 c 2.289443,0.0604 3.871619,-0.35815 3.871619,-0.35815 v 2.71559 c 0,1.6025 -1.170793,2.89285 -2.624803,2.89285 H 30.349716 c -1.454019,0 -2.62434,-1.29035 -2.62434,-2.89285 v -2.71559 c 0,0 5.306767,1.46476 8.554517,1.46476 3.247752,0 1.206074,-0.90572 3.561581,-1.78441 0.588877,-0.21967 3.948931,0.65766 4.712078,0.6778 z"
         sodipodi:nodetypes="scsssscsss" /><path
         id="path166"
         style="fill:#e5a143;fill-opacity:1;stroke-width:4.03244;stroke-linecap:round;stroke-linejoin:round;stroke-miterlimit:17;stroke-opacity:0.448077"
         d="m 40.737401,172.98882 c -0.836148,-0.93443 0.502108,0.43728 -3.762834,1.95276 h 8.826263 c 0.923353,0 1.731041,-0.52141 2.198595,-1.31155 -0.91923,-0.55944 -2.460934,-2.04079 -3.944124,-0.4609 -0.492109,0.52419 -3.043492,0.12635 -3.3179,-0.18031 z m -3.762834,1.95276 c 0,0 -5.324645,-0.9325 -7.59591,-1.47846 -0.631203,-0.15173 -1.038864,-0.10473 -1.285208,0.061 0.456376,0.8488 1.293012,1.41748 2.25673,1.41748 z"
         sodipodi:nodetypes="scscsscscsc" /><path
         id="path167"
         style="fill:#f4d47e;fill-opacity:1;stroke-width:4.03244;stroke-linecap:round;stroke-linejoin:round;stroke-miterlimit:17;stroke-opacity:0.448077"
         d="m 30.350179,163.72521 c -1.417916,0 -2.563031,1.22752 -2.619178,2.77451 0.782376,-0.68119 2.014732,-1.52084 3.352046,-1.52084 2.248442,0 6.06152,-1.25367 6.99246,-1.25367 z m 7.725328,0 c 0.930937,0 3.500285,0.91571 5.60597,0.91571 1.16408,0 2.477003,-0.2783 3.43082,-0.52865 -0.385754,-0.24505 -0.832478,-0.38706 -1.311467,-0.38706 z" /><circle
         style="fill:#f1b250;fill-opacity:1;stroke-width:2.23213;stroke-linecap:round;stroke-linejoin:round;stroke-miterlimit:17;stroke-opacity:0.448077"
         id="circle167"
         cx="35.051807"
         cy="168.72255"
         r="0.57034457" /><ellipse
         style="fill:#f1b250;fill-opacity:1;stroke-width:4.23333;stroke-linecap:round;stroke-linejoin:round;stroke-miterlimit:17;stroke-opacity:0.448077"
         id="ellipse167"
         cx="36.998844"
         cy="167.14655"
         rx="0.64901274"
         ry="0.64901364" /><path
         id="path168"
         style="fill:#f1b250;fill-opacity:1;stroke-width:4.23333;stroke-linecap:round;stroke-linejoin:round;stroke-miterlimit:17;stroke-opacity:0.448077"
         d="m 49.482057,170.44815 v 1.60058 c 0,1.6025 1.290351,2.89285 2.892847,2.89285 H 64.84081 c 1.602495,0 2.89233,-1.29035 2.89233,-2.89285 v -1.21508 c -1.378089,0.68746 -1.202882,0.78491 -4.22597,0.6779 -4.444751,-0.15733 -0.904678,-0.83238 -5.546102,-1.55351 -1.465353,-0.22767 -0.727656,1.51414 -3.795713,1.47484 -3.068058,-0.0393 -2.791986,-0.65097 -4.683298,-0.98473 z"
         sodipodi:nodetypes="csssscsssc" /><path
         id="path169"
         style="fill:#e5a143;fill-opacity:1;stroke-width:4.23333;stroke-linecap:round;stroke-linejoin:round;stroke-miterlimit:17;stroke-opacity:0.448077"
         d="m 51.256626,173.14634 c -0.60607,0.0179 -6.85e-4,0.59737 -0.636137,1.202 0.486297,0.37098 1.092827,0.59324 1.754415,0.59324 h 5.401221 c -0.870894,-0.28921 -1.987292,-0.64417 -3.530534,-1.08934 -1.80787,-0.5215 -2.621625,-0.71673 -2.988965,-0.7059 z m 15.722038,0.64079 c -0.647578,0.0139 -1.539949,0.15328 -2.887163,0.28784 -1.608326,0.16063 -2.401747,0.50997 -1.314189,0.86661 h 2.063498 c 0.947423,0 1.782948,-0.45307 2.309936,-1.1529 -0.05642,-9.9e-4 -0.111559,-0.003 -0.172082,-0.002 z"
         sodipodi:nodetypes="scscsssscscs" /><path
         id="path170"
         style="fill:#f4d47e;fill-opacity:1;stroke-width:4.23333;stroke-linecap:round;stroke-linejoin:round;stroke-miterlimit:17;stroke-opacity:0.448077"
         d="m 52.374904,163.72521 c -0.747209,0 -1.42458,0.2828 -1.936833,0.74466 1.427293,1.31076 0.181851,1.53107 2.745052,1.42989 2.989389,-0.118 3.697388,-1.80918 6.450769,-1.1405 2.753382,0.66868 1.730807,1.84841 3.658175,0.86506 1.926432,-0.98288 1.465168,0.70957 3.482992,-1.156 -0.512031,-0.46083 -1.18797,-0.74311 -1.934249,-0.74311 z" /><circle
         style="fill:#f1b250;fill-opacity:1;stroke-width:2.68449;stroke-linecap:round;stroke-linejoin:round;stroke-miterlimit:17;stroke-opacity:0.448077"
         id="circle170"
         cx="63.499565"
         cy="169.93752"
         r="1.0605558" /><circle
         style="fill:#f1b250;fill-opacity:1;stroke-width:2.23213;stroke-linecap:round;stroke-linejoin:round;stroke-miterlimit:17;stroke-opacity:0.448077"
         id="circle171"
         cx="54.089512"
         cy="168.60455"
         r="0.57034457" /><ellipse
         style="fill:#f1b250;fill-opacity:1;stroke-width:4.23333;stroke-linecap:round;stroke-linejoin:round;stroke-miterlimit:17;stroke-opacity:0.448077"
         id="ellipse171"
         cx="56.036549"
         cy="167.02855"
         rx="0.64901274"
         ry="0.64901364" /><circle
         style="fill:#f1b250;fill-opacity:1;stroke-width:2.23213;stroke-linecap:round;stroke-linejoin:round;stroke-miterlimit:17;stroke-opacity:0.448077"
         id="circle172"
         cx="8.907198"
         cy="169.65472"
         r="0.57034457" /></g><g
       id="g303"
       transform="translate(-491.68952,-33.866666)"><path
         style="fill:#f4d47e;fill-opacity:1;stroke-width:4.23333;stroke-linecap:round;stroke-linejoin:round;stroke-miterlimit:17;stroke-opacity:0.448077"
         d="m 203.20003,0 h -67.73336 v 67.733326 h 67.73336 z"
         id="path696"
         sodipodi:nodetypes="ccccc" /><path
         style="fill:#f3c268;fill-opacity:1;stroke-width:4.23333;stroke-linecap:round;stroke-linejoin:round;stroke-miterlimit:17;stroke-opacity:0.448077"
         d="m 203.20004,26.144859 c -14.63229,0 -20.25209,-8.45118 -25.37051,-5.33712 -9.37637,7.9077 -13.00601,13.185407 -24.80669,13.058927 -8.63093,-0.0925 -17.55617,-7.833927 -17.55617,-7.833927 l 3e-5,41.700587 h 67.73334 z"
         id="path697"
         sodipodi:nodetypes="ccscccc" /><path
         style="fill:#f1b250;fill-opacity:1;stroke-width:4.23333;stroke-linecap:round;stroke-linejoin:round;stroke-miterlimit:17;stroke-opacity:0.448077"
         d="m 135.46667,59.541206 c 2.49995,0 12.37289,1.49696 21.13647,1.2613 13.40106,-0.36036 26.71067,-2.50793 26.71067,-2.50793 0,0 10.35843,1.24663 19.88623,1.24663 v 8.19212 h -67.73337 z"
         id="path699"
         sodipodi:nodetypes="csccccc" /></g><g
       id="g310"
       transform="translate(-663.575,-140.75833)"><rect
         style="fill:#f1b250;fill-opacity:1;stroke-width:4.23333;stroke-linecap:round;stroke-linejoin:round;stroke-miterlimit:17"
         id="rect147"
         width="67.733337"
         height="11.821126"
         x="270.93335"
         y="259.11221"
         ry="2.4932551" /><path
         id="rect148"
         style="fill:#f3c268;fill-opacity:1;stroke-width:5.60751;stroke-linecap:round;stroke-linejoin:round;stroke-miterlimit:17"
         d="m 286.91015,247.29087 c -6.5489,0 -11.82098,5.2726 -11.82098,11.8215 h 59.42169 c 0,-6.5489 -5.27208,-11.8215 -11.82098,-11.8215 z" /><rect
         style="fill:#f3c268;fill-opacity:1;stroke-width:5.74583;stroke-linecap:round;stroke-linejoin:round;stroke-miterlimit:17"
         id="rect149"
         width="45.70919"
         height="32.269951"
         x="281.94543"
         y="203.20001" /><rect
         style="fill:#f1b250;fill-opacity:1;stroke-width:4.91811;stroke-linecap:round;stroke-linejoin:round;stroke-miterlimit:17"
         id="rect150"
         width="45.709164"
         height="23.64226"
         x="281.94543"
         y="223.64883"
         ry="11.82113" /><path
         id="rect172"
         style="fill:#e5a143;fill-opacity:1;stroke-width:4.23333;stroke-linecap:round;stroke-linejoin:round;stroke-miterlimit:17"
         d="m 270.93335,263.97099 v 4.46898 c 0,1.38126 1.11212,2.49338 2.49338,2.49338 h 62.74656 c 1.38126,0 2.49339,-1.11212 2.49339,-2.49338 v -4.46898 c 0,1.96392 -1.58108,3.545 -3.545,3.545 h -60.64333 c -1.96392,0 -3.545,-1.58108 -3.545,-3.545 z" /><path
         id="path173"
         style="fill:#f1b250;fill-opacity:1;stroke-width:5.60751;stroke-linecap:round;stroke-linejoin:round;stroke-miterlimit:17"
         d="m 286.91015,249.02769 c -6.5489,0 -11.82098,5.2726 -11.82098,11.8215 h 59.42169 c 0,-6.5489 -5.27208,-11.8215 -11.82098,-11.8215 z" /><rect
         style="fill:#f3c268;fill-opacity:1;stroke-width:4.91811;stroke-linecap:round;stroke-linejoin:round;stroke-miterlimit:17"
         id="rect173"
         width="45.709164"
         height="23.64226"
         x="281.94543"
         y="221.50806"
         ry="11.82113" /><path
         id="path50"
         style="fill:#1fabee;fill-opacity:1;stroke-width:2.21705;stroke-linecap:round;stroke-linejoin:round;stroke-miterlimit:17"
         d="m 281.94558,210.76653 v 3.175 h 45.70884 v -3.175 z" /><path
         id="path133"
         style="fill:#f3d6a8;fill-opacity:1;stroke:none;stroke-width:1.77253;stroke-linecap:round;stroke-linejoin:round;stroke-miterlimit:17;stroke-dasharray:none;stroke-opacity:1"
         d="m 281.94558,213.94153 v 11.42714 h 45.70884 v -11.42714 z" /><circle
         style="fill:#63b82b;fill-opacity:1;stroke:none;stroke-width:1.84688;stroke-linecap:round;stroke-linejoin:round;stroke-miterlimit:17;stroke-dasharray:none;stroke-opacity:1"
         id="path129"
         cx="304.80005"
         cy="219.65518"
         r="5.7136521" /><circle
         style="fill:#1fabee;fill-opacity:1;stroke:none;stroke-width:1.84688;stroke-linecap:round;stroke-linejoin:round;stroke-miterlimit:17;stroke-dasharray:none;stroke-opacity:1"
         id="circle129"
         cx="316.22733"
         cy="219.65518"
         r="5.7136521" /><circle
         style="fill:#1fabee;fill-opacity:1;stroke:none;stroke-width:1.84688;stroke-linecap:round;stroke-linejoin:round;stroke-miterlimit:17;stroke-dasharray:none;stroke-opacity:1"
         id="circle130"
         cx="293.37274"
         cy="219.65518"
         r="5.7136521" /><path
         id="circle131"
         style="fill:#ee401f;fill-opacity:1;stroke:none;stroke-width:1.84688;stroke-linecap:round;stroke-linejoin:round;stroke-miterlimit:17;stroke-dasharray:none;stroke-opacity:1"
         d="m 327.65442,213.94146 a 5.7136521,5.7136521 0 0 0 -5.71335,5.71387 5.7136521,5.7136521 0 0 0 5.71335,5.71334 z" /><path
         id="circle132"
         style="fill:#ee401f;fill-opacity:1;stroke:none;stroke-width:1.84688;stroke-linecap:round;stroke-linejoin:round;stroke-miterlimit:17;stroke-dasharray:none;stroke-opacity:1"
         d="m 281.94558,213.94146 v 11.42721 a 5.7136521,5.7136521 0 0 0 5.71335,-5.71334 5.7136521,5.7136521 0 0 0 -5.71335,-5.71387 z" /><path
         id="path134"
         style="fill:#ee401f;fill-opacity:1;stroke-width:2.21705;stroke-linecap:round;stroke-linejoin:round;stroke-miterlimit:17"
         d="m 281.94563,225.36883 v 3.175 h 45.70884 v -3.175 z" /><g
         id="g138"
         transform="matrix(0.51501493,0,0,0.51501493,263.16649,315.05486)"
         style="stroke:#e5a143;stroke-opacity:1"><path
           style="fill:none;fill-opacity:1;stroke:#e5a143;stroke-width:2.11667;stroke-linecap:round;stroke-linejoin:round;stroke-miterlimit:17;stroke-dasharray:none;stroke-opacity:1"
           d="m 74.528403,-100.10163 h 12.599844 v -17.04344 c 0,-1.41418 -2.226555,-5.35424 -6.277675,-5.42285 -3.873303,-0.0656 -6.277645,4.02559 -6.277645,5.42285 z"
           id="path136"
           sodipodi:nodetypes="cccscc" /><path
           style="fill:none;fill-opacity:1;stroke:#e5a143;stroke-width:2.11667;stroke-linecap:round;stroke-linejoin:round;stroke-miterlimit:17;stroke-dasharray:none;stroke-opacity:1"
           d="m 67.872304,-109.57626 h 6.678361 v -7.56881 h -17.18565 c 0,0 6.500024,7.56881 10.507289,7.56881 z"
           id="path137"
           sodipodi:nodetypes="ccccc" /><path
           style="fill:none;fill-opacity:1;stroke:#e5a143;stroke-width:2.11667;stroke-linecap:round;stroke-linejoin:round;stroke-miterlimit:17;stroke-dasharray:none;stroke-opacity:1"
           d="m 93.806608,-109.57626 h -6.678361 v -7.56881 H 104.3139 c 0,0 -6.500027,7.56881 -10.507292,7.56881 z"
           id="path138"
           sodipodi:nodetypes="ccccc" /></g><path
         style="fill:#f1b250;fill-opacity:1;stroke:none;stroke-width:2.11667;stroke-linecap:round;stroke-linejoin:round;stroke-miterlimit:17;stroke-dasharray:none;stroke-opacity:1"
         d="m 282.77042,237.69131 c 0,0 1.63875,3.17495 5.02245,4.33253 3.3837,1.15758 3.83574,0.57879 6.58932,1.55829 2.75359,0.97949 3.6177,1.56818 5.12008,1.56818 1.50241,0 6.9455,-0.98939 10.50729,-0.98939 3.5618,0 2.41863,0.98372 6.19557,0.98372 2.85678,-0.76417 4.1927,-2.2844 5.64741,-2.63105 1.31666,-0.31375 3.85615,-2.66758 3.85615,-2.66758 l -0.56149,2.04426 -5.87698,4.00702 c 0,0 -13.80194,0.44522 -14.02456,0.44522 -0.22259,0 -15.27117,-0.44522 -15.27117,-0.44522 l -5.29817,-3.96249 z"
         id="path140"
         sodipodi:nodetypes="csssscscccsccc" /><path
         style="fill:#e5a143;fill-opacity:1;stroke:none;stroke-width:2.11667;stroke-linecap:round;stroke-linejoin:round;stroke-miterlimit:17;stroke-dasharray:none;stroke-opacity:1"
         d="m 275.72022,267.516 c 0,0 3.77426,-1.66137 7.0502,-0.8626 3.27594,0.79875 16.12064,0.8626 16.12064,0.8626 0,0 8.31127,-1.90783 9.3187,0 1.00743,1.90783 7.87053,-1.30337 7.87053,-1.30337 l 14.16693,1.23952 c 0,0 1.95191,-0.55335 2.1408,-1.49137 0.18889,-0.938 5.24198,0.51982 5.24198,0.51982 l -1.02338,2.75432 -45.71201,0.31482 z"
         id="path142" /><path
         style="fill:#f3c268;fill-opacity:1;stroke:none;stroke-width:2.11667;stroke-linecap:round;stroke-linejoin:round;stroke-miterlimit:17;stroke-dasharray:none;stroke-opacity:1"
         d="m 279.08194,251.97704 14.01641,-2.94935 h 16.49664 c 0,0 1.3852,0.94019 5.10008,1.4439 3.71491,0.50372 4.11406,-2.09087 7.99481,-1.4439 3.88075,0.64696 2.70486,-1.42845 2.70486,-1.42845 0,0 -35.84321,0.68 -36.08811,0.68 -0.24487,0 -7.36121,1.0908 -7.36121,1.0908 z"
         id="path143" /></g><path
       style="fill:#ffffff;fill-opacity:1;stroke:none;stroke-width:0.776999;stroke-linejoin:round;stroke-miterlimit:17"
       d="m 188.38334,42.098567 c 46.38882,35.996239 285.75002,93.368103 285.75002,93.368103 L 0,135.46667 C 23.894635,103.56652 119.49982,42.098567 188.38334,42.098567 Z"
       id="path1"
       sodipodi:nodetypes="cccc" /><path
       style="fill:#ffffff;fill-opacity:1;stroke:none;stroke-width:0.776999;stroke-linejoin:round;stroke-miterlimit:17"
       d="M 474.13336,270.93335 H 0 c 50.397215,-21.40645 155.67753,-28.65412 186.65384,-57.67917 56.08328,-16.98954 94.65879,-18.60524 152.01284,-19.1568 68.96989,-0.66327 105.11269,29.71461 135.46668,76.83597 z"
       id="path2"
       sodipodi:nodetypes="cccsc" /><path
       sodipodi:type="star"
       style="fill:#ffffff;fill-opacity:1;stroke:none;stroke-width:0.776999;stroke-linejoin:round;stroke-miterlimit:17"
       id="path3"
       inkscape:flatsided="true"
       sodipodi:sides="3"
       sodipodi:cx="600.07501"
       sodipodi:cy="104.24583"
       sodipodi:r1="80.88118"
       sodipodi:r2="40.44059"
       sodipodi:arg1="0.52359878"
       sodipodi:arg2="1.5707963"
       inkscape:rounded="1.0408341e-17"
       inkscape:randomized="0"
       d="m 670.12017,144.68642 -140.09031,0 70.04515,-121.321773 z"
       inkscape:transform-center-x="4.6397675e-06"
       inkscape:transform-center-y="-14.664046"
       transform="matrix(0.9669953,0,0,0.7252142,29.330317,30.53803)" /><g
       id="g21"><rect
         style="fill:#eeb23f;fill-opacity:1;stroke:none;stroke-width:0.776999;stroke-linejoin:round;stroke-miterlimit:17"
         id="rect5"
         width="96.837502"
         height="57.943748"
         x="561.18127"
         y="209.49149" /><rect
         style="fill:#efbc2f;fill-opacity:1;stroke:none;stroke-width:0.682921;stroke-linejoin:round;stroke-miterlimit:17"
         id="rect6"
         width="112.44791"
         height="9.6063881"
         x="553.3761"
         y="206.10281" /><circle
         style="fill:#efbc2f;fill-opacity:1;stroke:none;stroke-width:0.776999;stroke-linejoin:round;stroke-miterlimit:17"
         id="path6"
         cx="665.82404"
         cy="207.02014"
         r="8.689043" /><circle
         style="fill:#efbc2f;fill-opacity:1;stroke:none;stroke-width:0.776999;stroke-linejoin:round;stroke-miterlimit:17"
         id="circle6"
         cx="553.3761"
         cy="207.02014"
         r="8.689043" /><path
         id="rect7"
         style="fill:#1fabee;fill-opacity:1;stroke:none;stroke-width:1.00711;stroke-linejoin:round;stroke-miterlimit:17"
         d="m 561.18125,222.58836 v 5.55625 h 96.8375 v -5.55625 z" /><path
         id="path8"
         style="fill:#f3d6a8;fill-opacity:1;stroke:none;stroke-width:2.15889;stroke-linejoin:round;stroke-miterlimit:17"
         d="m 561.18125,235.02377 v 25.53229 h 96.8375 v -25.53229 z" /><g
         id="g98"
         transform="matrix(0.40967749,0,0,0.40967749,557.52159,281.84642)"
         style="stroke:#a18552;stroke-opacity:1"><path
           id="path61"
           style="fill:none;fill-opacity:1;stroke:#a18552;stroke-width:2.11667;stroke-linecap:round;stroke-linejoin:round;stroke-miterlimit:17;stroke-dasharray:none;stroke-opacity:1"
           d="m 30.978471,-102.50589 -12.215275,5.541266 12.215275,5.540747 8.39742,-4.748547 1.484664,0.05684 4.418852,2.005045 v -1.83503 -2.038118 -1.835547 l -4.419886,2.005562 -1.482596,0.05684 z" /><path
           style="fill:none;fill-opacity:1;stroke:#a18552;stroke-width:2.11667;stroke-linecap:round;stroke-linejoin:round;stroke-miterlimit:17;stroke-dasharray:none;stroke-opacity:1"
           d="m 26.671558,-100.55213 v 7.174675"
           id="path65" /></g><path
         style="fill:none;fill-opacity:1;stroke:#a18552;stroke-width:1.00789;stroke-linecap:round;stroke-linejoin:round;stroke-miterlimit:17;stroke-dasharray:none;stroke-opacity:1"
         d="m 647.12601,244.81389 h 8.57474 c 0,0 -2.36489,-4.39873 -4.40729,-4.37731 -2.0424,0.0214 -4.16745,4.37731 -4.16745,4.37731 z"
         id="path66"
         sodipodi:nodetypes="cczc" /><g
         id="g95"
         transform="matrix(0.39926264,0,0,0.39926264,602.58079,286.34204)"
         style="stroke:#a18552;stroke-opacity:1"><path
           style="fill:none;fill-opacity:1;stroke:#a18552;stroke-width:2.11667;stroke-linecap:round;stroke-linejoin:round;stroke-miterlimit:17;stroke-dasharray:none;stroke-opacity:1"
           d="m 74.528403,-100.10163 h 12.599844 v -17.04344 c 0,-1.41418 -2.226555,-5.35424 -6.277675,-5.42285 -3.873303,-0.0656 -6.277645,4.02559 -6.277645,5.42285 z"
           id="path67"
           sodipodi:nodetypes="cccscc" /><path
           style="fill:none;fill-opacity:1;stroke:#a18552;stroke-width:2.11667;stroke-linecap:round;stroke-linejoin:round;stroke-miterlimit:17;stroke-dasharray:none;stroke-opacity:1"
           d="m 67.872304,-109.57626 h 6.678361 v -7.56881 h -17.18565 c 0,0 6.500024,7.56881 10.507289,7.56881 z"
           id="path68"
           sodipodi:nodetypes="ccccc" /><path
           style="fill:none;fill-opacity:1;stroke:#a18552;stroke-width:2.11667;stroke-linecap:round;stroke-linejoin:round;stroke-miterlimit:17;stroke-dasharray:none;stroke-opacity:1"
           d="m 93.806608,-109.57626 h -6.678361 v -7.56881 H 104.3139 c 0,0 -6.500027,7.56881 -10.507292,7.56881 z"
           id="path69"
           sodipodi:nodetypes="ccccc" /></g><path
         style="fill:none;fill-opacity:1;stroke:#a18552;stroke-width:0.877898;stroke-linecap:round;stroke-linejoin:round;stroke-miterlimit:17;stroke-dasharray:none;stroke-opacity:1"
         d="m 581.52256,255.0284 c 0,0 2.35019,-1.18182 3.61932,-1.18182 1.26912,0 2.35018,1.18182 3.6193,1.18182 1.26913,0 2.35019,-1.18182 3.61931,-1.18182 1.26913,0 3.61931,1.18182 3.61931,1.18182"
         id="path70"
         sodipodi:nodetypes="czzzc" /><g
         id="g97"
         transform="matrix(0.5105312,0,0,0.5105312,603.86655,289.03719)"
         style="stroke:#a18552;stroke-opacity:1"><path
           style="fill:none;fill-opacity:1;stroke:#a18552;stroke-width:2.11667;stroke-linecap:round;stroke-linejoin:round;stroke-miterlimit:17;stroke-dasharray:none;stroke-opacity:1"
           d="m 52.154955,-64.883902 c 0,0 5.666452,-2.849435 8.726394,-2.849435 3.059942,1e-6 5.666451,2.849435 8.726393,2.849435 3.059942,0 5.666451,-2.849434 8.726393,-2.849435 3.059942,0 8.726394,2.849435 8.726394,2.849435 l 2.315166,-10.180888 h 7.390721"
           id="path81"
           sodipodi:nodetypes="czzzc" /></g><g
         id="g99"
         transform="matrix(0.41451829,0,0,0.41451829,566.18664,302.95936)"
         style="stroke:#a18552;stroke-opacity:1"><rect
           style="fill:none;fill-opacity:1;stroke:#a18552;stroke-width:2.11667;stroke-linecap:round;stroke-linejoin:round;stroke-miterlimit:17;stroke-dasharray:none;stroke-opacity:1"
           id="rect81"
           width="12.199142"
           height="12.199142"
           x="7.7469001"
           y="-122.88187" /><path
           style="fill:none;fill-opacity:1;stroke:#a18552;stroke-width:2.11667;stroke-linecap:round;stroke-linejoin:round;stroke-miterlimit:17;stroke-dasharray:none;stroke-opacity:1"
           d="m -3.6063157,-115.35758 c 0,0 5.666452,-2.84943 8.726394,-2.84943 3.059942,0 5.6664507,2.84943 8.7263927,2.84943 3.059942,0 5.666451,-2.84943 8.726393,-2.84943 3.059942,0 8.726394,2.84943 8.726394,2.84943"
           id="path89"
           sodipodi:nodetypes="czzzc" /></g><g
         id="g96"
         transform="matrix(0.36804702,0,0,0.36804702,538.60745,280.96827)"
         style="stroke:#a18552;stroke-opacity:1"><rect
           style="fill:none;fill-opacity:1;stroke:#a18552;stroke-width:2.11667;stroke-linecap:round;stroke-linejoin:round;stroke-miterlimit:17;stroke-dasharray:none;stroke-opacity:1"
           id="rect89"
           width="4.6669197"
           height="22.145557"
           x="130.79976"
           y="-103.04259" /><path
           sodipodi:type="star"
           style="fill:none;fill-opacity:1;stroke:#a18552;stroke-width:2.11667;stroke-linecap:round;stroke-linejoin:round;stroke-miterlimit:17;stroke-dasharray:none;stroke-opacity:1"
           id="path90"
           inkscape:flatsided="true"
           sodipodi:sides="3"
           sodipodi:cx="109.05399"
           sodipodi:cy="-93.942596"
           sodipodi:r1="5.0653911"
           sodipodi:r2="2.5326955"
           sodipodi:arg1="0.52359878"
           sodipodi:arg2="1.5707963"
           inkscape:rounded="1.0408341e-17"
           inkscape:randomized="0"
           d="m 113.44075,-91.409901 -8.77351,0 4.38675,-7.598086 z"
           inkscape:transform-center-x="1.2663508"
           inkscape:transform-center-y="-3.5096707e-06"
           transform="rotate(-90,120.24303,-114.23163)" /><path
           sodipodi:type="star"
           style="fill:none;fill-opacity:1;stroke:#a18552;stroke-width:2.11667;stroke-linecap:round;stroke-linejoin:round;stroke-miterlimit:17;stroke-dasharray:none;stroke-opacity:1"
           id="path91"
           inkscape:flatsided="true"
           sodipodi:sides="3"
           sodipodi:cx="109.05399"
           sodipodi:cy="-93.942596"
           sodipodi:r1="5.0653911"
           sodipodi:r2="2.5326955"
           sodipodi:arg1="0.52359878"
           sodipodi:arg2="1.5707963"
           inkscape:rounded="1.0408341e-17"
           inkscape:randomized="0"
           d="m 113.44075,-91.409901 -8.77351,0 4.38675,-7.598086 z"
           inkscape:transform-center-x="-1.2663506"
           inkscape:transform-center-y="-3.5096707e-06"
           transform="matrix(0,-1,-1,0,31.791771,6.011406)" /><path
           id="path92"
           style="fill:none;stroke:#a18552;stroke-width:2.11667;stroke-linecap:round;stroke-linejoin:round;stroke-miterlimit:17;stroke-opacity:1"
           d="m 139.13607,-113.7465 c 0,3.3731 -4.70242,10.70391 -6.00285,10.70391 -1.42635,0 -6.00284,-7.33082 -6.00284,-10.70391 0,-3.37309 2.68756,-6.10752 6.00284,-6.10753 3.31528,0 6.00285,2.73444 6.00285,6.10753 z"
           sodipodi:nodetypes="sssss" /></g><g
         id="g94"
         transform="translate(493.81773,380.61502)"
         style="stroke:#a18552;stroke-opacity:1"><path
           id="path93"
           style="fill:none;stroke:#a18552;stroke-width:2.11667;stroke-linecap:round;stroke-linejoin:round;stroke-miterlimit:17;stroke-opacity:1"
           d="m 127.8852,-132.82511 c 0,1.88305 -8.4473,6.6191 -12.10293,6.6191 -3.65562,0 -12.10292,-4.92246 -12.10292,-6.6191 0,-1.51855 8.4473,-6.61909 12.10292,-6.61909 3.65563,0 12.10293,5.10005 12.10293,6.61909 z"
           sodipodi:nodetypes="sssss" /><circle
           style="fill:#a18552;fill-opacity:1;stroke:none;stroke-width:2.43267;stroke-linecap:round;stroke-linejoin:round;stroke-miterlimit:17;stroke-dasharray:none;stroke-opacity:1"
           id="path94"
           cx="115.78227"
           cy="-132.8251"
           r="2.1166666" /></g><rect
         style="fill:#e6ab39;fill-opacity:1;stroke:none;stroke-width:0.280356;stroke-linejoin:round;stroke-miterlimit:17"
         id="rect8"
         width="106.19193"
         height="6.8791728"
         x="556.50403"
         y="264.05417" /><g
         id="g20"
         transform="translate(-3.175,19.388349)"><path
           id="path19"
           style="fill:#16041e;stroke-width:0.776999;stroke-linejoin:round;stroke-miterlimit:17"
           d="m 628.88869,135.6749 c 1.4972,8.01152 1.39173,7.38919 1.4972,8.01152 l 1.59186,9.39262 c 0.21094,1.24466 -1.2072,2.18362 -2.465,2.07582 l -2.19808,-0.18844 c -1.2578,-0.10784 -2.19503,-1.20823 -2.07581,-2.46499 0,0 -1.29006,-5.49748 -0.8169,-8.2205 0,0 2.88052,-8.86205 4.46673,-8.60607 z"
           sodipodi:nodetypes="czsssscc" /><rect
           style="fill:#190721;fill-opacity:1;stroke:none;stroke-width:0.776999;stroke-linejoin:round;stroke-miterlimit:17;stroke-opacity:1"
           id="rect9"
           width="44.788265"
           height="16.801041"
           x="585.08923"
           y="167.39325"
           ry="4.8947916" /><rect
           style="fill:#16041e;fill-opacity:1;stroke:none;stroke-width:0.776999;stroke-linejoin:round;stroke-miterlimit:17;stroke-opacity:1"
           id="rect10"
           width="26.458332"
           height="6.3499923"
           x="617.1615"
           y="180.36447"
           ry="3.1749961" /><path
           id="rect11"
           style="fill:#16041e;stroke-width:0.776999;stroke-linejoin:round;stroke-miterlimit:17"
           d="m 586.0244,171.61578 6.17717,1.07576 c 1.73287,0.30178 3.175,1.41605 3.175,3.175 v 7.67292 c 0,1.75895 -1.41605,3.175 -3.175,3.175 h -8.79641 c -1.75895,0 -3.67948,-1.48995 -3.175,-3.175 l 2.61924,-8.74868 c 0.50448,-1.68505 1.44213,-3.47678 3.175,-3.175 z"
           sodipodi:nodetypes="sssssssss" /><rect
           style="fill:#16041e;fill-opacity:1;stroke:none;stroke-width:0.776999;stroke-linejoin:round;stroke-miterlimit:17;stroke-opacity:1"
           id="rect12"
           width="26.458332"
           height="6.3499923"
           x="588.71881"
           y="180.36447"
           ry="3.1749961" /><path
           id="rect13"
           style="fill:#190721;fill-opacity:1;stroke-width:0.776999;stroke-linejoin:round;stroke-miterlimit:17"
           d="m 627.84736,154.98924 h 2.53672 c 1.75895,0 3.40325,4.19048 3.175,5.93456 l -1.40317,10.72184 c -0.22824,1.74408 -1.44433,3.48919 -3.175,3.175 l -7.21393,-1.30962 c -1.73066,-0.31419 -2.40277,-1.5331 -1.77184,-3.175 l 4.67722,-12.17178 c 0.63093,-1.6419 1.41605,-3.175 3.175,-3.175 z"
           sodipodi:nodetypes="sssssssss" /><rect
           style="fill:#16041e;fill-opacity:1;stroke:none;stroke-width:0.658256;stroke-linejoin:round;stroke-miterlimit:17;stroke-opacity:1"
           id="rect14"
           width="13.189719"
           height="10.406337"
           x="624.67236"
           y="151.41164"
           ry="2.2787249" /><path
           id="rect15"
           style="fill:#16041e;stroke-width:0.872302;stroke-linejoin:round;stroke-miterlimit:17"
           d="m 633.13252,155.22311 c 3.93292,0.5543 16.54142,2.39678 16.74994,3.175 0.20852,0.77822 -1.26285,1.78836 -1.26285,1.78836 l -12.30658,1.63151 -6.35551,-3.17499 v -0.24488 c 0,-1.75895 1.41605,-3.175 3.175,-3.175 z"
           sodipodi:nodetypes="szsccss" /><path
           id="rect16"
           style="fill:#16041e;stroke-width:0.776999;stroke-linejoin:round;stroke-miterlimit:17"
           transform="rotate(-18.94108)"
           d="m 542.49103,331.24506 c 2.17588,7.8544 2.01765,7.24335 2.17588,7.8544 l 2.38812,9.22237 c 0.31646,1.2221 -1.01631,2.27873 -2.27872,2.27873 h -2.20614 c -1.26242,0 -2.29019,-1.01637 -2.27873,-2.27873 0,0 -1.75481,-5.36722 -1.51591,-8.12071 0,0 2.11322,-9.07566 3.7155,-8.95606 z"
           sodipodi:nodetypes="czsssscc" /><rect
           style="fill:#efbc2f;fill-opacity:1;stroke:none;stroke-width:0.776999;stroke-linejoin:round;stroke-miterlimit:17;stroke-opacity:1"
           id="rect18"
           width="13.189751"
           height="3.171077"
           x="576.00696"
           y="-287.68472"
           ry="1.5855385"
           transform="rotate(41.426119)" /><path
           id="rect19"
           style="fill:#efbc2f;stroke-width:0.669473;stroke-linejoin:round;stroke-miterlimit:17"
           d="m 632.5405,153.29666 2.23272,0.88138 c 0.91526,0.36131 1.19675,0.51393 0.99405,1.02685 -0.27815,0.70387 -0.86436,1.10418 -1.6196,1.05525 l -2.16941,-0.14056 c -0.75524,-0.0489 -1.36612,-0.60929 -1.36612,-1.36612 v -0.65292 c 0,-0.75683 1.22439,-1.08178 1.92836,-0.80388 z"
           sodipodi:nodetypes="ssssssss" /><path
           id="path20"
           style="fill:#efbc2f;fill-opacity:1;stroke-width:0.466262;stroke-linejoin:round;stroke-miterlimit:17"
           d="m 622.66567,142.91072 c 2.76491,4.03424 2.55608,3.71823 2.76491,4.03424 l 3.15184,4.76934 c 0.41766,0.632 -0.13299,1.49134 -0.84952,1.73723 l -1.25218,0.42972 c -0.71653,0.2459 -1.49785,-0.13079 -1.73724,-0.84952 0,0 -2.04145,-2.70456 -2.44219,-4.31394 0,0 -0.56835,-5.56286 0.36438,-5.80707 z"
           sodipodi:nodetypes="czsssscc" /></g></g></g></svg>
