<?xml version="1.0" encoding="UTF-8" standalone="no"?>
<!-- Created with Inkscape (http://www.inkscape.org/) -->

<svg
   width="256"
   height="256"
   viewBox="0 0 67.733334 67.733334"
   version="1.1"
   id="svg1"
   sodipodi:docname="GrassLevelTilesetArt.svg"
   inkscape:version="1.3 (0e150ed6c4, 2023-07-21)"
   inkscape:export-filename="GrassLevelTilesetArt.png"
   inkscape:export-xdpi="96"
   inkscape:export-ydpi="96"
   xmlns:inkscape="http://www.inkscape.org/namespaces/inkscape"
   xmlns:sodipodi="http://sodipodi.sourceforge.net/DTD/sodipodi-0.dtd"
   xmlns="http://www.w3.org/2000/svg"
   xmlns:svg="http://www.w3.org/2000/svg">
  <sodipodi:namedview
     id="namedview1"
     pagecolor="#000000"
     bordercolor="#000000"
     borderopacity="0.25"
     inkscape:showpageshadow="false"
     inkscape:pageopacity="0.0"
     inkscape:pagecheckerboard="true"
     inkscape:deskcolor="#d1d1d1"
     inkscape:document-units="mm"
     showgrid="true"
     inkscape:zoom="0.35355339"
     inkscape:cx="642.05296"
     inkscape:cy="895.19719"
     inkscape:window-width="1858"
     inkscape:window-height="1057"
     inkscape:window-x="54"
     inkscape:window-y="-8"
     inkscape:window-maximized="1"
     inkscape:current-layer="layer1">
    <inkscape:grid
       id="grid1"
       units="px"
       originx="0"
       originy="0"
       spacingx="67.733334"
       spacingy="67.733334"
       empcolor="#0099e5"
       empopacity="0.30196078"
       color="#0099e5"
       opacity="0.14901961"
       empspacing="5"
       dotted="false"
       gridanglex="30"
       gridanglez="30"
       visible="true" />
  </sodipodi:namedview>
  <defs
     id="defs1">
    <inkscape:path-effect
       effect="skeletal"
       id="path-effect77"
       is_visible="true"
       lpeversion="1"
       pattern="M 0,4.9921384 C 0,2.236478 2.236478,0 4.9921384,0 c 2.7556604,0 4.9921384,2.236478 4.9921384,4.9921384 0,2.7556604 -2.236478,4.9921384 -4.9921384,4.9921384 C 2.236478,9.9842768 0,7.7477988 0,4.9921384 Z"
       copytype="single_stretched"
       prop_scale="0.5"
       scale_y_rel="false"
       spacing="0"
       normal_offset="0"
       tang_offset="0"
       prop_units="false"
       vertical_pattern="false"
       hide_knot="false"
       fuse_tolerance="0" />
    <inkscape:perspective
       sodipodi:type="inkscape:persp3d"
       inkscape:vp_x="0 : 33.866667 : 1"
       inkscape:vp_y="0 : 1000 : 0"
       inkscape:vp_z="67.733334 : 33.866667 : 1"
       inkscape:persp3d-origin="33.866667 : 22.577778 : 1"
       id="perspective28" />
    <inkscape:path-effect
       effect="skeletal"
       id="path-effect57"
       is_visible="true"
       lpeversion="1"
       pattern="M 0,4.9921384 C 0,2.236478 2.236478,0 4.9921384,0 c 2.7556604,0 4.9921384,2.236478 4.9921384,4.9921384 0,2.7556604 -2.236478,4.9921384 -4.9921384,4.9921384 C 2.236478,9.9842768 0,7.7477988 0,4.9921384 Z"
       copytype="single_stretched"
       prop_scale="0.5"
       scale_y_rel="false"
       spacing="0"
       normal_offset="0"
       tang_offset="0"
       prop_units="false"
       vertical_pattern="false"
       hide_knot="false"
       fuse_tolerance="0" />
  </defs>
  <g
     inkscape:label="Layer 1"
     inkscape:groupmode="layer"
     id="layer1">
    <rect
       style="fill:#7092be;fill-opacity:1;stroke-width:2.36434;stroke-linecap:round;stroke-linejoin:round;stroke-miterlimit:17;paint-order:markers fill stroke"
       id="rect2"
       width="59.266663"
       height="57.82114"
       x="8.4666653"
       y="9.9121933"
       ry="0" />
    <rect
       style="fill:#25944b;fill-opacity:1;stroke-width:2.26913;stroke-linecap:round;stroke-linejoin:round;stroke-miterlimit:17;paint-order:markers fill stroke"
       id="rect3"
       width="67.73333"
       height="16.933332"
       x="0"
       y="4.2333326"
       ry="8.4666662" />
    <rect
       style="fill:#25944b;fill-opacity:1;stroke-width:1.98837;stroke-linecap:round;stroke-linejoin:round;stroke-miterlimit:17;paint-order:markers fill stroke"
       id="rect4"
       width="67.73333"
       height="4.2333331"
       x="0"
       y="8.4666662"
       ry="0" />
    <rect
       style="fill:#22b14c;fill-opacity:1;stroke-width:2.26913;stroke-linecap:round;stroke-linejoin:round;stroke-miterlimit:17;paint-order:markers fill stroke"
       id="rect1"
       width="67.73333"
       height="16.933332"
       x="0"
       y="0"
       ry="8.4666662" />
    <rect
       style="fill:#7092be;fill-opacity:1;stroke-width:2.55898;stroke-linecap:round;stroke-linejoin:round;stroke-miterlimit:17;paint-order:markers fill stroke"
       id="rect5"
       width="59.266666"
       height="67.733337"
       x="8.4666653"
       y="67.733337"
       ry="0" />
    <rect
       style="fill:#22b14c;fill-opacity:1;stroke-width:2.117;stroke-linecap:round;stroke-linejoin:round;stroke-miterlimit:17;paint-order:markers fill stroke"
       id="rect13"
       width="15.11035"
       height="16.933332"
       x="52.622978"
       y="0"
       ry="0" />
    <rect
       style="fill:#25944b;fill-opacity:1;stroke-width:2.117;stroke-linecap:round;stroke-linejoin:round;stroke-miterlimit:17;paint-order:markers fill stroke"
       id="rect14"
       width="15.889126"
       height="4.2333326"
       x="51.844204"
       y="16.933332" />
    <rect
       style="fill:#7092be;fill-opacity:1;stroke-width:2.36434;stroke-linecap:round;stroke-linejoin:round;stroke-miterlimit:17;paint-order:markers fill stroke"
       id="rect15"
       width="59.266663"
       height="57.82114"
       x="-194.73334"
       y="9.9121933"
       ry="0"
       transform="scale(-1,1)" />
    <rect
       style="fill:#25944b;fill-opacity:1;stroke-width:2.26913;stroke-linecap:round;stroke-linejoin:round;stroke-miterlimit:17;paint-order:markers fill stroke"
       id="rect16"
       width="67.73333"
       height="16.933332"
       x="-203.20001"
       y="4.2333326"
       ry="8.4666662"
       transform="scale(-1,1)" />
    <rect
       style="fill:#25944b;fill-opacity:1;stroke-width:1.98837;stroke-linecap:round;stroke-linejoin:round;stroke-miterlimit:17;paint-order:markers fill stroke"
       id="rect17"
       width="67.73333"
       height="4.2333331"
       x="-203.20001"
       y="8.4666662"
       ry="0"
       transform="scale(-1,1)" />
    <rect
       style="fill:#22b14c;fill-opacity:1;stroke-width:2.26913;stroke-linecap:round;stroke-linejoin:round;stroke-miterlimit:17;paint-order:markers fill stroke"
       id="rect18"
       width="67.73333"
       height="16.933332"
       x="-203.20001"
       y="-1.3535839e-13"
       ry="8.4666662"
       transform="scale(-1,1)" />
    <rect
       style="fill:#22b14c;fill-opacity:1;stroke-width:2.117;stroke-linecap:round;stroke-linejoin:round;stroke-miterlimit:17;paint-order:markers fill stroke"
       id="rect19"
       width="15.11035"
       height="16.933332"
       x="-150.57703"
       y="-1.3535839e-13"
       ry="0"
       transform="scale(-1,1)" />
    <rect
       style="fill:#25944b;fill-opacity:1;stroke-width:2.117;stroke-linecap:round;stroke-linejoin:round;stroke-miterlimit:17;paint-order:markers fill stroke"
       id="rect20"
       width="15.889126"
       height="4.2333326"
       x="-151.3558"
       y="16.933332"
       transform="scale(-1,1)" />
    <rect
       style="fill:#7092be;fill-opacity:1;stroke-width:2.52759;stroke-linecap:round;stroke-linejoin:round;stroke-miterlimit:17;paint-order:markers fill stroke"
       id="rect21"
       width="67.733345"
       height="57.82114"
       x="-135.46667"
       y="9.9122"
       ry="0"
       transform="scale(-1,1)" />
    <rect
       style="fill:#22b14c;fill-opacity:1;stroke-width:4.48213;stroke-linecap:round;stroke-linejoin:round;stroke-miterlimit:17;paint-order:markers fill stroke"
       id="rect22"
       width="67.733353"
       height="16.933332"
       x="-135.46669"
       y="1.4592122e-05"
       ry="0"
       transform="scale(-1,1)" />
    <rect
       style="fill:#25944b;fill-opacity:1;stroke-width:4.37091;stroke-linecap:round;stroke-linejoin:round;stroke-miterlimit:17;paint-order:markers fill stroke"
       id="rect23"
       width="67.733337"
       height="4.2333326"
       x="-135.46667"
       y="16.93335"
       transform="scale(-1,1)" />
    <path
       id="rect60"
       style="fill:#7092be;stroke-width:2.52759;stroke-linecap:round;stroke-linejoin:round;stroke-miterlimit:17;paint-order:markers fill stroke"
       d="M 242.54304,230.56913 203.2,213.11221 v 57.82114 h 67.73335 z"
       sodipodi:nodetypes="ccccc" />
    <path
       id="path59"
       style="display:inline;opacity:1;fill:#25944b;fill-opacity:1;stroke-width:2.117;stroke-linecap:round;stroke-linejoin:round;stroke-miterlimit:17;paint-order:markers fill stroke"
       d="m 209.18671,207.43334 v 12.7 H 203.97205 203.2 v 4.23334 h 0.77205 5.21466 c 15.20284,-1e-5 14.96647,-0.21401 25.39639,10.21591 l 7.95972,7.96024 11.97394,-13.72733 -5.4224,-5.42189 C 233.13404,207.43328 233.147,207.43334 209.18671,207.43334 Z" />
    <path
       id="rect46"
       style="fill:#22b14c;fill-opacity:1;stroke-width:4.48213;stroke-linecap:round;stroke-linejoin:round;stroke-miterlimit:17;paint-order:markers fill stroke"
       d="m 254.51679,224.58216 -11.97395,11.97396 34.37723,34.37723 23.94789,-1e-5 z" />
    <path
       id="path58"
       style="display:inline;opacity:1;fill:#22b14c;fill-opacity:1;stroke-width:2.117;stroke-linecap:round;stroke-linejoin:round;stroke-miterlimit:17;paint-order:markers fill stroke"
       d="m 203.2,203.20001 v 16.93333 h 0.77205 5.21466 c 16.93354,0 16.93365,-2e-4 25.39639,8.46253 l 7.95972,7.96025 11.97394,-11.97395 -5.4224,-5.4219 C 233.13404,203.19995 233.147,203.20001 209.18671,203.20001 h -5.21466 z" />
    <path
       id="rect59"
       style="fill:#25944b;fill-opacity:1;stroke-width:4.37091;stroke-linecap:round;stroke-linejoin:round;stroke-miterlimit:17;paint-order:markers fill stroke"
       d="m 242.54284,236.55612 -2.9931,2.9931 31.38361,31.38413 h 5.98672 z" />
    <path
       id="rect68"
       style="display:inline;fill:#22b14c;fill-opacity:1;stroke-width:4.48213;stroke-linecap:round;stroke-linejoin:round;stroke-miterlimit:17;paint-order:markers fill stroke"
       d="m 288.89399,258.95992 -11.97394,11.97343 47.89475,47.89423 5.2e-4,5.2e-4 13.85135,13.85135 v -23.94686 l -1.87844,-1.87844 z" />
    <path
       style="opacity:1;fill:#7092be;fill-opacity:1;stroke-width:2.117;stroke-linecap:round;stroke-linejoin:round;stroke-miterlimit:17;paint-order:markers fill stroke"
       d="m 270.93336,270.93335 c 27.12804,20.7184 51.85143,42.41942 67.73333,67.73334 h -67.73333 z"
       id="path82"
       sodipodi:nodetypes="cccc" />
    <path
       id="rect70"
       style="display:inline;fill:#25944b;fill-opacity:1;stroke-width:4.37091;stroke-linecap:round;stroke-linejoin:round;stroke-miterlimit:17;paint-order:markers fill stroke"
       d="m 273.92695,267.93973 -2.99361,2.99361 47.89165,47.89165 -0.004,0.003 19.84531,19.84531 -10e-6,-5.98724 -16.84858,-16.84807 0.004,-0.004 z" />
    <path
       id="rect82"
       style="fill:#7092be;stroke-width:2.52759;stroke-linecap:round;stroke-linejoin:round;stroke-miterlimit:17;paint-order:markers fill stroke"
       d="m 406.40002,348.57888 -67.73334,-9.91219 v 67.73333 h 67.73334 z"
       sodipodi:nodetypes="ccccc" />
    <path
       id="path80"
       style="display:inline;opacity:1;fill:#25944b;fill-opacity:1;stroke-width:2.117;stroke-linecap:round;stroke-linejoin:round;stroke-miterlimit:17;paint-order:markers fill stroke"
       d="m 350.4184,324.72386 -9.02528,10.34666 -2.72645,-2.38435 v 5.51025 0.47026 0.007 l 5.2002,5.19968 c 15.96026,15.96027 15.94741,15.96027 39.90764,15.96027 H 406.4 v -4.23334 h -22.62549 v -8.46666 h 5.21467 0.77204 v -4.23334 h -0.77204 -5.21467 c -15.20281,0 -14.9665,0.21398 -25.39639,-10.21591 z" />
    <path
       id="path81"
       style="display:inline;opacity:1;fill:#22b14c;fill-opacity:1;stroke-width:2.117;stroke-linecap:round;stroke-linejoin:round;stroke-miterlimit:17;paint-order:markers fill stroke"
       d="m 338.66667,308.73259 v 23.94686 c 2.31905,2.32098 4.63966,4.6404 6.95978,6.9603 15.96028,15.96028 15.94739,15.96026 39.90764,15.96026 H 406.4 v -16.93333 h -20.86591 c -16.9335,0 -16.93366,1.8e-4 -25.39638,-8.46253 z"
       sodipodi:nodetypes="cccsccscc" />
    <rect
       style="fill:#7092be;fill-opacity:1;stroke-width:2.73567;stroke-linecap:round;stroke-linejoin:round;stroke-miterlimit:17;paint-order:markers fill stroke"
       id="rect83"
       width="67.73333"
       height="67.733337"
       x="6.9627235e-06"
       y="135.46667"
       ry="0" />
    <path
       id="rect84"
       style="fill:#25944b;fill-opacity:1;stroke-width:2.26913;stroke-linecap:round;stroke-linejoin:round;stroke-miterlimit:17;paint-order:markers fill stroke"
       d="m -2.0069015e-5,139.7 v 16.93333 H 25.39998 c 4.69053,0 8.466672,-3.77613 8.466672,-8.46666 0,-4.69053 -3.776142,-8.46667 -8.466672,-8.46667 z" />
    <path
       id="rect85"
       style="fill:#22b14c;fill-opacity:1;stroke-width:2.26913;stroke-linecap:round;stroke-linejoin:round;stroke-miterlimit:17;paint-order:markers fill stroke"
       d="M -2.0069015e-5,135.46667 V 152.4 H 25.39998 c 4.69053,0 8.466672,-3.77614 8.466672,-8.46667 0,-4.69053 -3.776142,-8.46666 -8.466672,-8.46666 z" />
    <rect
       style="fill:#7092be;fill-opacity:1;stroke-width:2.73567;stroke-linecap:round;stroke-linejoin:round;stroke-miterlimit:17;paint-order:markers fill stroke"
       id="rect87"
       width="67.73333"
       height="67.733337"
       x="-135.46666"
       y="135.46667"
       ry="0"
       transform="scale(-1,1)" />
    <path
       id="path87"
       style="fill:#25944b;fill-opacity:1;stroke-width:2.26913;stroke-linecap:round;stroke-linejoin:round;stroke-miterlimit:17;paint-order:markers fill stroke"
       d="m 135.46665,139.69998 v 16.93333 h -25.4 c -4.69053,0 -8.46667,-3.77613 -8.46667,-8.46666 0,-4.69053 3.77614,-8.46667 8.46667,-8.46667 z" />
    <path
       id="path88"
       style="fill:#22b14c;fill-opacity:1;stroke-width:2.26913;stroke-linecap:round;stroke-linejoin:round;stroke-miterlimit:17;paint-order:markers fill stroke"
       d="m 135.46665,135.46665 v 16.93333 h -25.4 c -4.69053,0 -8.46667,-3.77614 -8.46667,-8.46667 0,-4.69053 3.77614,-8.46666 8.46667,-8.46666 z" />
    <rect
       style="fill:#7092be;fill-opacity:1;stroke-width:2.55899;stroke-linecap:round;stroke-linejoin:round;stroke-miterlimit:17;paint-order:markers fill stroke"
       id="rect88"
       width="59.266678"
       height="67.733337"
       x="135.46667"
       y="67.733337"
       ry="0" />
    <path
       id="path89"
       style="fill:#7092be;stroke-width:2.52759;stroke-linecap:round;stroke-linejoin:round;stroke-miterlimit:17;paint-order:markers fill stroke"
       d="m 163.85698,230.56913 39.34304,-17.45692 v 57.82114 h -67.73335 z"
       sodipodi:nodetypes="ccccc" />
    <path
       id="path90"
       style="display:inline;opacity:1;fill:#25944b;fill-opacity:1;stroke-width:2.117;stroke-linecap:round;stroke-linejoin:round;stroke-miterlimit:17;paint-order:markers fill stroke"
       d="m 197.21331,207.43334 v 12.7 h 5.21466 0.77205 v 4.23334 h -0.77205 -5.21466 c -15.20284,-1e-5 -14.96647,-0.21401 -25.39639,10.21591 l -7.95972,7.96024 -11.97394,-13.72733 5.4224,-5.42189 c 15.96032,-15.96033 15.94736,-15.96027 39.90765,-15.96027 z" />
    <path
       id="path91"
       style="fill:#22b14c;fill-opacity:1;stroke-width:4.48213;stroke-linecap:round;stroke-linejoin:round;stroke-miterlimit:17;paint-order:markers fill stroke"
       d="m 151.88323,224.58216 11.97395,11.97396 -34.37723,34.37723 -23.94789,-1e-5 z" />
    <path
       id="path92"
       style="display:inline;opacity:1;fill:#22b14c;fill-opacity:1;stroke-width:2.117;stroke-linecap:round;stroke-linejoin:round;stroke-miterlimit:17;paint-order:markers fill stroke"
       d="m 203.20002,203.20001 v 16.93333 h -0.77205 -5.21466 c -16.93354,0 -16.93365,-2e-4 -25.39639,8.46253 l -7.95972,7.96025 -11.97394,-11.97395 5.4224,-5.4219 c 15.96032,-15.96032 15.94736,-15.96026 39.90765,-15.96026 h 5.21466 z" />
    <path
       id="path93"
       style="fill:#25944b;fill-opacity:1;stroke-width:4.37091;stroke-linecap:round;stroke-linejoin:round;stroke-miterlimit:17;paint-order:markers fill stroke"
       d="m 163.85718,236.55612 2.9931,2.9931 -31.38361,31.38413 h -5.98672 z" />
    <path
       id="path94"
       style="display:inline;fill:#22b14c;fill-opacity:1;stroke-width:4.48213;stroke-linecap:round;stroke-linejoin:round;stroke-miterlimit:17;paint-order:markers fill stroke"
       d="m 117.50603,258.95992 11.97394,11.97343 -47.89475,47.89423 -5.2e-4,5.2e-4 -13.85135,13.85135 v -23.94686 l 1.87844,-1.87844 z" />
    <path
       style="opacity:1;fill:#7092be;fill-opacity:1;stroke-width:2.117;stroke-linecap:round;stroke-linejoin:round;stroke-miterlimit:17;paint-order:markers fill stroke"
       d="m 135.46666,270.93335 c -27.12804,20.7184 -51.85143,42.41942 -67.73333,67.73334 h 67.73333 z"
       id="path95"
       sodipodi:nodetypes="cccc" />
    <path
       id="path96"
       style="display:inline;fill:#25944b;fill-opacity:1;stroke-width:4.37091;stroke-linecap:round;stroke-linejoin:round;stroke-miterlimit:17;paint-order:markers fill stroke"
       d="m 132.47307,267.93973 2.99361,2.99361 -47.89165,47.89165 0.004,0.003 -19.84531,19.84531 10e-6,-5.98724 16.84858,-16.84807 -0.004,-0.004 z" />
    <path
       id="path98"
       style="fill:#7092be;stroke-width:2.52759;stroke-linecap:round;stroke-linejoin:round;stroke-miterlimit:17;paint-order:markers fill stroke"
       d="m 0,348.57888 67.73334,-9.91219 v 67.73333 H 0 Z"
       sodipodi:nodetypes="ccccc" />
    <path
       id="path99"
       style="display:inline;opacity:1;fill:#25944b;fill-opacity:1;stroke-width:2.117;stroke-linecap:round;stroke-linejoin:round;stroke-miterlimit:17;paint-order:markers fill stroke"
       d="m 55.98162,324.72386 9.02528,10.34666 2.72645,-2.38435 v 5.51025 0.47026 0.007 l -5.2002,5.19968 C 46.57289,359.83363 46.58574,359.83363 22.62551,359.83363 H 2e-5 v -4.23334 h 22.62549 v -8.46666 H 17.41084 16.6388 v -4.23334 h 0.77204 5.21467 c 15.20281,0 14.9665,0.21398 25.39639,-10.21591 z" />
    <path
       id="path100"
       style="display:inline;opacity:1;fill:#22b14c;fill-opacity:1;stroke-width:2.117;stroke-linecap:round;stroke-linejoin:round;stroke-miterlimit:17;paint-order:markers fill stroke"
       d="m 67.73335,308.73259 v 23.94686 c -2.31905,2.32098 -4.63966,4.6404 -6.95978,6.9603 -15.96028,15.96028 -15.94739,15.96026 -39.90764,15.96026 H 2e-5 v -16.93333 h 20.86591 c 16.9335,0 16.93366,1.8e-4 25.39638,-8.46253 z"
       sodipodi:nodetypes="cccsccscc" />
    <rect
       style="fill:#7092be;fill-opacity:1;stroke-width:2.73568;stroke-linecap:round;stroke-linejoin:round;stroke-miterlimit:17;paint-order:markers fill stroke"
       id="rect100"
       width="67.733353"
       height="67.733337"
       x="67.733337"
       y="67.733337"
       ry="0" />
    <rect
       style="fill:#7092be;fill-opacity:1;stroke-width:2.52759;stroke-linecap:round;stroke-linejoin:round;stroke-miterlimit:17;paint-order:markers fill stroke"
       id="rect101"
       width="67.733345"
       height="57.82114"
       x="-406.40002"
       y="213.11221"
       ry="0"
       transform="scale(-1,1)" />
    <rect
       style="fill:#22b14c;fill-opacity:1;stroke-width:4.48213;stroke-linecap:round;stroke-linejoin:round;stroke-miterlimit:17;paint-order:markers fill stroke"
       id="rect102"
       width="67.733353"
       height="16.933332"
       x="-406.40002"
       y="203.20003"
       ry="0"
       transform="scale(-1,1)" />
    <rect
       style="fill:#25944b;fill-opacity:1;stroke-width:4.37091;stroke-linecap:round;stroke-linejoin:round;stroke-miterlimit:17;paint-order:markers fill stroke"
       id="rect103"
       width="67.733337"
       height="4.2333326"
       x="-406.40002"
       y="220.13336"
       transform="scale(-1,1)" />
    <rect
       style="opacity:1;fill:#141f2d;fill-opacity:1;stroke-width:2.117;stroke-linecap:round;stroke-linejoin:round;stroke-miterlimit:17;paint-order:markers fill stroke"
       id="rect104"
       width="18.917707"
       height="9.9121857"
       x="363.07452"
       y="203.20001"
       ry="4.9560928" />
    <rect
       style="opacity:1;fill:#141f2d;fill-opacity:1;stroke-width:2.117;stroke-linecap:round;stroke-linejoin:round;stroke-miterlimit:17;paint-order:markers fill stroke"
       id="rect105"
       width="18.917709"
       height="4.9560928"
       x="363.07452"
       y="203.20001"
       ry="0" />
    <rect
       style="opacity:1;fill:#7d5837;fill-opacity:1;stroke-width:2.09458;stroke-linecap:round;stroke-linejoin:round;stroke-miterlimit:17;paint-order:markers fill stroke"
       id="rect106"
       width="8.4666615"
       height="135.46667"
       x="381.99225"
       y="67.73333"
       ry="4.2333307" />
    <rect
       style="opacity:1;fill:#7d5837;fill-opacity:1;stroke-width:2.09458;stroke-linecap:round;stroke-linejoin:round;stroke-miterlimit:17;paint-order:markers fill stroke"
       id="rect107"
       width="8.4666662"
       height="10.781784"
       x="381.99225"
       y="192.41823"
       ry="0" />
    <path
       sodipodi:type="star"
       style="opacity:1;fill:#e11e3e;fill-opacity:1;stroke-width:2.117;stroke-linecap:round;stroke-linejoin:round;stroke-miterlimit:17;paint-order:markers fill stroke"
       id="path107"
       inkscape:flatsided="true"
       sodipodi:sides="3"
       sodipodi:cx="284.16251"
       sodipodi:cy="96.043747"
       sodipodi:r1="30.225101"
       sodipodi:r2="15.112549"
       sodipodi:arg1="0.52359878"
       sodipodi:arg2="1.5707963"
       inkscape:rounded="1.0408341e-17"
       inkscape:randomized="0"
       d="m 310.33821,111.1563 -52.35141,0 26.17571,-45.337655 z"
       inkscape:transform-center-x="6.3095899"
       inkscape:transform-center-y="1.2820965e-05"
       transform="matrix(0,-0.46553243,0.8350136,0,289.17523,218.63531)" />
    <rect
       style="fill:#7092be;fill-opacity:1;stroke-width:2.52759;stroke-linecap:round;stroke-linejoin:round;stroke-miterlimit:17;paint-order:markers fill stroke"
       id="rect126"
       width="67.733345"
       height="57.82114"
       x="-270.93335"
       y="9.9122"
       ry="0"
       transform="scale(-1,1)" />
    <rect
       style="fill:#22b14c;fill-opacity:1;stroke-width:4.48213;stroke-linecap:round;stroke-linejoin:round;stroke-miterlimit:17;paint-order:markers fill stroke"
       id="rect127"
       width="67.733353"
       height="16.933332"
       x="-270.93335"
       y="1.4592125e-05"
       ry="0"
       transform="scale(-1,1)" />
    <rect
       style="fill:#25944b;fill-opacity:1;stroke-width:4.37091;stroke-linecap:round;stroke-linejoin:round;stroke-miterlimit:17;paint-order:markers fill stroke"
       id="rect128"
       width="67.733337"
       height="4.2333326"
       x="-270.93335"
       y="16.93335"
       transform="scale(-1,1)" />
    <rect
       style="fill:#7092be;fill-opacity:1;stroke-width:2.52759;stroke-linecap:round;stroke-linejoin:round;stroke-miterlimit:17;paint-order:markers fill stroke"
       id="rect129"
       width="67.733345"
       height="57.82114"
       x="-338.66669"
       y="9.9122"
       ry="0"
       transform="scale(-1,1)" />
    <rect
       style="fill:#22b14c;fill-opacity:1;stroke-width:4.48213;stroke-linecap:round;stroke-linejoin:round;stroke-miterlimit:17;paint-order:markers fill stroke"
       id="rect130"
       width="67.733353"
       height="16.933332"
       x="-338.66669"
       y="1.4592125e-05"
       ry="0"
       transform="scale(-1,1)" />
    <rect
       style="fill:#25944b;fill-opacity:1;stroke-width:4.37091;stroke-linecap:round;stroke-linejoin:round;stroke-miterlimit:17;paint-order:markers fill stroke"
       id="rect131"
       width="67.733337"
       height="4.2333326"
       x="-338.66669"
       y="16.93335"
       transform="scale(-1,1)" />
    <rect
       style="fill:#25944b;fill-opacity:1;stroke-width:2.11664;stroke-linecap:round;stroke-linejoin:round;stroke-miterlimit:17;paint-order:markers fill stroke"
       id="rect110"
       width="58.935425"
       height="16.933332"
       x="-61.410255"
       y="-237.06668"
       ry="8.4666662"
       transform="matrix(0,-1,-1,0,0,0)" />
    <rect
       style="fill:#25944b;fill-opacity:1;stroke-width:2.11664;stroke-linecap:round;stroke-linejoin:round;stroke-miterlimit:17;paint-order:markers fill stroke"
       id="rect111"
       width="41.438969"
       height="16.933334"
       x="-43.913803"
       y="-254"
       ry="8.4666662"
       transform="matrix(0,-1,-1,0,0,0)" />
    <rect
       style="fill:#22b14c;fill-opacity:1;stroke-width:2.11664;stroke-linecap:round;stroke-linejoin:round;stroke-miterlimit:17;paint-order:markers fill stroke"
       id="rect108"
       width="58.935425"
       height="16.933332"
       x="-58.93544"
       y="-237.06668"
       ry="8.4666662"
       transform="matrix(0,-1,-1,0,0,0)" />
    <rect
       style="fill:#22b14c;fill-opacity:1;stroke-width:2.11664;stroke-linecap:round;stroke-linejoin:round;stroke-miterlimit:17;paint-order:markers fill stroke"
       id="rect109"
       width="41.438969"
       height="16.933334"
       x="-41.438984"
       y="-254"
       ry="8.4666672"
       transform="matrix(0,-1,-1,0,0,0)" />
    <rect
       style="fill:#25944b;fill-opacity:1;stroke-width:2.11664;stroke-linecap:round;stroke-linejoin:round;stroke-miterlimit:17;paint-order:markers fill stroke"
       id="rect113"
       width="58.935425"
       height="16.933332"
       x="-61.410255"
       y="-313.26669"
       ry="8.4666662"
       transform="matrix(0,-1,-1,0,0,0)" />
    <rect
       style="fill:#25944b;fill-opacity:1;stroke-width:2.11664;stroke-linecap:round;stroke-linejoin:round;stroke-miterlimit:17;paint-order:markers fill stroke"
       id="rect114"
       width="41.438969"
       height="16.933334"
       x="-43.913803"
       y="-296.33337"
       ry="8.4666662"
       transform="matrix(0,-1,-1,0,0,0)" />
    <rect
       style="fill:#22b14c;fill-opacity:1;stroke-width:2.11664;stroke-linecap:round;stroke-linejoin:round;stroke-miterlimit:17;paint-order:markers fill stroke"
       id="rect115"
       width="58.935425"
       height="16.933332"
       x="-58.93544"
       y="-313.26669"
       ry="8.4666662"
       transform="matrix(0,-1,-1,0,0,0)" />
    <rect
       style="fill:#22b14c;fill-opacity:1;stroke-width:2.11664;stroke-linecap:round;stroke-linejoin:round;stroke-miterlimit:17;paint-order:markers fill stroke"
       id="rect116"
       width="41.438969"
       height="16.933334"
       x="-41.438984"
       y="-296.33337"
       ry="8.4666672"
       transform="matrix(0,-1,-1,0,0,0)" />
    <rect
       style="fill:#25944b;fill-opacity:1;stroke-width:1.85835;stroke-linecap:round;stroke-linejoin:round;stroke-miterlimit:17;paint-order:markers fill stroke"
       id="rect117"
       width="31.942528"
       height="16.933334"
       x="-33.850216"
       y="-330.20004"
       ry="8.4666662"
       transform="matrix(0,-1,-1,0,0,0)" />
    <rect
       style="fill:#22b14c;fill-opacity:1;stroke-width:1.85835;stroke-linecap:round;stroke-linejoin:round;stroke-miterlimit:17;paint-order:markers fill stroke"
       id="rect118"
       width="31.942528"
       height="16.933334"
       x="-31.942543"
       y="-330.20004"
       ry="8.4666672"
       transform="matrix(0,-1,-1,0,0,0)" />
    <path
       id="rect120"
       style="opacity:1;fill:#25944b;fill-opacity:1;stroke-width:1.93659;stroke-linecap:round;stroke-linejoin:round;stroke-miterlimit:17;paint-order:markers fill stroke"
       d="m 312.1949,109.00784 c -1.55471,0 -2.80655,1.44445 -2.80655,2.74546 v 23.0872 c 0,0.21742 0.0379,0.42662 0.10335,0.62617 h 5.40587 c 0.0655,-0.19955 0.10335,-0.40875 0.10335,-0.62617 v -23.0872 c 0,-1.30101 -1.25132,-2.74546 -2.80602,-2.74546 z"
       sodipodi:nodetypes="sssccsss" />
    <path
       id="rect121"
       style="opacity:1;fill:#25944b;fill-opacity:1;stroke-width:1.66779;stroke-linecap:round;stroke-linejoin:round;stroke-miterlimit:17;paint-order:markers fill stroke"
       d="m 320.8941,116.28797 c -1.5547,0 -2.80603,1.44444 -2.80603,2.74545 v 15.80708 c 0,0.21742 0.0379,0.42662 0.10336,0.62617 h 5.40587 c 0.0655,-0.19955 0.10335,-0.40875 0.10335,-0.62617 v -15.80708 c 0,-1.30101 -1.25184,-2.74545 -2.80655,-2.74545 z"
       sodipodi:nodetypes="sssccsss" />
    <path
       id="path124"
       style="opacity:1;fill:#25944b;fill-opacity:1;stroke-width:1.36196;stroke-linecap:round;stroke-linejoin:round;stroke-miterlimit:17;paint-order:markers fill stroke"
       d="m 225.79398,123.58678 c -1.55471,0 -2.80655,1.25132 -2.80655,2.80603 v 8.32559 c 0,0.25979 0.0379,0.50984 0.10335,0.74827 h 5.40639 c 0.0655,-0.23843 0.10284,-0.48848 0.10284,-0.74827 v -8.32559 c 0,-1.55471 -1.25133,-2.80603 -2.80603,-2.80603 z" />
    <path
       id="path125"
       style="opacity:1;fill:#25944b;fill-opacity:1;stroke-width:2.117;stroke-linecap:round;stroke-linejoin:round;stroke-miterlimit:17;paint-order:markers fill stroke"
       d="m 234.4937,103.84845 c -1.5547,0 -2.80654,1.25184 -2.80654,2.80655 v 28.0634 c 0,0.25982 0.0379,0.50981 0.10335,0.74827 h 5.40587 c 0.0655,-0.23846 0.10335,-0.48845 0.10335,-0.74827 V 106.655 c 0,-1.55471 -1.25132,-2.80655 -2.80603,-2.80655 z" />
    <path
       id="path126"
       style="opacity:1;fill:#25944b;fill-opacity:1;stroke-width:1.82316;stroke-linecap:round;stroke-linejoin:round;stroke-miterlimit:17;paint-order:markers fill stroke"
       d="m 243.19291,112.54818 c -1.5547,0 -2.80603,1.25184 -2.80603,2.80654 v 19.36368 c 0,0.25982 0.0379,0.50981 0.10336,0.74827 h 5.40587 c 0.0655,-0.23846 0.10335,-0.48845 0.10335,-0.74827 v -19.36368 c 0,-1.5547 -1.25184,-2.80654 -2.80655,-2.80654 z" />
    <path
       style="fill:#7092be;fill-opacity:1;stroke-width:2.117;stroke-linecap:round;stroke-linejoin:round;stroke-miterlimit:17;paint-order:markers fill stroke"
       d="m 194.73334,338.66668 -59.26667,59.26667 v -59.26667 z"
       id="path9" />
    <path
       style="fill:#7092be;fill-opacity:1;stroke-width:2.117;stroke-linecap:round;stroke-linejoin:round;stroke-miterlimit:17;paint-order:markers fill stroke"
       d="m 135.46671,397.93335 -8.46669,8.46667 H 67.733337 v -67.73334 h 67.733373 z"
       id="path10" />
    <path
       style="fill:#7092be;fill-opacity:1;stroke-width:2.117;stroke-linecap:round;stroke-linejoin:round;stroke-miterlimit:17;paint-order:markers fill stroke"
       d="m 211.66667,338.6733 59.26667,59.26667 V 338.6733 Z"
       id="path12" />
    <path
       style="fill:#7092be;fill-opacity:1;stroke-width:2.117;stroke-linecap:round;stroke-linejoin:round;stroke-miterlimit:17;paint-order:markers fill stroke"
       d="m 270.93332,397.93335 8.46669,8.46667 h 59.26667 v -67.73334 h -67.73336 z"
       id="path13" />
  </g>
</svg>
