<?xml version="1.0" encoding="UTF-8" standalone="no"?>
<!-- Created with Inkscape (http://www.inkscape.org/) -->

<svg
   width="256"
   height="256"
   viewBox="0 0 67.733334 67.733334"
   version="1.1"
   id="svg1"
   sodipodi:docname="CannonBuildingArt.svg"
   inkscape:version="1.3 (0e150ed6c4, 2023-07-21)"
   inkscape:export-filename="CannonBuildingSprite.png"
   inkscape:export-xdpi="96"
   inkscape:export-ydpi="96"
   xml:space="preserve"
   xmlns:inkscape="http://www.inkscape.org/namespaces/inkscape"
   xmlns:sodipodi="http://sodipodi.sourceforge.net/DTD/sodipodi-0.dtd"
   xmlns="http://www.w3.org/2000/svg"
   xmlns:svg="http://www.w3.org/2000/svg"><sodipodi:namedview
     id="namedview1"
     pagecolor="#000000"
     bordercolor="#000000"
     borderopacity="0.25"
     inkscape:showpageshadow="false"
     inkscape:pageopacity="0.0"
     inkscape:pagecheckerboard="true"
     inkscape:deskcolor="#d1d1d1"
     inkscape:document-units="mm"
     inkscape:zoom="0.59454975"
     inkscape:cx="402.82584"
     inkscape:cy="335.54803"
     inkscape:window-width="1858"
     inkscape:window-height="1057"
     inkscape:window-x="54"
     inkscape:window-y="-8"
     inkscape:window-maximized="1"
     inkscape:current-layer="layer1"
     showgrid="true"><inkscape:grid
       id="grid1"
       units="px"
       originx="0"
       originy="0"
       spacingx="67.733334"
       spacingy="67.733334"
       empcolor="#0099e5"
       empopacity="0.30196078"
       color="#0099e5"
       opacity="0.14901961"
       empspacing="5"
       dotted="false"
       gridanglex="30"
       gridanglez="30"
       visible="true" /></sodipodi:namedview><defs
     id="defs1"><inkscape:path-effect
       effect="skeletal"
       id="path-effect9"
       is_visible="true"
       lpeversion="1"
       pattern="M 0,4.9921384 C 0,2.236478 2.236478,0 4.9921384,0 c 2.7556604,0 4.9921384,2.236478 4.9921384,4.9921384 0,2.7556604 -2.236478,4.9921384 -4.9921384,4.9921384 C 2.236478,9.9842768 0,7.7477988 0,4.9921384 Z"
       copytype="single_stretched"
       prop_scale="0.5"
       scale_y_rel="false"
       spacing="0"
       normal_offset="0"
       tang_offset="0"
       prop_units="false"
       vertical_pattern="false"
       hide_knot="false"
       fuse_tolerance="0" /><inkscape:path-effect
       effect="skeletal"
       id="path-effect8"
       is_visible="true"
       lpeversion="1"
       pattern="M 0,4.9921384 C 0,2.236478 2.236478,0 4.9921384,0 c 2.7556604,0 4.9921384,2.236478 4.9921384,4.9921384 0,2.7556604 -2.236478,4.9921384 -4.9921384,4.9921384 C 2.236478,9.9842768 0,7.7477988 0,4.9921384 Z"
       copytype="single_stretched"
       prop_scale="0.5"
       scale_y_rel="false"
       spacing="0"
       normal_offset="0"
       tang_offset="0"
       prop_units="false"
       vertical_pattern="false"
       hide_knot="false"
       fuse_tolerance="0" /></defs><g
     inkscape:label="Layer 1"
     inkscape:groupmode="layer"
     id="layer1"><circle
       style="fill:#303c49;fill-opacity:1;stroke:none;stroke-width:5.56775;stroke-linecap:round;stroke-linejoin:round;stroke-miterlimit:17"
       id="path1"
       cx="20.192539"
       cy="47.540798"
       r="20.192539" /><rect
       style="fill:#303c49;fill-opacity:1;stroke:none;stroke-width:4.97237;stroke-linecap:round;stroke-linejoin:round;stroke-miterlimit:17"
       id="rect1"
       width="12.015395"
       height="33.153591"
       x="15.385981"
       y="31.317905"
       ry="2.2568145"
       transform="rotate(-45)" /><path
       style="fill:#303c49;fill-opacity:1;stroke:none;stroke-width:4.23333;stroke-linecap:round;stroke-linejoin:round;stroke-miterlimit:17"
       d="M 8.422149,31.133588 36.515147,12.238701 55.557824,31.67472 36.732161,59.124387 Z"
       id="path2"
       sodipodi:nodetypes="ccccc" /><circle
       style="fill:#303c49;fill-opacity:1;stroke:none;stroke-width:6.02411;stroke-linecap:round;stroke-linejoin:round;stroke-miterlimit:17"
       id="circle2"
       cx="87.255814"
       cy="40.614326"
       r="21.84762"
       transform="matrix(0.99812012,0.06128808,0.06128808,0.99812012,0,0)" /><rect
       style="fill:#303c49;fill-opacity:1;stroke:none;stroke-width:4.97237;stroke-linecap:round;stroke-linejoin:round;stroke-miterlimit:17"
       id="rect2"
       width="12.015395"
       height="33.153591"
       x="56.722595"
       y="79.212608"
       ry="2.2568145"
       transform="rotate(-45)" /><path
       style="fill:#303c49;fill-opacity:1;stroke:none;stroke-width:4.23333;stroke-linecap:round;stroke-linejoin:round;stroke-miterlimit:17"
       d="m 79.462602,27.826471 c 6.81781,-3.684508 15.662531,-4.976511 20.360871,-11.162757 l 19.042677,19.436015 c -6.26064,3.31643 -7.44473,13.082725 -11.09354,19.71754 z"
       id="path3"
       sodipodi:nodetypes="ccccc" /><circle
       style="fill:#303c49;fill-opacity:1;stroke:none;stroke-width:5.07313;stroke-linecap:round;stroke-linejoin:round;stroke-miterlimit:17"
       id="circle3"
       cx="161.54579"
       cy="66.390076"
       r="18.398695"
       transform="matrix(0.99470246,-0.10279599,-0.10279599,0.99470246,0,0)" /><rect
       style="fill:#303c49;fill-opacity:1;stroke:none;stroke-width:4.48251;stroke-linecap:round;stroke-linejoin:round;stroke-miterlimit:17"
       id="rect3"
       width="12.015395"
       height="26.943001"
       x="112.46345"
       y="130.28149"
       ry="1.8340503"
       transform="rotate(-45)" /><path
       style="fill:#303c49;fill-opacity:1;stroke:none;stroke-width:3.81628;stroke-linecap:round;stroke-linejoin:round;stroke-miterlimit:17"
       d="M 144.73418,35.664117 175.5844,12.288954 191.02301,28.120912 167.77084,58.38156 Z"
       id="path4"
       sodipodi:nodetypes="ccccc" /><path
       style="fill:#d5dfe3;fill-opacity:1;stroke:#d5dfe3;stroke-width:4.23333;stroke-linecap:round;stroke-linejoin:round;stroke-miterlimit:17;stroke-opacity:1"
       d="m 10.53876,115.3256 9.4313,-16.039418 c 0,0 -1.7307,11.092198 -0.78669,9.282838 0.94402,-1.80935 40.43547,-36.030039 40.43547,-36.030039 L 29.6149,112.97444 53.64005,103.6916 20.92297,125.7098 Z"
       id="path10" /><path
       style="fill:#d5dfe3;fill-opacity:1;stroke:#d5dfe3;stroke-width:4.23333;stroke-linecap:round;stroke-linejoin:round;stroke-miterlimit:17;stroke-opacity:1"
       d="m 81.657874,111.09561 c 0,0 -2.2453,-21.712427 1.10136,-23.757797 3.34666,-2.04538 20.453716,-4.56276 20.768416,2.04537 0.31467,6.60813 21.86974,-12.34233 21.86974,-12.34233 l -19.82438,27.761297 c 0,0 18.40836,-3.19257 17.93634,4.56276 -0.47199,7.75532 -1.57334,16.29186 -15.89098,16.29186 -14.317606,0 -14.989516,-3.23294 -18.250976,-4.17696 -3.2615,-0.94402 -7.70952,-10.3842 -7.70952,-10.3842 z"
       id="path11" /><path
       style="fill:#d5dfe3;fill-opacity:1;stroke:#d5dfe3;stroke-width:4.23333;stroke-linecap:round;stroke-linejoin:round;stroke-miterlimit:17;stroke-opacity:1"
       d="m 154.96293,84.235601 c -2.44758,-1.33505 -3.7262,-2.8926 -4.97821,0 -1.25198,2.89259 -5.92466,0 -1.25198,6.89772 4.67264,6.89773 3.5601,11.792889 5.11765,12.015399 1.55755,0.2225 5.11767,0.44501 6.23022,-5.340179 1.11252,-5.78519 -5.11768,-13.57294 -5.11768,-13.57294 z"
       id="path13" /><path
       style="fill:#d5dfe3;fill-opacity:1;stroke:#d5dfe3;stroke-width:4.23333;stroke-linecap:round;stroke-linejoin:round;stroke-miterlimit:17;stroke-opacity:1"
       d="m 189.45156,112.54486 c -5.34017,0 -6.6752,-2.39675 -8.67778,0 -2.00255,2.39674 -3.5601,-2.03051 -3.33762,3.74323 0.22252,5.77375 12.68294,11.07682 15.35301,8.53654 2.67009,-2.54028 3.1151,-7.3776 3.1151,-7.3776 z"
       id="path14" /><path
       style="fill:#d5dfe3;fill-opacity:1;stroke:#d5dfe3;stroke-width:4.23333;stroke-linecap:round;stroke-linejoin:round;stroke-miterlimit:17;stroke-opacity:1"
       d="m 178.77123,76.208711 c -4.67268,5.5793 -7.86453,4.68928 -3.48727,8.91691 4.37727,4.22764 5.93485,9.79033 9.93998,4.22764 4.00513,-5.56268 0.89003,-15.26006 0,-15.26006 -0.89004,0 -6.45271,2.11551 -6.45271,2.11551 z"
       id="path15" /></g></svg>
