<?xml version="1.0" encoding="UTF-8" standalone="no"?>
<!-- Created with Inkscape (http://www.inkscape.org/) -->

<svg
   width="256"
   height="256"
   viewBox="0 0 67.733334 67.733334"
   version="1.1"
   id="svg1"
   sodipodi:docname="BunkerBuildingArt.svg"
   inkscape:version="1.3 (0e150ed6c4, 2023-07-21)"
   inkscape:export-filename="BunkerBuildingSprite.png"
   inkscape:export-xdpi="96"
   inkscape:export-ydpi="96"
   xml:space="preserve"
   xmlns:inkscape="http://www.inkscape.org/namespaces/inkscape"
   xmlns:sodipodi="http://sodipodi.sourceforge.net/DTD/sodipodi-0.dtd"
   xmlns="http://www.w3.org/2000/svg"
   xmlns:svg="http://www.w3.org/2000/svg"><sodipodi:namedview
     id="namedview1"
     pagecolor="#000000"
     bordercolor="#000000"
     borderopacity="0.25"
     inkscape:showpageshadow="false"
     inkscape:pageopacity="0.0"
     inkscape:pagecheckerboard="true"
     inkscape:deskcolor="#d1d1d1"
     inkscape:document-units="mm"
     inkscape:zoom="0.42041016"
     inkscape:cx="224.78049"
     inkscape:cy="13.082462"
     inkscape:window-width="1858"
     inkscape:window-height="1057"
     inkscape:window-x="54"
     inkscape:window-y="-8"
     inkscape:window-maximized="1"
     inkscape:current-layer="layer1"
     showgrid="true"><inkscape:grid
       id="grid1"
       units="px"
       originx="0"
       originy="0"
       spacingx="67.733334"
       spacingy="67.733334"
       empcolor="#0099e5"
       empopacity="0.30196078"
       color="#0099e5"
       opacity="0.14901961"
       empspacing="5"
       dotted="false"
       gridanglex="30"
       gridanglez="30"
       visible="true" /></sodipodi:namedview><defs
     id="defs1"><inkscape:path-effect
       effect="skeletal"
       id="path-effect9"
       is_visible="true"
       lpeversion="1"
       pattern="M 0,4.9921384 C 0,2.236478 2.236478,0 4.9921384,0 c 2.7556604,0 4.9921384,2.236478 4.9921384,4.9921384 0,2.7556604 -2.236478,4.9921384 -4.9921384,4.9921384 C 2.236478,9.9842768 0,7.7477988 0,4.9921384 Z"
       copytype="single_stretched"
       prop_scale="0.5"
       scale_y_rel="false"
       spacing="0"
       normal_offset="0"
       tang_offset="0"
       prop_units="false"
       vertical_pattern="false"
       hide_knot="false"
       fuse_tolerance="0" /><inkscape:path-effect
       effect="skeletal"
       id="path-effect8"
       is_visible="true"
       lpeversion="1"
       pattern="M 0,4.9921384 C 0,2.236478 2.236478,0 4.9921384,0 c 2.7556604,0 4.9921384,2.236478 4.9921384,4.9921384 0,2.7556604 -2.236478,4.9921384 -4.9921384,4.9921384 C 2.236478,9.9842768 0,7.7477988 0,4.9921384 Z"
       copytype="single_stretched"
       prop_scale="0.5"
       scale_y_rel="false"
       spacing="0"
       normal_offset="0"
       tang_offset="0"
       prop_units="false"
       vertical_pattern="false"
       hide_knot="false"
       fuse_tolerance="0" /></defs><g
     inkscape:label="Layer 1"
     inkscape:groupmode="layer"
     id="layer1"><g
       id="g7"
       transform="translate(60.67541,-231.45825)"><path
         style="fill:#f4b350;fill-opacity:1;stroke-width:4.23333;stroke-linecap:round;stroke-linejoin:round;stroke-miterlimit:17;stroke-opacity:0.448077"
         d="m 66.52178,270.93336 c 2.545844,-0.88227 10.47939,-9.59269 18.289351,-10.65437 18.707439,-2.5431 32.265019,-18.24654 45.113279,-20.02626 l 5.47127,30.68061 -65.054068,13.42498 z"
         id="path3"
         sodipodi:nodetypes="cscccc" /><path
         id="path4"
         style="fill:#eba44a;fill-opacity:1;stroke-width:4.23333;stroke-linecap:round;stroke-linejoin:round;stroke-miterlimit:17;stroke-opacity:0.448077"
         d="m 129.92441,240.25273 c -11.38411,0.21017 -28.33182,17.74475 -45.113358,20.02603 -1.039477,0.1413 -2.127058,0.44184 -3.230109,0.84267 21.174447,-5.61166 -0.910872,8.01128 6.33305,6.60917 12.158677,-2.35341 28.879697,-10.65786 29.435957,-16.10928 0.55463,-5.43533 12.50508,-11.30506 12.57446,-11.36859 z"
         sodipodi:nodetypes="cscssc" /></g><g
       id="g6"
       transform="matrix(-1,0,0,1,136.61626,-225.32235)"><path
         style="fill:#f4b350;fill-opacity:1;stroke-width:4.23333;stroke-linecap:round;stroke-linejoin:round;stroke-miterlimit:17;stroke-opacity:0.448077"
         d="m 0,270.93334 c 0,0 -2.1416229,-6.60599 -2.1416229,-12.17757 6.7546482,2.43058 14.9371129,5.25271 21.6110129,6.00299 15.33917,1.72443 33.59818,-4.72828 38.48677,-9.17842 4.88859,-4.45015 9.77718,-4.5614 9.77718,-4.5614 v 19.9144 z"
         id="path5"
         sodipodi:nodetypes="ccssccc" /><path
         id="path6"
         style="fill:#eba44a;fill-opacity:1;stroke-width:4.23333;stroke-linecap:round;stroke-linejoin:round;stroke-miterlimit:17;stroke-opacity:0.448077"
         d="m 64.39349,251.72883 c -1.79838,0.60884 -4.11457,1.737 -6.43733,3.85144 -3.10267,2.82441 -11.59561,6.44852 -21.30516,8.28373 3.72549,1.4984 8.84949,2.94862 14.22755,2.58538 10.48253,-0.70802 8.22239,-5.71983 9.45989,-9.59787 1.20276,-3.76914 3.90317,-5.05294 4.05505,-5.12268 z" /></g><g
       id="g9"
       transform="matrix(-1,0,0,1,143.92196,-231.45944)"><path
         style="fill:#f4b350;fill-opacity:1;stroke-width:4.23333;stroke-linecap:round;stroke-linejoin:round;stroke-miterlimit:17;stroke-opacity:0.448077"
         d="m 75.03907,257.15601 c 0,0 13.04275,-5.6324 20.76979,-4.07821 18.50882,3.72279 16.42692,-13.50715 29.27518,-15.28687 3.84244,1.24541 7.29174,2.27224 4.87587,4.78252 l 5.43577,28.35989 -60.35664,6.13708 z"
         id="path7"
         sodipodi:nodetypes="csccccc" /><path
         id="path8"
         style="fill:#eba44a;fill-opacity:1;stroke-width:4.23333;stroke-linecap:round;stroke-linejoin:round;stroke-miterlimit:17;stroke-opacity:0.448077"
         d="m 125.08404,237.79093 c -15.18309,2.36796 -12.67181,18.62617 -29.27518,15.28663 -1.02844,-0.20686 -2.15447,-0.27902 -3.32796,-0.26148 21.84461,1.63121 -2.69724,13.25014 4.60644,14.29732 12.25898,1.75765 21.39772,-14.09207 21.95398,-19.54349 0.55463,-5.43533 5.97334,-9.71545 6.04272,-9.77898 z"
         sodipodi:nodetypes="cscscc" /></g><path
       style="fill:#f4b350;fill-opacity:1;stroke-width:20;stroke-linecap:round;stroke-linejoin:round;stroke-miterlimit:17"
       d="m 20.509187,39.475273 116.107073,6.13571 50.96821,-6.13606 -0.0395,24.08944 -168.7071,-1.06058 z"
       id="path21" /><rect
       style="fill:#f3c268;fill-opacity:1;stroke-width:4.23333;stroke-linecap:round;stroke-linejoin:round;stroke-miterlimit:17;stroke-opacity:0.448077"
       id="rect30"
       width="47.394058"
       height="28.258429"
       x="155.80595"
       y="39.475109"
       ry="2.8925946" /><path
       id="path30"
       style="fill:#f1b250;fill-opacity:1;stroke-width:4.23333;stroke-linecap:round;stroke-linejoin:round;stroke-miterlimit:17;stroke-opacity:0.448077"
       d="m 155.80594,51.424233 v 13.41677 c 0,1.60249 1.29034,2.89233 2.89284,2.89233 h 41.60883 c 1.60249,0 2.89233,-1.28984 2.89233,-2.89233 v -10.75956 c -0.9318,-0.32607 -1.911,-0.69378 -2.96726,-1.15497 -5.58544,-2.43871 -13.37401,0.23583 -19.03812,1.80919 -5.6641,1.57338 -8.2598,2.9107 -16.83463,-0.31471 -3.49542,-1.31479 -6.3518,-2.28757 -8.55399,-2.99672 z" /><circle
       style="fill:#f1b250;fill-opacity:1;stroke-width:4.23333;stroke-linecap:round;stroke-linejoin:round;stroke-miterlimit:17;stroke-opacity:0.448077"
       id="path31"
       cx="169.76823"
       cy="50.822018"
       r="1.0816879" /><ellipse
       style="fill:#f1b250;fill-opacity:1;stroke-width:4.23333;stroke-linecap:round;stroke-linejoin:round;stroke-miterlimit:17;stroke-opacity:0.448077"
       id="path32"
       cx="173.38698"
       cy="49.091305"
       rx="0.64901274"
       ry="0.64901364" /><circle
       style="fill:#f1b250;fill-opacity:1;stroke-width:4.23333;stroke-linecap:round;stroke-linejoin:round;stroke-miterlimit:17;stroke-opacity:0.448077"
       id="path33"
       cx="197.59711"
       cy="44.115536"
       r="0.86535037" /><path
       id="path34"
       style="fill:#e5a143;fill-opacity:1;stroke-width:4.23333;stroke-linecap:round;stroke-linejoin:round;stroke-miterlimit:17;stroke-opacity:0.448077"
       d="m 155.85969,65.396003 c 0.25759,1.33501 1.42665,2.33733 2.83909,2.33733 h 4.40231 c -1.53492,-1.20897 -4.75471,-1.93143 -7.2414,-2.33733 z m 39.62496,0.35295 c -2.47008,-0.064 -5.79345,1.98438 -5.79345,1.98438 h 10.61641 c 0.49228,0 0.94739,-0.13315 1.35237,-0.3483 -1.54193,-0.095 -3.44789,-0.38359 -4.65295,-1.20303 -0.42775,-0.29088 -0.95237,-0.41829 -1.52238,-0.43305 z m -5.79345,1.98438 c 0,0 -10.18816,-1.2e-4 -13.964,-1.1188 -2.0681,-0.61272 -4.85444,0.41146 -7.39284,1.1188 z" /><path
       id="path35"
       style="fill:#f4d47e;fill-opacity:1;stroke-width:4.23333;stroke-linecap:round;stroke-linejoin:round;stroke-miterlimit:17;stroke-opacity:0.448077"
       d="m 158.69878,39.475093 c -0.62149,0 -1.19298,0.1976 -1.66346,0.52865 3.89984,1.64721 4.22653,1.36702 4.8338,3.24632 0.45454,1.40663 1.26951,-1.88287 3.91191,-3.77497 z m 17.02738,0 c 3.04497,0.94674 4.11035,1.89136 4.11035,1.89136 0,0 4.22786,2.2251 10.23555,0.16691 2.40568,-0.82416 4.79205,-1.51599 6.81198,-2.05827 z" /><rect
       style="fill:#f3c268;fill-opacity:1;stroke-width:4.23333;stroke-linecap:round;stroke-linejoin:round;stroke-miterlimit:17;stroke-opacity:0.448077"
       id="rect38"
       width="47.394058"
       height="28.258429"
       x="2.349972e-15"
       y="39.475124"
       ry="2.8925946" /><circle
       style="fill:#f1b250;fill-opacity:1;stroke-width:4.23333;stroke-linecap:round;stroke-linejoin:round;stroke-miterlimit:17;stroke-opacity:0.448077"
       id="circle39"
       cx="40.607555"
       cy="53.604336"
       r="1.0816879" /><ellipse
       style="fill:#f1b250;fill-opacity:1;stroke-width:4.23333;stroke-linecap:round;stroke-linejoin:round;stroke-miterlimit:17;stroke-opacity:0.448077"
       id="ellipse39"
       cx="44.226284"
       cy="51.873638"
       rx="0.64901274"
       ry="0.64901364" /><circle
       style="fill:#f1b250;fill-opacity:1;stroke-width:4.23333;stroke-linecap:round;stroke-linejoin:round;stroke-miterlimit:17;stroke-opacity:0.448077"
       id="circle40"
       cx="14.773708"
       cy="52.522655"
       r="0.86535037" /><path
       id="path41"
       style="fill:#f1b250;fill-opacity:1;stroke-width:4.23333;stroke-linecap:round;stroke-linejoin:round;stroke-miterlimit:17;stroke-opacity:0.448077"
       d="m 1.0304033e-4,49.038353 v 15.80265 c 0,1.60249 1.28982995967,2.89233 2.89232995967,2.89233 h 41.60883 c 1.6025,0 2.89285,-1.28984 2.89285,-2.89233 v -7.52306 c -1.43231,0.40841 -2.85708,0.94221 -3.76722,1.59836 -2.39194,1.72443 -4.78365,-2.22523 -9.62318,-4.89531 -4.83953,-2.67008 -2.22546,-1.72474 -3.56051,-4.28088 -1.33504,-2.55614 -5.50694,6.00519 -12.2132,7.0621 -6.70627,1.0569 -4.91985,1.89127 -8.5912102,0.61185 -3.67137,-1.27942 -2.94823,-2.22485 -2.50321,-4.78369 0.36403,-2.09318 -4.1583098,-3.12016 -7.13547975967,-3.59202 z" /><path
       id="path42"
       style="fill:#f4d47e;fill-opacity:1;stroke-width:4.23333;stroke-linecap:round;stroke-linejoin:round;stroke-miterlimit:17;stroke-opacity:0.448077"
       d="m 2.892433,39.475103 c -0.92773,0 -1.74101,0.44064 -2.26962996,1.1157 6.27411976,0.01 7.75712976,-0.51165 10.29084996,2.28358 2.99493,3.30407 2.51713,3.77582 5.58519,2.20245 3.06805,-1.57336 0.70345,-3.6189 7.62847,-3.6189 6.92502,0 5.58799,0.23639 11.88145,1.10174 6.29345,0.86535 3.88775,-0.079 8.86664,-0.78703 0.85895,-0.12215 1.61675,-0.31293 2.28513,-0.54519 -0.44104,-1.03189 -1.46245,-1.75235 -2.65927,-1.75235 z" /><path
       id="path43"
       style="fill:#e5a143;fill-opacity:1;stroke-width:4.23333;stroke-linecap:round;stroke-linejoin:round;stroke-miterlimit:17;stroke-opacity:0.448077"
       d="m 1.0304033e-4,64.007463 v 0.83354 c 0,1.60249 1.28982995967,2.89233 2.89232995967,2.89233 h 15.64659 c 0,0 -5.33973,-1.1409 -10.3461402,-1.41904 C 3.988733,66.080733 2.058603,65.253133 1.0304033e-4,64.007463 Z M 18.539023,67.733333 h 9.45679 c -4.89516,0 -4.7839,-1.97505 -5.78518,-1.80816 -1.00128,0.16688 -3.67161,1.80816 -3.67161,1.80816 z m 9.45679,0 h 16.50545 c 1.27423,0 2.34862,-0.81663 2.73627,-1.95647 -1.00916,-0.0324 -2.11486,-0.0166 -2.36213,-0.0744 -0.47606,-0.11126 -5.34972,4e-5 -6.14381,0.16692 -0.79409,0.16688 -5.84063,1.86397 -10.73578,1.86397 z" /><rect
       style="fill:#f3c268;fill-opacity:1;stroke-width:4.23333;stroke-linecap:round;stroke-linejoin:round;stroke-miterlimit:17;stroke-opacity:0.448077"
       id="rect49"
       width="22.813782"
       height="11.216456"
       x="132.99243"
       y="56.517391"
       ry="2.8925946" /><rect
       style="fill:#f3c268;fill-opacity:1;stroke-width:4.23333;stroke-linecap:round;stroke-linejoin:round;stroke-miterlimit:17;stroke-opacity:0.448077"
       id="rect50"
       width="18.251022"
       height="11.216461"
       x="47.394108"
       y="56.291409"
       ry="2.8925946" /><rect
       style="fill:#f3c268;fill-opacity:1;stroke-width:4.80068;stroke-linecap:round;stroke-linejoin:round;stroke-miterlimit:17;stroke-opacity:0.448077"
       id="rect51"
       width="30.242615"
       height="12.719679"
       x="102.7498"
       y="55.014172"
       ry="3.280257" /><rect
       style="fill:#f3c268;fill-opacity:1;stroke-width:4.23333;stroke-linecap:round;stroke-linejoin:round;stroke-miterlimit:17;stroke-opacity:0.448077"
       id="rect71"
       width="20.509151"
       height="28.258446"
       x="3.6072579e-05"
       y="11.216823"
       ry="2.8925946" /><path
       id="path71"
       style="fill:#f1b250;fill-opacity:1;stroke-width:4.23333;stroke-linecap:round;stroke-linejoin:round;stroke-miterlimit:17;stroke-opacity:0.448077"
       d="m 1.03e-4,26.238693 v 10.34408 c 0,1.60249 1.28984,2.89233 2.89233,2.89233 h 14.724174 c 1.6025,0 2.89233,-1.28984 2.89233,-2.89233 v -4.96663 c -1.91314,0.4807 -4.12119,1.02426 -5.37487,1.28365 -2.28136,0.47201 -6.450601,-0.5507 -8.928651,-3.38274 -1.246973,-1.42511 -3.848023,-2.53079 -6.205313,-3.27836 z" /><path
       id="path72"
       style="fill:#e5a143;fill-opacity:1;stroke-width:4.23333;stroke-linecap:round;stroke-linejoin:round;stroke-miterlimit:17;stroke-opacity:0.448077"
       d="m 20.508936,36.412233 c -0.805669,0.26172 -1.81773,0.62527 -3.132619,1.08934 -4.012081,1.41603 -2.5176,-4e-5 -6.29368,-0.31471 -2.477461,-0.20645 -4.960231,1.22063 -6.905004,2.28824 h 13.438974 c 1.6025,0 2.89233,-1.28984 2.89233,-2.89233 z" /><path
       id="path73"
       style="fill:#f4d47e;fill-opacity:1;stroke-width:4.23333;stroke-linecap:round;stroke-linejoin:round;stroke-miterlimit:17;stroke-opacity:0.448077"
       d="m 2.892433,11.216873 c -1.60249,0 -2.89233,1.28984 -2.89233,2.89233 v 2.43344 c 1.18698,-0.16507 1.39277,-3.44921 5.379,-2.48408 2.911433,0.7049 5.044414,-2.13557 6.971163,-2.84169 z"
       sodipodi:nodetypes="sscscs" /><circle
       style="fill:#f1b250;fill-opacity:1;stroke-width:4.23333;stroke-linecap:round;stroke-linejoin:round;stroke-miterlimit:17;stroke-opacity:0.448077"
       id="path74"
       cx="14.131025"
       cy="23.715174"
       r="1.2390243" /><circle
       style="fill:#f1b250;fill-opacity:1;stroke-width:4.23333;stroke-linecap:round;stroke-linejoin:round;stroke-miterlimit:17;stroke-opacity:0.448077"
       id="path75"
       cx="17.947172"
       cy="27.018503"
       r="1.6724509" /><rect
       style="fill:#f3c268;fill-opacity:1;stroke-width:3.98564;stroke-linecap:round;stroke-linejoin:round;stroke-miterlimit:17;stroke-opacity:0.448077"
       id="rect85"
       width="18.179375"
       height="28.258446"
       x="185.02063"
       y="11.21667"
       ry="2.8925946" /><path
       id="path86"
       style="fill:#f1b250;fill-opacity:1;stroke-width:3.98564;stroke-linecap:round;stroke-linejoin:round;stroke-miterlimit:17;stroke-opacity:0.448077"
       d="m 185.0207,26.238503 v 10.34409 c 0,1.60247 1.14332,2.89232 2.56377,2.89232 h 13.05156 c 1.42046,0 2.56377,-1.28984 2.56377,-2.89232 v -4.96665 c -1.69582,0.48071 -3.65304,1.02426 -4.7643,1.28365 -2.02221,0.47202 -5.71784,-0.5507 -7.91439,-3.38274 -1.10532,-1.42512 -3.4109,-2.5308 -5.50041,-3.27835 z" /><path
       id="path87"
       style="fill:#e5a143;fill-opacity:1;stroke-width:3.98564;stroke-linecap:round;stroke-linejoin:round;stroke-miterlimit:17;stroke-opacity:0.448077"
       d="m 185.0207,36.412053 c 0.71415,0.26172 1.61125,0.62527 2.77677,1.08934 3.55632,1.41603 2.23161,-5e-5 5.57874,-0.31471 2.19603,-0.20645 4.39676,1.22063 6.12061,2.28824 h -11.91235 c -1.42046,0 -2.56377,-1.28984 -2.56377,-2.89233 z" /><circle
       style="fill:#f1b250;fill-opacity:1;stroke-width:4.23333;stroke-linecap:round;stroke-linejoin:round;stroke-miterlimit:17;stroke-opacity:0.448077"
       id="circle87"
       cx="195.09387"
       cy="22.216455"
       r="1.2390243" /><circle
       style="fill:#f1b250;fill-opacity:1;stroke-width:3.31811;stroke-linecap:round;stroke-linejoin:round;stroke-miterlimit:17;stroke-opacity:0.448077"
       id="circle88"
       cx="199.49683"
       cy="18.596979"
       r="1.3108765" /><path
       id="path88"
       style="fill:#f4d47e;fill-opacity:1;stroke-width:4.23333;stroke-linecap:round;stroke-linejoin:round;stroke-miterlimit:17;stroke-opacity:0.448077"
       d="m 187.91337,11.216743 c -1.14466,0 -2.12719,0.65991 -2.59674,1.62006 2.25,-0.33525 5.67482,-0.26304 8.08685,0.38498 2.93458,0.78842 8.23767,2.46841 9.59787,-0.16433 -0.41944,-1.07871 -1.46337,-1.84071 -2.6939,-1.84071 z" /><path
       id="path150"
       style="fill:#f1b250;fill-opacity:1;stroke-width:4.80068;stroke-linecap:round;stroke-linejoin:round;stroke-miterlimit:17;stroke-opacity:0.448077"
       d="m 107.54441,61.326303 c -1.1935,0.0113 -2.6529,0.30815 -4.79482,0.71612 v 2.41088 c 0,1.81727 1.46328,3.28055 3.28054,3.28055 h 23.68227 c 1.81725,0 3.27995,-1.46328 3.27995,-3.28055 v -0.79873 c -0.64835,-0.33415 -1.42224,-0.75728 -2.31596,-0.95581 -3.10212,-0.68911 -6.38651,-0.14273 -6.87348,0.80782 -4.54501,1.314 -6.7473,-0.17518 -8.21929,0.003 -1.47198,0.17843 -1.85717,0.66141 -4.62271,-1.12282 -1.20993,-0.78058 -2.18043,-1.07211 -3.4165,-1.0607 z"
       sodipodi:nodetypes="scsssscscsss" /><path
       id="path151"
       style="fill:#e5a143;fill-opacity:1;stroke-width:4.80068;stroke-linecap:round;stroke-linejoin:round;stroke-miterlimit:17;stroke-opacity:0.448077"
       d="m 107.24906,65.618903 c -1.09366,0.009 -2.57674,0.29113 -3.94158,0.66923 0.58818,0.87327 1.58611,1.44572 2.72265,1.44572 h 9.07922 c -1.33816,-1.16542 -5.39732,-1.15395 -6.51245,-1.86765 -0.27878,-0.17841 -0.75543,-0.25228 -1.34784,-0.2473 z m 25.16664,0.69561 c -1.54543,-0.0455 -5.66447,1.41934 -5.66447,1.41934 h 2.96117 c 1.12476,0 2.11284,-0.56133 2.7033,-1.41934 z" /><path
       id="path152"
       style="fill:#f4d47e;fill-opacity:1;stroke-width:4.80068;stroke-linecap:round;stroke-linejoin:round;stroke-miterlimit:17;stroke-opacity:0.448077"
       d="m 106.03013,55.014273 c -0.3384,0 -0.66436,0.051 -0.97103,0.14534 3.31619,0.44794 4.47387,1.83865 9.11379,2.54391 5.57569,0.84751 8.87599,-2.03291 13.0243,-2.68925 z" /><circle
       style="fill:#f1b250;fill-opacity:1;stroke-width:3.04426;stroke-linecap:round;stroke-linejoin:round;stroke-miterlimit:17;stroke-opacity:0.448077"
       id="circle152"
       cx="126.4388"
       cy="59.429394"
       r="1.2026904" /><path
       id="path153"
       style="fill:#f1b250;fill-opacity:1;stroke-width:4.23333;stroke-linecap:round;stroke-linejoin:round;stroke-miterlimit:17;stroke-opacity:0.448077"
       d="m 151.53896,62.483563 c 2.52324,0.0604 4.26698,-0.35815 4.26698,-0.35815 v 2.71559 c 0,1.6025 -1.29035,2.89285 -2.89284,2.89285 h -17.02841 c -1.6025,0 -2.89233,-1.29035 -2.89233,-2.89285 v -2.71559 c 0,0 5.84867,1.46476 9.42807,1.46476 3.57939,0 1.32923,-0.90572 3.92527,-1.78441 0.64901,-0.21967 4.35219,0.65766 5.19326,0.6778 z"
       sodipodi:nodetypes="scsssscsss" /><path
       id="path154"
       style="fill:#e5a143;fill-opacity:1;stroke-width:4.23333;stroke-linecap:round;stroke-linejoin:round;stroke-miterlimit:17;stroke-opacity:0.448077"
       d="m 147.33312,65.781093 c -0.92154,-0.93443 0.55338,0.43728 -4.14708,1.95276 h 9.72757 c 1.01764,0 1.90781,-0.52141 2.42311,-1.31155 -1.0131,-0.55944 -2.71224,-2.04079 -4.34689,-0.4609 -0.54236,0.52419 -3.35428,0.12635 -3.65671,-0.18031 z m -4.14708,1.95276 c 0,0 -5.86838,-0.9325 -8.37157,-1.47846 -0.69566,-0.15173 -1.14495,-0.10473 -1.41645,0.061 0.50298,0.8488 1.42505,1.41748 2.48718,1.41748 z"
       sodipodi:nodetypes="scscsscscsc" /><path
       id="path155"
       style="fill:#f4d47e;fill-opacity:1;stroke-width:4.23333;stroke-linecap:round;stroke-linejoin:round;stroke-miterlimit:17;stroke-opacity:0.448077"
       d="m 135.8852,56.517483 c -1.56271,0 -2.82476,1.22752 -2.88664,2.77451 0.86227,-0.68119 2.22047,-1.52084 3.69434,-1.52084 2.47805,0 6.68049,-1.25367 7.7065,-1.25367 z m 8.5142,0 c 1.026,0 3.85772,0.91571 6.17844,0.91571 1.28295,0 2.72994,-0.2783 3.78116,-0.52865 -0.42515,-0.24505 -0.91749,-0.38706 -1.44539,-0.38706 z" /><circle
       style="fill:#f1b250;fill-opacity:1;stroke-width:2.23213;stroke-linecap:round;stroke-linejoin:round;stroke-miterlimit:17;stroke-opacity:0.448077"
       id="circle155"
       cx="141.3757"
       cy="61.514828"
       r="0.57034457" /><ellipse
       style="fill:#f1b250;fill-opacity:1;stroke-width:4.23333;stroke-linecap:round;stroke-linejoin:round;stroke-miterlimit:17;stroke-opacity:0.448077"
       id="ellipse155"
       cx="143.32274"
       cy="59.938824"
       rx="0.64901274"
       ry="0.64901364" /><path
       id="path156"
       style="fill:#f1b250;fill-opacity:1;stroke-width:4.23333;stroke-linecap:round;stroke-linejoin:round;stroke-miterlimit:17;stroke-opacity:0.448077"
       d="m 47.393853,63.014423 v 1.60058 c 0,1.6025 1.29035,2.89285 2.892847,2.89285 h 12.4659 c 1.6025,0 2.89233,-1.29035 2.89233,-2.89285 v -1.21508 c -1.37809,0.68746 -1.20288,0.78491 -4.22597,0.6779 -4.44475,-0.15733 -0.90468,-0.83238 -5.5461,-1.55351 -1.46535,-0.22767 -0.72766,1.51414 -3.79571,1.47484 -3.068057,-0.0393 -2.791987,-0.65097 -4.683297,-0.98473 z"
       sodipodi:nodetypes="csssscsssc" /><path
       id="path157"
       style="fill:#e5a143;fill-opacity:1;stroke-width:4.23333;stroke-linecap:round;stroke-linejoin:round;stroke-miterlimit:17;stroke-opacity:0.448077"
       d="m 49.168423,65.712613 c -0.60607,0.0179 -6.9e-4,0.59737 -0.63614,1.202 0.4863,0.37098 1.09283,0.59324 1.754417,0.59324 h 5.40122 c -0.8709,-0.28921 -1.98729,-0.64417 -3.53054,-1.08934 -1.80787,-0.5215 -2.621617,-0.71673 -2.988957,-0.7059 z m 15.722037,0.64079 c -0.64758,0.0139 -1.53995,0.15328 -2.88717,0.28784 -1.60832,0.16063 -2.40174,0.50997 -1.31419,0.86661 h 2.0635 c 0.94742,0 1.78295,-0.45307 2.30994,-1.1529 -0.0564,-9.9e-4 -0.11156,-0.003 -0.17208,-0.002 z"
       sodipodi:nodetypes="scscsssscscs" /><path
       id="path158"
       style="fill:#f4d47e;fill-opacity:1;stroke-width:4.23333;stroke-linecap:round;stroke-linejoin:round;stroke-miterlimit:17;stroke-opacity:0.448077"
       d="m 50.2867,56.291483 c -0.747207,0 -1.424577,0.2828 -1.936837,0.74466 1.4273,1.31076 0.18185,1.53107 2.745047,1.42989 2.98939,-0.118 3.69739,-1.80918 6.45077,-1.1405 2.75339,0.66868 1.73081,1.84841 3.65818,0.86506 1.92643,-0.98288 1.46517,0.70957 3.48299,-1.156 -0.51203,-0.46083 -1.18797,-0.74311 -1.93425,-0.74311 z" /><circle
       style="fill:#f1b250;fill-opacity:1;stroke-width:2.68449;stroke-linecap:round;stroke-linejoin:round;stroke-miterlimit:17;stroke-opacity:0.448077"
       id="circle158"
       cx="61.411354"
       cy="62.503811"
       r="1.0605558" /><circle
       style="fill:#f1b250;fill-opacity:1;stroke-width:2.23213;stroke-linecap:round;stroke-linejoin:round;stroke-miterlimit:17;stroke-opacity:0.448077"
       id="circle159"
       cx="52.001293"
       cy="61.170849"
       r="0.57034457" /><ellipse
       style="fill:#f1b250;fill-opacity:1;stroke-width:4.23333;stroke-linecap:round;stroke-linejoin:round;stroke-miterlimit:17;stroke-opacity:0.448077"
       id="ellipse159"
       cx="53.948338"
       cy="59.594845"
       rx="0.64901274"
       ry="0.64901364" /><circle
       style="fill:#f1b250;fill-opacity:1;stroke-width:2.53128;stroke-linecap:round;stroke-linejoin:round;stroke-miterlimit:17;stroke-opacity:0.448077"
       id="circle160"
       cx="112.85073"
       cy="61.738461"
       r="0.6467815" /><rect
       style="fill:#f3c268;fill-opacity:1;stroke-width:3.31415;stroke-linecap:round;stroke-linejoin:round;stroke-miterlimit:17;stroke-opacity:0.448077"
       id="rect12"
       width="37.103447"
       height="22.122713"
       x="-102.74959"
       y="45.610989"
       ry="2.2645292"
       transform="scale(-1,1)" /><path
       id="path12"
       style="fill:#f1b250;fill-opacity:1;stroke-width:3.31415;stroke-linecap:round;stroke-linejoin:round;stroke-miterlimit:17;stroke-opacity:0.448077"
       d="m 102.74959,54.965603 v 10.5036 c 0,1.25454 -1.01016,2.26433 -2.26471,2.26433 H 67.910525 c -1.254548,0 -2.264323,-1.00979 -2.264323,-2.26433 v -8.42335 c 0.729471,-0.25527 1.496067,-0.54314 2.322983,-0.9042 4.372682,-1.90919 10.470124,0.18463 14.904393,1.41638 4.434261,1.23175 6.46636,2.27869 13.179353,-0.24638 2.736457,-1.02932 4.972639,-1.79088 6.696659,-2.34605 z" /><circle
       style="fill:#f1b250;fill-opacity:1;stroke-width:3.31415;stroke-linecap:round;stroke-linejoin:round;stroke-miterlimit:17;stroke-opacity:0.448077"
       id="circle12"
       cx="-91.818916"
       cy="54.494137"
       r="0.84682244"
       transform="scale(-1,1)" /><ellipse
       style="fill:#f1b250;fill-opacity:1;stroke-width:3.31415;stroke-linecap:round;stroke-linejoin:round;stroke-miterlimit:17;stroke-opacity:0.448077"
       id="ellipse12"
       cx="-88.985901"
       cy="53.139217"
       rx="0.50809348"
       ry="0.50809413"
       transform="scale(-1,1)" /><circle
       style="fill:#f1b250;fill-opacity:1;stroke-width:3.31415;stroke-linecap:round;stroke-linejoin:round;stroke-miterlimit:17;stroke-opacity:0.448077"
       id="circle13"
       cx="-70.032486"
       cy="49.243847"
       r="0.67745799"
       transform="scale(-1,1)" /><path
       id="path13"
       style="fill:#e5a143;fill-opacity:1;stroke-width:3.31415;stroke-linecap:round;stroke-linejoin:round;stroke-miterlimit:17;stroke-opacity:0.448077"
       d="m 102.70752,65.903693 c -0.20166,1.04515 -1.11688,1.82984 -2.22264,1.82984 h -3.446444 c 1.201649,-0.94647 3.722324,-1.51206 5.669084,-1.82984 z m -31.021243,0.27633 c 1.933756,-0.0501 4.535526,1.55351 4.535526,1.55351 h -8.311278 c -0.385397,0 -0.741687,-0.10426 -1.058736,-0.27268 1.207128,-0.0743 2.699257,-0.3003 3.642658,-0.94182 0.334873,-0.22772 0.745581,-0.32746 1.19183,-0.33901 z m 4.535526,1.55351 c 0,0 7.976017,-10e-5 10.932014,-0.87588 1.619056,-0.47969 3.800402,0.32212 5.787641,0.87588 z" /><path
       id="path14"
       style="fill:#f4d47e;fill-opacity:1;stroke-width:3.31415;stroke-linecap:round;stroke-linejoin:round;stroke-miterlimit:17;stroke-opacity:0.448077"
       d="m 100.48488,45.610963 c 0.48654,0 0.93395,0.15469 1.30227,0.41386 -3.05307,1.28956 -3.308822,1.07021 -3.784244,2.54145 -0.355845,1.10121 -0.99386,-1.47404 -3.062522,-2.95531 z m -13.330249,0 c -2.38382,0.74118 -3.217874,1.48069 -3.217874,1.48069 0,0 -3.309871,1.74197 -8.013119,0.13067 -1.883339,-0.64521 -3.751557,-1.18682 -5.332907,-1.61136 z" /><rect
       style="fill:#f3c268;fill-opacity:1;stroke-width:4.23333;stroke-linecap:round;stroke-linejoin:round;stroke-miterlimit:17;stroke-opacity:0.448077"
       id="rect14"
       width="22.813782"
       height="11.216456"
       x="-22.813709"
       y="0.00020826432"
       ry="2.8925946"
       transform="scale(-1,1)" /><path
       id="path15"
       style="fill:#f1b250;fill-opacity:1;stroke-width:4.23333;stroke-linecap:round;stroke-linejoin:round;stroke-miterlimit:17;stroke-opacity:0.448077"
       d="m 4.2671831,5.9663734 c -2.52324,0.0604 -4.26698001513,-0.35815 -4.26698001513,-0.35815 v 2.71559 c 0,1.6025 1.29035001513,2.8928496 2.89284001513,2.8928496 H 19.921452 c 1.6025,0 2.89233,-1.2903496 2.89233,-2.8928496 v -2.71559 c 0,0 -5.84867,1.46476 -9.42807,1.46476 -3.5793889,0 -1.329229,-0.90572 -3.9252699,-1.78441 -0.649009,-0.21967 -4.352189,0.65766 -5.193259,0.6778 z"
       sodipodi:nodetypes="scsssscsss" /><path
       id="path16"
       style="fill:#e5a143;fill-opacity:1;stroke-width:4.23333;stroke-linecap:round;stroke-linejoin:round;stroke-miterlimit:17;stroke-opacity:0.448077"
       d="m 8.4730221,9.2639034 c 0.92154,-0.93443 -0.55338,0.43728 4.1470799,1.9527596 H 2.8925331 c -1.01764,0 -1.90781102,-0.52141 -2.42311102,-1.3115496 1.01310102,-0.55944 2.71224102,-2.04079 4.34689102,-0.4609 0.542359,0.52419 3.354279,0.12635 3.656709,-0.18031 z m 4.1470799,1.9527596 c 0,0 5.86838,-0.9325 8.37157,-1.4784596 0.69566,-0.15173 1.14495,-0.10473 1.41645,0.061 -0.50298,0.8487996 -1.42505,1.4174796 -2.48718,1.4174796 z"
       sodipodi:nodetypes="scscsscscsc" /><path
       id="path17"
       style="fill:#f4d47e;fill-opacity:1;stroke-width:4.23333;stroke-linecap:round;stroke-linejoin:round;stroke-miterlimit:17;stroke-opacity:0.448077"
       d="m 19.920942,2.9345964e-4 c 1.56271,0 2.82476,1.22751994036 2.88664,2.77450994036 -0.86227,-0.68119 -2.22047,-1.52084 -3.69434,-1.52084 -2.47805,0 -6.68049,-1.25366994036 -7.706499,-1.25366994036 z m -8.514199,0 c -1.026,0 -3.8577209,0.91571000036 -6.1784399,0.91571000036 -1.28295,0 -2.72994,-0.2783 -3.78116,-0.52865 0.42515,-0.24505 0.91749,-0.38706000036 1.44539,-0.38706000036 z" /><circle
       style="fill:#f1b250;fill-opacity:1;stroke-width:2.23213;stroke-linecap:round;stroke-linejoin:round;stroke-miterlimit:17;stroke-opacity:0.448077"
       id="circle17"
       cx="-14.43044"
       cy="4.9976444"
       r="0.57034457"
       transform="scale(-1,1)" /><ellipse
       style="fill:#f1b250;fill-opacity:1;stroke-width:4.23333;stroke-linecap:round;stroke-linejoin:round;stroke-miterlimit:17;stroke-opacity:0.448077"
       id="ellipse17"
       cx="-12.483403"
       cy="3.4216409"
       rx="0.64901274"
       ry="0.64901364"
       transform="scale(-1,1)" /><rect
       style="fill:#f3c268;fill-opacity:1;stroke-width:4.23336;stroke-linecap:round;stroke-linejoin:round;stroke-miterlimit:17;stroke-opacity:0.448077"
       id="rect17"
       width="26.668713"
       height="11.216538"
       x="-203.20004"
       y="0.00020826432"
       ry="2.8926146"
       transform="scale(-1,1)" /><path
       id="path18"
       style="fill:#f1b250;fill-opacity:1;stroke-width:4.23336;stroke-linecap:round;stroke-linejoin:round;stroke-miterlimit:17;stroke-opacity:0.448077"
       d="m 198.97202,5.5664034 c 1.05246,0.01 2.3394,0.27173 4.2282,0.63149 v 2.12598 c 0,1.60251 -1.29036,2.8928696 -2.89286,2.8928696 h -20.88364 c -1.60249,0 -2.89234,-1.2903596 -2.89234,-2.8928696 v -0.70434 c 0.57173,-0.29467 1.25417,-0.66779 2.04227,-0.84286 2.73553,-0.60768 5.63179,-0.12586 6.06121,0.71236 4.00791,1.15871 5.94995,-0.15448 7.24798,0.003 1.29803,0.15734 1.6377,0.58325 4.07643,-0.99013 1.06695,-0.68834 1.92276,-0.94541 3.01275,-0.93535 z"
       sodipodi:nodetypes="scsssscscsss" /><path
       id="path19"
       style="fill:#e5a143;fill-opacity:1;stroke-width:4.23336;stroke-linecap:round;stroke-linejoin:round;stroke-miterlimit:17;stroke-opacity:0.448077"
       d="m 199.23247,9.3517234 c 0.96442,0.008 2.27224,0.25673 3.47579,0.59015 -0.51867,0.7700696 -1.39867,1.2748696 -2.4009,1.2748696 h -8.00629 c 1.18002,-1.0277 4.75949,-1.01758 5.74284,-1.6469396 0.24584,-0.15733 0.66616,-0.22247 1.18856,-0.21808 z m -22.19259,0.61341 c 1.3628,-0.0401 4.99508,1.2516096 4.99508,1.2516096 h -2.61124 c -0.99184,0 -1.86315,-0.495 -2.38384,-1.2516096 z" /><path
       id="path20"
       style="fill:#f4d47e;fill-opacity:1;stroke-width:4.23336;stroke-linecap:round;stroke-linejoin:round;stroke-miterlimit:17;stroke-opacity:0.448077"
       d="m 200.30736,2.9345964e-4 c 0.29841,0 0.58585,0.0450000004 0.85627,0.12816000036 -2.9243,0.39501 -3.94517,1.62136994 -8.03677,2.24328994 -4.91678,0.74735 -7.82707,-1.79266994 -11.48516,-2.37144994036 z" /><circle
       style="fill:#f1b250;fill-opacity:1;stroke-width:2.68451;stroke-linecap:round;stroke-linejoin:round;stroke-miterlimit:17;stroke-opacity:0.448077"
       id="circle20"
       cx="-182.31047"
       cy="3.8936715"
       r="1.0605632"
       transform="scale(-1,1)" /><circle
       style="fill:#f1b250;fill-opacity:1;stroke-width:2.23215;stroke-linecap:round;stroke-linejoin:round;stroke-miterlimit:17;stroke-opacity:0.448077"
       id="circle21"
       cx="-194.29279"
       cy="5.9298649"
       r="0.5703485"
       transform="scale(-1,1)" /></g></svg>
