<?xml version="1.0" encoding="UTF-8" standalone="no"?>
<!-- Created with Inkscape (http://www.inkscape.org/) -->

<svg
   width="256"
   height="256"
   viewBox="0 0 67.733334 67.733334"
   version="1.1"
   id="svg1"
   sodipodi:docname="SpaceLevelArt.svg"
   inkscape:version="1.3 (0e150ed6c4, 2023-07-21)"
   inkscape:export-filename="SpaceLevelArt.png"
   inkscape:export-xdpi="96"
   inkscape:export-ydpi="96"
   xml:space="preserve"
   xmlns:inkscape="http://www.inkscape.org/namespaces/inkscape"
   xmlns:sodipodi="http://sodipodi.sourceforge.net/DTD/sodipodi-0.dtd"
   xmlns="http://www.w3.org/2000/svg"
   xmlns:svg="http://www.w3.org/2000/svg"><sodipodi:namedview
     id="namedview1"
     pagecolor="#000000"
     bordercolor="#000000"
     borderopacity="0.25"
     inkscape:showpageshadow="false"
     inkscape:pageopacity="0.0"
     inkscape:pagecheckerboard="true"
     inkscape:deskcolor="#d1d1d1"
     inkscape:document-units="mm"
     showgrid="true"
     inkscape:zoom="0.5"
     inkscape:cx="2355"
     inkscape:cy="2025"
     inkscape:window-width="1858"
     inkscape:window-height="1057"
     inkscape:window-x="54"
     inkscape:window-y="-8"
     inkscape:window-maximized="1"
     inkscape:current-layer="layer1"><inkscape:grid
       id="grid1"
       units="px"
       originx="0"
       originy="0"
       spacingx="67.733334"
       spacingy="67.733334"
       empcolor="#0099e5"
       empopacity="0.30196078"
       color="#0099e5"
       opacity="0.14901961"
       empspacing="5"
       dotted="false"
       gridanglex="30"
       gridanglez="30"
       visible="true" /></sodipodi:namedview><defs
     id="defs1"><inkscape:path-effect
       effect="skeletal"
       id="path-effect77"
       is_visible="true"
       lpeversion="1"
       pattern="M 0,4.9921384 C 0,2.236478 2.236478,0 4.9921384,0 c 2.7556604,0 4.9921384,2.236478 4.9921384,4.9921384 0,2.7556604 -2.236478,4.9921384 -4.9921384,4.9921384 C 2.236478,9.9842768 0,7.7477988 0,4.9921384 Z"
       copytype="single_stretched"
       prop_scale="0.5"
       scale_y_rel="false"
       spacing="0"
       normal_offset="0"
       tang_offset="0"
       prop_units="false"
       vertical_pattern="false"
       hide_knot="false"
       fuse_tolerance="0" /><inkscape:perspective
       sodipodi:type="inkscape:persp3d"
       inkscape:vp_x="0 : 33.866667 : 1"
       inkscape:vp_y="0 : 1000 : 0"
       inkscape:vp_z="67.733334 : 33.866667 : 1"
       inkscape:persp3d-origin="33.866667 : 22.577778 : 1"
       id="perspective28" /><inkscape:path-effect
       effect="skeletal"
       id="path-effect57"
       is_visible="true"
       lpeversion="1"
       pattern="M 0,4.9921384 C 0,2.236478 2.236478,0 4.9921384,0 c 2.7556604,0 4.9921384,2.236478 4.9921384,4.9921384 0,2.7556604 -2.236478,4.9921384 -4.9921384,4.9921384 C 2.236478,9.9842768 0,7.7477988 0,4.9921384 Z"
       copytype="single_stretched"
       prop_scale="0.5"
       scale_y_rel="false"
       spacing="0"
       normal_offset="0"
       tang_offset="0"
       prop_units="false"
       vertical_pattern="false"
       hide_knot="false"
       fuse_tolerance="0" /></defs><g
     inkscape:label="Layer 1"
     inkscape:groupmode="layer"
     id="layer1"><g
       id="g34"
       transform="translate(282.97099,474.13336)"><path
         id="rect106"
         style="opacity:1;fill:#7d5837;fill-opacity:1;stroke-width:2.09458;stroke-linecap:round;stroke-linejoin:round;stroke-miterlimit:17;paint-order:markers fill stroke"
         d="M -93.375637,0 C -95.7209,0 -97.60897,1.8880705 -97.60897,4.2333333 V 124.6849 v 6.54843 4.23334 h 4.233333 4.233333 V 131.23333 124.6849 4.2333333 C -89.142304,1.8880705 -91.030374,0 -93.375637,0 Z" /><path
         sodipodi:type="star"
         style="opacity:1;fill:#e11e3e;fill-opacity:1;stroke:#e11e3e;stroke-width:6.78986;stroke-linecap:round;stroke-linejoin:round;stroke-miterlimit:17;stroke-dasharray:none;stroke-opacity:1;paint-order:markers fill stroke"
         id="path107"
         inkscape:flatsided="true"
         sodipodi:sides="3"
         sodipodi:cx="284.16251"
         sodipodi:cy="96.043747"
         sodipodi:r1="30.225101"
         sodipodi:r2="15.112549"
         sodipodi:arg1="0.52359878"
         sodipodi:arg2="1.5707963"
         inkscape:rounded="1.0408341e-17"
         inkscape:randomized="0"
         d="m 310.33821,111.1563 -52.35141,0 26.17571,-45.337655 z"
         inkscape:transform-center-x="6.3095899"
         inkscape:transform-center-y="1.2820965e-05"
         transform="matrix(0,-0.46553243,0.8350136,0,-190.42614,150.90197)" /></g><g
       id="g33"
       transform="rotate(21.97141,788.87816,-951.47528)"><path
         style="opacity:1;fill:#f7b010;fill-opacity:1;stroke-width:0.776999;stroke-linejoin:round;stroke-miterlimit:17"
         d="m 639.23332,291.04166 c -4.23334,-0.52916 -32.80834,15.34584 -42.33333,25.4 -9.525,10.05417 -21.16667,40.74584 -21.16667,46.0375 0,5.29167 1.05833,17.99167 3.175,20.10834 2.11667,2.11666 24.87083,4.23333 44.97916,2.11666 20.10834,-2.11666 55.5625,-5.29166 72.49584,-10.05416 16.93333,-4.7625 46.56666,-10.58336 55.03333,-23.28334 8.46667,-12.69997 13.75833,-25.4 10.58333,-30.1625 -3.175,-4.7625 -20.10833,-17.4625 -28.04583,-24.34166 -7.9375,-6.87917 -0.52918,-9.525 -28.575,-9.525 -28.04582,0 -66.14583,3.70416 -66.14583,3.70416 z"
         id="path8" /><circle
         style="fill:#2fb1f8;fill-opacity:1;stroke:none;stroke-width:0.776999;stroke-linejoin:round;stroke-miterlimit:17"
         id="circle7"
         cx="677.33337"
         cy="338.66669"
         r="203.20001" /><rect
         style="opacity:1;fill:#1aae32;fill-opacity:1;stroke-width:0.776999;stroke-linejoin:round;stroke-miterlimit:17"
         id="rect12"
         width="116.74332"
         height="178.19527"
         x="539.92175"
         y="487.66846"
         ry="50.477749"
         transform="rotate(-14.705241)" /><rect
         style="opacity:1;fill:#1aae32;fill-opacity:1;stroke-width:0.496321;stroke-linejoin:round;stroke-miterlimit:17"
         id="rect13"
         width="74.571732"
         height="113.82518"
         x="301.59677"
         y="621.0246"
         ry="32.2435"
         transform="rotate(-31.858812)" /><rect
         style="opacity:1;fill:#f7b010;fill-opacity:1;stroke-width:0.776999;stroke-linejoin:round;stroke-miterlimit:17"
         id="rect11"
         width="185.59196"
         height="100.9555"
         x="421.60129"
         y="501.90588"
         ry="50.477749"
         transform="rotate(-20.192191)" /><rect
         style="opacity:1;fill:#f7b010;fill-opacity:1;stroke-width:0.390749;stroke-linejoin:round;stroke-miterlimit:17"
         id="rect15"
         width="93.333298"
         height="50.770027"
         x="711.36023"
         y="-358.14813"
         ry="25.385014"
         transform="rotate(44.891353)" /><rect
         style="opacity:1;fill:#1aae32;fill-opacity:1;stroke-width:0.496321;stroke-linejoin:round;stroke-miterlimit:17"
         id="rect14"
         width="74.571732"
         height="113.82518"
         x="426.98514"
         y="-605.20587"
         ry="32.2435"
         transform="rotate(67.075255)" /><rect
         style="opacity:1;fill:#1aae32;fill-opacity:1;stroke-width:0.325418;stroke-linejoin:round;stroke-miterlimit:17"
         id="rect16"
         width="48.893707"
         height="74.630623"
         x="465.08148"
         y="-513.08972"
         ry="21.140776"
         transform="rotate(67.075255)" /><rect
         style="opacity:1;fill:#1aae32;fill-opacity:1;stroke-width:0.23395;stroke-linejoin:round;stroke-miterlimit:17"
         id="rect17"
         width="35.150787"
         height="53.653637"
         x="-484.89474"
         y="-440.48145"
         ry="15.198581"
         transform="rotate(157.07526)" /><path
         id="rect18"
         style="opacity:1;fill:#1aae32;fill-opacity:1;stroke-width:0.325418;stroke-linejoin:round;stroke-miterlimit:17"
         d="m 388.60321,-571.06848 c -7.11921,16.99127 -11.89472,34.87176 -14.19527,53.15 3.83839,5.25962 10.03402,8.67919 17.07247,8.67919 l 6.61229,8e-5 c 11.71198,0 21.14057,-9.42887 21.14057,-21.14085 l 3.7e-4,-32.34891 c 0,-11.71198 -10.70242,-25.43786 -22.4144,-25.43786 l -2.20261,4.2966 c -2.15242,4.19618 -4.15811,8.46601 -6.01342,12.80175 z"
         transform="rotate(67.075255)"
         sodipodi:nodetypes="ccccccccc" /><path
         id="rect19"
         style="opacity:1;fill:#1aae32;fill-opacity:1;stroke-width:0.776999;stroke-linejoin:round;stroke-miterlimit:17"
         d="m 390.946,592.08695 -8.04766,-1.3e-4 c -27.96464,0 -50.4779,22.51291 -50.4779,50.47755 l 4.4e-4,77.23967 c 0,27.96464 22.5129,50.4779 50.47754,50.4779 l 15.78763,-1.5e-4 c 13.45104,0 25.60771,-5.24429 34.63746,-13.76295 A 203.20001,203.20001 0 0 0 390.946,592.08695 Z"
         transform="rotate(-45.482163)" /><path
         id="rect20"
         style="opacity:1;fill:#1aae32;fill-opacity:1;stroke-width:0.325418;stroke-linejoin:round;stroke-miterlimit:17"
         d="m 398.44159,-787.24672 1.6e-4,24.66511 c 0,11.71197 9.42883,21.14075 21.14081,21.14075 l 6.61195,-1.6e-4 c 11.71198,0 21.14076,-9.42883 21.14076,-21.14081 l 2.9e-4,-32.34859 c 0,-1.12011 -0.0879,-2.21896 -0.25416,-3.29105 a 203.20001,203.20001 0 0 0 -48.63981,10.97475 z"
         transform="rotate(78.47809)" /><path
         id="rect21"
         style="opacity:1;fill:#1aae32;fill-opacity:1;stroke-width:0.325418;stroke-linejoin:round;stroke-miterlimit:17"
         d="m 366.08909,-772.2741 -1.1e-4,3.09736 c 0,11.71197 9.42883,21.14075 21.14081,21.14075 l 6.61245,-6e-5 c 11.71198,0 21.14076,-9.42883 21.14076,-21.1408 l -3.3e-4,-23.19478 a 203.20001,203.20001 0 0 0 -48.89358,20.09753 z"
         transform="rotate(78.47809)" /><path
         id="rect22"
         style="opacity:1;fill:#1aae32;fill-opacity:1;stroke-width:0.496321;stroke-linejoin:round;stroke-miterlimit:17"
         d="m 539.56405,-297.43492 c -0.6308,1.49634 -1.14889,3.05228 -1.55084,4.65529 a 203.20001,203.20001 0 0 0 72.84406,0.96939 c -3.1625,-14.49914 -16.01613,-25.29392 -31.49071,-25.29392 l -10.08472,-3.2e-4 c -13.39716,0 -24.83593,8.08911 -29.71779,19.66956 z"
         transform="rotate(67.075255)" /><path
         id="rect23"
         style="opacity:1;fill:#d1ffff;fill-opacity:1;stroke-width:0.496321;stroke-linejoin:round;stroke-miterlimit:17"
         d="m 785.14455,502.9328 c -2.13499,0.21602 -4.28193,0.64841 -6.41394,1.31189 l -47.10972,14.66084 c -10.23296,3.18453 -17.69784,10.95215 -20.91294,20.33019 a 203.20001,203.20001 0 0 0 84.99842,-35.58061 c -3.40514,-0.80105 -6.96158,-1.08664 -10.56182,-0.72231 z" /><path
         id="rect24"
         style="opacity:1;fill:#d1ffff;fill-opacity:1;stroke-width:0.496321;stroke-linejoin:round;stroke-miterlimit:17"
         d="m 512.36918,220.07184 a 203.20001,203.20001 0 0 0 -37.41167,99.21875 c 10.53426,-1.76021 19.94759,-8.69715 24.40575,-19.31304 l 19.10322,-45.48973 c 5.07663,-12.08861 2.2606,-25.42942 -6.0973,-34.41598 z" /><rect
         style="opacity:1;fill:#1aae32;fill-opacity:1;stroke-width:0.40558;stroke-linejoin:round;stroke-miterlimit:17"
         id="rect25"
         width="58.387783"
         height="97.077621"
         x="541.94708"
         y="-572.97272"
         ry="27.499384"
         transform="matrix(0.40238899,0.91546879,-0.94441877,0.32874487,0,0)" /></g><g
       id="g39"
       transform="rotate(22.185442,1400.2029,-851.16671)"><rect
         style="opacity:1;fill:#e5ffff;fill-opacity:1;stroke:none;stroke-width:0.776999;stroke-linejoin:round;stroke-miterlimit:17"
         id="rect27"
         width="156.59058"
         height="66.045914"
         x="934.27869"
         y="725.211"
         ry="33.022957"
         transform="rotate(-22.197697)" /><rect
         style="opacity:1;fill:#e5ffff;fill-opacity:1;stroke:none;stroke-width:0.776999;stroke-linejoin:round;stroke-miterlimit:17"
         id="rect28"
         width="156.59058"
         height="66.045914"
         x="871.42731"
         y="684.25562"
         ry="33.022957"
         transform="rotate(-22.197697)" /><rect
         style="opacity:1;fill:#e5ffff;fill-opacity:1;stroke:none;stroke-width:0.776999;stroke-linejoin:round;stroke-miterlimit:17"
         id="rect34"
         width="156.59058"
         height="66.045914"
         x="718.78516"
         y="890.35175"
         ry="33.022957"
         transform="rotate(-22.197697)" /><rect
         style="opacity:1;fill:#e5ffff;fill-opacity:1;stroke:none;stroke-width:0.776999;stroke-linejoin:round;stroke-miterlimit:17"
         id="rect35"
         width="156.59058"
         height="66.045914"
         x="791.06042"
         y="857.24805"
         ry="33.022957"
         transform="rotate(-22.197697)" /><rect
         style="opacity:1;fill:#e5ffff;fill-opacity:1;stroke:none;stroke-width:0.776999;stroke-linejoin:round;stroke-miterlimit:17"
         id="rect36"
         width="156.59058"
         height="66.045914"
         x="839.48914"
         y="912.38062"
         ry="33.022957"
         transform="rotate(-22.197697)" /><rect
         style="opacity:1;fill:#e5ffff;fill-opacity:1;stroke:none;stroke-width:0.776999;stroke-linejoin:round;stroke-miterlimit:17"
         id="rect37"
         width="156.59058"
         height="66.045914"
         x="1013.9534"
         y="613.14075"
         ry="33.022957"
         transform="rotate(-22.197697)" /><rect
         style="opacity:1;fill:#e5ffff;fill-opacity:1;stroke:none;stroke-width:0.776999;stroke-linejoin:round;stroke-miterlimit:17"
         id="rect38"
         width="156.59058"
         height="66.045914"
         x="1068.7418"
         y="825.95502"
         ry="33.022957"
         transform="rotate(-22.197697)" /><rect
         style="opacity:1;fill:#e5ffff;fill-opacity:1;stroke:none;stroke-width:0.776999;stroke-linejoin:round;stroke-miterlimit:17"
         id="rect39"
         width="156.59058"
         height="66.045914"
         x="649.07837"
         y="713.48407"
         ry="33.022957"
         transform="rotate(-22.197697)" /></g><g
       id="g64"
       transform="translate(-4.6772156,2.7149739e-5)"><circle
         style="opacity:1;fill:#828282;fill-opacity:1;stroke:none;stroke-width:0.770328;stroke-linejoin:round;stroke-miterlimit:17"
         id="path39"
         cx="72.410553"
         cy="541.8667"
         r="67.733337" /><circle
         style="opacity:1;fill:#5c5c5c;fill-opacity:1;stroke:none;stroke-width:1.00955;stroke-linejoin:round;stroke-miterlimit:17"
         id="path45"
         cx="57.764912"
         cy="514.30676"
         r="19.6898" /><circle
         style="opacity:1;fill:#5c5c5c;fill-opacity:1;stroke:none;stroke-width:0.776999;stroke-linejoin:round;stroke-miterlimit:17"
         id="circle45"
         cx="77.454712"
         cy="499.15259"
         r="15.154182" /><path
         id="circle46"
         style="opacity:1;fill:#5c5c5c;fill-opacity:1;stroke:none;stroke-width:0.776999;stroke-linejoin:round;stroke-miterlimit:17"
         d="m 33.866667,589.14233 a 15.154182,15.154182 0 0 0 -7.628475,2.09755 67.733337,67.733337 0 0 0 22.716443,13.98519 15.154182,15.154182 0 0 0 0.06614,-0.92862 15.154182,15.154182 0 0 0 -15.154113,-15.15412 z" /><path
         id="circle47"
         style="opacity:1;fill:#5c5c5c;fill-opacity:1;stroke:none;stroke-width:0.776999;stroke-linejoin:round;stroke-miterlimit:17"
         d="m 116.63681,562.8597 a 15.154182,15.154182 0 0 0 -15.15412,15.15411 15.154182,15.154182 0 0 0 15.13655,15.15308 67.733337,67.733337 0 0 0 14.81201,-18.41644 15.154182,15.154182 0 0 0 -14.79444,-11.89075 z" /><circle
         style="opacity:1;fill:#5c5c5c;fill-opacity:1;stroke:none;stroke-width:0.364518;stroke-linejoin:round;stroke-miterlimit:17"
         id="circle48"
         cx="116.63695"
         cy="525.62909"
         r="7.1093855" /><circle
         style="opacity:1;fill:#5c5c5c;fill-opacity:1;stroke:none;stroke-width:0.776999;stroke-linejoin:round;stroke-miterlimit:17"
         id="circle49"
         cx="37.685528"
         cy="566.31732"
         r="15.154182" /><circle
         style="opacity:1;fill:#5c5c5c;fill-opacity:1;stroke:none;stroke-width:0.51837;stroke-linejoin:round;stroke-miterlimit:17"
         id="circle50"
         cx="58.331779"
         cy="562.85974"
         r="10.110023" /><path
         id="circle51"
         style="opacity:1;fill:#5c5c5c;fill-opacity:1;stroke:none;stroke-width:0.51837;stroke-linejoin:round;stroke-miterlimit:17"
         d="m 82.49884,592.03828 a 10.110023,10.110023 0 0 0 -10.109977,10.10998 10.110023,10.110023 0 0 0 3.081466,7.23315 67.733337,67.733337 0 0 0 15.937011,-2.50631 10.110023,10.110023 0 0 0 1.201478,-4.72684 10.110023,10.110023 0 0 0 -10.109978,-10.10998 z" /><path
         id="circle52"
         style="opacity:1;fill:#5c5c5c;fill-opacity:1;stroke:none;stroke-width:0.51837;stroke-linejoin:round;stroke-miterlimit:17"
         d="m 15.944763,504.55887 a 67.733337,67.733337 0 0 0 -8.4470294,18.01905 10.110023,10.110023 0 0 0 5.7784584,1.83865 10.110023,10.110023 0 0 0 10.109977,-10.10998 10.110023,10.110023 0 0 0 -7.441406,-9.74772 z" /><circle
         style="opacity:1;fill:#5c5c5c;fill-opacity:1;stroke:none;stroke-width:0.287777;stroke-linejoin:round;stroke-miterlimit:17"
         id="circle54"
         cx="99.798958"
         cy="580.68445"
         r="5.6126604" /><circle
         style="opacity:1;fill:#5c5c5c;fill-opacity:1;stroke:none;stroke-width:0.287777;stroke-linejoin:round;stroke-miterlimit:17"
         id="circle55"
         cx="123.74633"
         cy="524.41681"
         r="5.6126604" /><path
         id="circle56"
         style="opacity:1;fill:#5c5c5c;fill-opacity:1;stroke:none;stroke-width:0.51837;stroke-linejoin:round;stroke-miterlimit:17"
         d="m 138.80806,528.50056 a 10.110023,10.110023 0 0 0 -7.95248,9.85056 10.110023,10.110023 0 0 0 8.82323,10.01799 67.733337,67.733337 0 0 0 0.46509,-6.50244 67.733337,67.733337 0 0 0 -1.33584,-13.36611 z" /><ellipse
         style="opacity:1;fill:#828282;fill-opacity:1;stroke:none;stroke-width:0.522158;stroke-linejoin:round;stroke-miterlimit:17"
         id="circle57"
         cx="294.17047"
         cy="444.86713"
         rx="13.292423"
         ry="7.802319"
         transform="rotate(28.139932)" /><ellipse
         style="opacity:1;fill:#828282;fill-opacity:1;stroke:none;stroke-width:0.52042;stroke-linejoin:round;stroke-miterlimit:17"
         id="circle59"
         cx="25.171803"
         cy="570.85315"
         rx="9.6033077"
         ry="10.727787" /><circle
         style="opacity:1;fill:#828282;fill-opacity:1;stroke:none;stroke-width:0.313498;stroke-linejoin:round;stroke-miterlimit:17"
         id="circle60"
         cx="121.53831"
         cy="566.37531"
         r="6.1143036" /><circle
         style="opacity:1;fill:#828282;fill-opacity:1;stroke:none;stroke-width:0.177838;stroke-linejoin:round;stroke-miterlimit:17"
         id="circle61"
         cx="114.22018"
         cy="519.75183"
         r="3.4684703" /><circle
         style="opacity:1;fill:#5c5c5c;fill-opacity:1;stroke:none;stroke-width:0.287777;stroke-linejoin:round;stroke-miterlimit:17"
         id="circle53"
         cx="111.02428"
         cy="538.35114"
         r="5.6126604" /><path
         id="circle63"
         style="opacity:0.160405;fill:#e2e2e2;fill-opacity:1;stroke:none;stroke-width:0.770328;stroke-linejoin:round;stroke-miterlimit:17"
         d="m 72.410567,474.13333 a 67.733337,67.733337 0 0 0 -67.7333331,67.73334 67.733337,67.733337 0 0 0 28.9196821,55.33874 67.733337,67.733337 0 0 0 5.885945,0.42116 67.733337,67.733337 0 0 0 67.733329,-67.73333 67.733337,67.733337 0 0 0 -28.925878,-55.48964 67.733337,67.733337 0 0 0 -5.879745,-0.27027 z" /></g><g
       id="g1"><ellipse
         style="fill:#5c5c5c;fill-opacity:1;stroke:none;stroke-width:0.807129;stroke-linejoin:round;stroke-miterlimit:17"
         id="path64"
         cx="372.53336"
         cy="575.40033"
         rx="101.60001"
         ry="34.199715" /><ellipse
         style="fill:#4d4d4d;fill-opacity:1;stroke:none;stroke-width:0.555019;stroke-linejoin:round;stroke-miterlimit:17"
         id="ellipse64"
         cx="372.53336"
         cy="553.41284"
         rx="69.864876"
         ry="23.517309" /><path
         id="path65"
         style="fill:#04c5ff;fill-opacity:1;stroke:none;stroke-width:1.15652;stroke-linejoin:round;stroke-miterlimit:17"
         d="m 372.53333,503.75065 a 46.631254,46.631254 0 0 0 -46.63126,46.63178 46.631378,11.056983 0 0 0 46.63126,11.05669 46.631378,11.056983 0 0 0 46.63127,-11.05669 46.631254,46.631254 0 0 0 -46.63127,-46.63178 z" /><g
         id="g74"
         transform="matrix(0.53850639,0,0,0.53850639,93.145061,136.20226)"
         style="opacity:0.458092"><path
           style="opacity:1;fill:#e71300;fill-opacity:1;stroke:#000000;stroke-width:1.977;stroke-linejoin:round;stroke-miterlimit:17;stroke-dasharray:none;stroke-opacity:1"
           d="m 515.61637,726.78723 c -9.82066,6.27958 -12.90564,38.657 -13.47039,45.51479 -4.05507,-1.92489 -12.93911,-1.54137 -10.32451,4.81581 2.61461,6.35718 20.85666,3.69416 21.71893,-0.17541 0.86227,-3.86957 -1.9274,-5.56313 -1.38518,-9.22407 4.83036,-2.568 9.60661,-2.91787 14.31229,-0.37417 l -0.46773,9.82215 c -5.78973,-0.61284 -11.42118,3.22417 -7.47853,7.32862 3.94264,4.10445 15.15217,1.54305 21.41665,-2.55786 0.0208,-0.0374 4.19526,-26.9343 -1.91791,-44.97059 -4.17393,-12.31478 -18.21395,-12.85826 -22.40362,-10.17927 z"
           id="path73"
           sodipodi:nodetypes="sczzccczcss" /><path
           style="opacity:1;fill:#67e5ff;fill-opacity:1;stroke:#000000;stroke-width:1.877;stroke-linejoin:round;stroke-miterlimit:17;stroke-dasharray:none;stroke-opacity:1"
           d="m 522.61822,735.27707 c -3.18213,-0.004 -8.74111,0.62089 -7.67291,4.69636 1.0682,4.07547 14.99734,4.8031 16.27187,0.59531 1.27453,-4.20779 -5.41683,-5.28784 -8.59896,-5.29167 z"
           id="path74"
           sodipodi:nodetypes="zzzz" /></g><circle
         style="opacity:1;fill:#00fd00;fill-opacity:1;stroke:none;stroke-width:0.807129;stroke-linejoin:round;stroke-miterlimit:17"
         id="path68"
         cx="282.93573"
         cy="573.99377"
         r="5.8515558" /><circle
         style="opacity:1;fill:#00fd00;fill-opacity:1;stroke:none;stroke-width:0.807129;stroke-linejoin:round;stroke-miterlimit:17"
         id="circle68"
         cx="319.0228"
         cy="594.49792"
         r="5.8515558" /><circle
         style="opacity:1;fill:#00fd00;fill-opacity:1;stroke:none;stroke-width:0.807129;stroke-linejoin:round;stroke-miterlimit:17"
         id="circle71"
         cx="426.04391"
         cy="594.49792"
         r="5.8515558" /><circle
         style="opacity:1;fill:#00fd00;fill-opacity:1;stroke:none;stroke-width:0.807129;stroke-linejoin:round;stroke-miterlimit:17"
         id="circle72"
         cx="462.13098"
         cy="573.99377"
         r="5.8515558" /><circle
         style="opacity:1;fill:#00fd00;fill-opacity:1;stroke:none;stroke-width:0.807129;stroke-linejoin:round;stroke-miterlimit:17"
         id="circle73"
         cx="372.53336"
         cy="600.34949"
         r="5.8515558" /><path
         id="path75"
         style="opacity:0.674855;fill:#04c5ff;fill-opacity:1;stroke:none;stroke-width:1.15652;stroke-linejoin:round;stroke-miterlimit:17"
         d="m 372.53333,503.75065 a 46.631254,46.631254 0 0 0 -46.63126,46.63178 46.631378,11.056983 0 0 0 46.63126,11.05669 46.631378,11.056983 0 0 0 46.63127,-11.05669 46.631254,46.631254 0 0 0 -46.63127,-46.63178 z" /><ellipse
         style="opacity:1;fill:#66dcff;fill-opacity:1;stroke:none;stroke-width:0.807129;stroke-linejoin:round;stroke-miterlimit:17"
         id="path67"
         cx="-41.515099"
         cy="628.17383"
         rx="8.3330402"
         ry="5.3204322"
         transform="rotate(-38.020556)" /></g><g
       id="g2"><path
         sodipodi:type="star"
         style="fill:#f5fdff;fill-opacity:1;stroke:#f5fdff;stroke-width:1.977;stroke-linejoin:round;stroke-miterlimit:17;stroke-opacity:1"
         id="path1"
         inkscape:flatsided="false"
         sodipodi:sides="5"
         sodipodi:cx="80.433334"
         sodipodi:cy="118.00417"
         sodipodi:r1="4.9921484"
         sodipodi:r2="2.4960742"
         sodipodi:arg1="0.52359878"
         sodipodi:arg2="1.1519173"
         inkscape:rounded="1.0408341e-17"
         inkscape:randomized="0"
         d="m 84.756662,120.50025 -3.308083,-0.2158 -2.053171,2.60278 -0.817018,-3.21286 -3.109857,-1.14838 2.803138,-1.76985 0.131174,-3.31252 2.549452,2.11902 3.190927,-0.89887 -1.227489,3.07949 z"
         inkscape:transform-center-x="0.073104952"
         inkscape:transform-center-y="0.036753479"
         transform="matrix(0.22792759,0,0,0.22792759,539.99692,463.58969)" /><circle
         style="fill:#f5fdff;fill-opacity:1;stroke:#f5fdff;stroke-width:0.661;stroke-linejoin:round;stroke-miterlimit:17;stroke-opacity:1"
         id="path2"
         cx="600.85474"
         cy="511.24573"
         r="0.95329237" /><circle
         style="fill:#ececff;fill-opacity:1;stroke:#ececff;stroke-width:0.661;stroke-linejoin:round;stroke-miterlimit:17;stroke-opacity:1"
         id="circle2"
         cx="593.18182"
         cy="513.81329"
         r="0.95329237" /><circle
         style="fill:#ffd7f1;fill-opacity:1;stroke:#ffd7f1;stroke-width:0.661;stroke-linejoin:round;stroke-miterlimit:17;stroke-opacity:1"
         id="circle3"
         cx="602.13849"
         cy="521.61847"
         r="0.95329237" /><circle
         style="fill:#e1ffe1;fill-opacity:1;stroke:#e1ffe1;stroke-width:0.661;stroke-linejoin:round;stroke-miterlimit:17;stroke-opacity:1"
         id="circle4"
         cx="552.39874"
         cy="538.74774"
         r="0.95329237" /></g><g
       id="g3"><path
         sodipodi:type="star"
         style="fill:#f5fdff;fill-opacity:1;stroke:#f5fdff;stroke-width:1.977;stroke-linejoin:round;stroke-miterlimit:17;stroke-opacity:1"
         id="path4"
         inkscape:flatsided="false"
         sodipodi:sides="5"
         sodipodi:cx="80.433334"
         sodipodi:cy="118.00417"
         sodipodi:r1="4.9921484"
         sodipodi:r2="2.4960742"
         sodipodi:arg1="0.52359878"
         sodipodi:arg2="1.1519173"
         inkscape:rounded="1.0408341e-17"
         inkscape:randomized="0"
         d="m 84.756662,120.50025 -3.308083,-0.2158 -2.053171,2.60278 -0.817018,-3.21286 -3.109857,-1.14838 2.803138,-1.76985 0.131174,-3.31252 2.549452,2.11902 3.190927,-0.89887 -1.227489,3.07949 z"
         inkscape:transform-center-x="0.073104952"
         inkscape:transform-center-y="0.036753479"
         transform="matrix(0.22792759,0,0,0.22792759,641.27581,507.96322)" /><circle
         style="fill:#f5fdff;fill-opacity:1;stroke:#f5fdff;stroke-width:0.661;stroke-linejoin:round;stroke-miterlimit:17;stroke-opacity:1"
         id="circle5"
         cx="632.28363"
         cy="495.92407"
         r="0.95329237" /><circle
         style="fill:#ececff;fill-opacity:1;stroke:#ececff;stroke-width:0.661;stroke-linejoin:round;stroke-miterlimit:17;stroke-opacity:1"
         id="circle6"
         cx="621.83447"
         cy="491.21564"
         r="0.95329237" /><circle
         style="fill:#ffd7f1;fill-opacity:1;stroke:#ffd7f1;stroke-width:0.661;stroke-linejoin:round;stroke-miterlimit:17;stroke-opacity:1"
         id="circle7-1"
         cx="642.29865"
         cy="500.87292"
         r="0.95329237" /><circle
         style="fill:#e1ffe1;fill-opacity:1;stroke:#e1ffe1;stroke-width:0.661;stroke-linejoin:round;stroke-miterlimit:17;stroke-opacity:1"
         id="circle8"
         cx="639.12555"
         cy="493.35651"
         r="0.95329237" /></g><g
       id="g4"><circle
         style="fill:#f5fdff;fill-opacity:1;stroke:#f5fdff;stroke-width:0.661;stroke-linejoin:round;stroke-miterlimit:17;stroke-opacity:1"
         id="circle9"
         cx="692.60858"
         cy="520.33472"
         r="0.95329237" /><circle
         style="fill:#f5fdff;fill-opacity:1;stroke:#f5fdff;stroke-width:0.388542;stroke-linejoin:round;stroke-miterlimit:17;stroke-opacity:1"
         id="circle10"
         cx="712.84924"
         cy="502.15668"
         r="0.56035459" /><circle
         style="fill:#f5fdff;fill-opacity:1;stroke:#f5fdff;stroke-width:0.661;stroke-linejoin:round;stroke-miterlimit:17;stroke-opacity:1"
         id="circle11"
         cx="720.12531"
         cy="486.67859"
         r="0.95329237" /><circle
         style="fill:#f5fdff;fill-opacity:1;stroke:#f5fdff;stroke-width:0.388542;stroke-linejoin:round;stroke-miterlimit:17;stroke-opacity:1"
         id="circle12"
         cx="738.24927"
         cy="479.79938"
         r="0.56035459" /><circle
         style="fill:#ffd7f1;fill-opacity:1;stroke:#ffd7f1;stroke-width:0.661;stroke-linejoin:round;stroke-miterlimit:17;stroke-opacity:1"
         id="circle14"
         cx="725.6424"
         cy="511.24573"
         r="0.95329237" /><path
         sodipodi:type="star"
         style="fill:#f5fdff;fill-opacity:1;stroke:#f5fdff;stroke-width:1.977;stroke-linejoin:round;stroke-miterlimit:17;stroke-opacity:1"
         id="path14"
         inkscape:flatsided="false"
         sodipodi:sides="5"
         sodipodi:cx="80.433334"
         sodipodi:cy="118.00417"
         sodipodi:r1="4.9921484"
         sodipodi:r2="2.4960742"
         sodipodi:arg1="0.52359878"
         sodipodi:arg2="1.1519173"
         inkscape:rounded="1.0408341e-17"
         inkscape:randomized="0"
         d="m 84.756662,120.50025 -3.308083,-0.2158 -2.053171,2.60278 -0.817018,-3.21286 -3.109857,-1.14838 2.803138,-1.76985 0.131174,-3.31252 2.549452,2.11902 3.190927,-0.89887 -1.227489,3.07949 z"
         inkscape:transform-center-x="0.073104952"
         inkscape:transform-center-y="0.036753479"
         transform="matrix(0.22792759,0,0,0.22792759,694.06018,502.27467)" /></g></g></svg>
