<?xml version="1.0" encoding="UTF-8" standalone="no"?>
<!-- Created with Inkscape (http://www.inkscape.org/) -->

<svg
   width="256"
   height="256"
   viewBox="0 0 67.733334 67.733334"
   version="1.1"
   id="svg1"
   sodipodi:docname="RubberLevelTilesetArt.svg"
   inkscape:version="1.3 (0e150ed6c4, 2023-07-21)"
   inkscape:export-filename="RubberLevelTilesetArt.png"
   inkscape:export-xdpi="96"
   inkscape:export-ydpi="96"
   xml:space="preserve"
   xmlns:inkscape="http://www.inkscape.org/namespaces/inkscape"
   xmlns:sodipodi="http://sodipodi.sourceforge.net/DTD/sodipodi-0.dtd"
   xmlns="http://www.w3.org/2000/svg"
   xmlns:svg="http://www.w3.org/2000/svg"><sodipodi:namedview
     id="namedview1"
     pagecolor="#000000"
     bordercolor="#000000"
     borderopacity="0.25"
     inkscape:showpageshadow="false"
     inkscape:pageopacity="0.0"
     inkscape:pagecheckerboard="true"
     inkscape:deskcolor="#d1d1d1"
     inkscape:document-units="mm"
     showgrid="true"
     inkscape:zoom="1"
     inkscape:cx="361.5"
     inkscape:cy="296.5"
     inkscape:window-width="1858"
     inkscape:window-height="1057"
     inkscape:window-x="54"
     inkscape:window-y="-8"
     inkscape:window-maximized="1"
     inkscape:current-layer="layer1"><inkscape:grid
       id="grid1"
       units="px"
       originx="0"
       originy="0"
       spacingx="67.733334"
       spacingy="67.733334"
       empcolor="#0099e5"
       empopacity="0.30196078"
       color="#0099e5"
       opacity="0.14901961"
       empspacing="5"
       dotted="false"
       gridanglex="30"
       gridanglez="30"
       visible="true" /></sodipodi:namedview><defs
     id="defs1"><inkscape:path-effect
       effect="skeletal"
       id="path-effect77"
       is_visible="true"
       lpeversion="1"
       pattern="M 0,4.9921384 C 0,2.236478 2.236478,0 4.9921384,0 c 2.7556604,0 4.9921384,2.236478 4.9921384,4.9921384 0,2.7556604 -2.236478,4.9921384 -4.9921384,4.9921384 C 2.236478,9.9842768 0,7.7477988 0,4.9921384 Z"
       copytype="single_stretched"
       prop_scale="0.5"
       scale_y_rel="false"
       spacing="0"
       normal_offset="0"
       tang_offset="0"
       prop_units="false"
       vertical_pattern="false"
       hide_knot="false"
       fuse_tolerance="0" /><inkscape:perspective
       sodipodi:type="inkscape:persp3d"
       inkscape:vp_x="0 : 33.866667 : 1"
       inkscape:vp_y="0 : 1000 : 0"
       inkscape:vp_z="67.733334 : 33.866667 : 1"
       inkscape:persp3d-origin="33.866667 : 22.577778 : 1"
       id="perspective28" /><inkscape:path-effect
       effect="skeletal"
       id="path-effect57"
       is_visible="true"
       lpeversion="1"
       pattern="M 0,4.9921384 C 0,2.236478 2.236478,0 4.9921384,0 c 2.7556604,0 4.9921384,2.236478 4.9921384,4.9921384 0,2.7556604 -2.236478,4.9921384 -4.9921384,4.9921384 C 2.236478,9.9842768 0,7.7477988 0,4.9921384 Z"
       copytype="single_stretched"
       prop_scale="0.5"
       scale_y_rel="false"
       spacing="0"
       normal_offset="0"
       tang_offset="0"
       prop_units="false"
       vertical_pattern="false"
       hide_knot="false"
       fuse_tolerance="0" /></defs><g
     inkscape:label="Layer 1"
     inkscape:groupmode="layer"
     id="layer1"><path
       id="path1"
       style="fill:#f0ece0;fill-opacity:1;stroke-width:7.99999;stroke-linecap:round;stroke-linejoin:round;stroke-miterlimit:17"
       d="M 0,0 V 67.733333 H 33.807756 A 25.444057,59.459225 0 0 0 38.399723,33.866667 25.444057,59.459225 0 0 0 33.86615,0 Z" /><path
       id="path2"
       style="fill:#d9d5ca;fill-opacity:1;stroke-width:11.7036;stroke-linecap:round;stroke-linejoin:round;stroke-miterlimit:17"
       d="M 31.75,0 A 2.1166666,2.1166666 0 0 0 33.866667,2.1166667 2.1166666,2.1166666 0 0 0 35.983333,0 Z" /><path
       id="circle2"
       style="fill:#d9d5ca;fill-opacity:1;stroke-width:11.7036;stroke-linecap:round;stroke-linejoin:round;stroke-miterlimit:17"
       d="M 33.866667,65.616667 A 2.1166666,2.1166666 0 0 0 31.75,67.733333 h 4.233333 a 2.1166666,2.1166666 0 0 0 -2.116666,-2.116666 z" /><path
       id="path14"
       style="fill:#f0ece0;fill-opacity:1;stroke-width:7.99999;stroke-linecap:round;stroke-linejoin:round;stroke-miterlimit:17"
       d="M 135.46667,203.20001 H 203.2 v -33.80776 a 59.459225,25.444057 0 0 0 -33.86666,-4.59197 59.459225,25.444057 0 0 0 -33.86667,4.53358 z" /><path
       id="path15"
       style="fill:#d9d5ca;fill-opacity:1;stroke-width:11.7036;stroke-linecap:round;stroke-linejoin:round;stroke-miterlimit:17"
       d="m 135.46667,171.45001 a 2.1166666,2.1166666 0 0 0 2.11667,-2.11667 2.1166666,2.1166666 0 0 0 -2.11667,-2.11667 z" /><path
       id="path16"
       style="fill:#d9d5ca;fill-opacity:1;stroke-width:11.7036;stroke-linecap:round;stroke-linejoin:round;stroke-miterlimit:17"
       d="m 201.08334,169.33334 a 2.1166666,2.1166666 0 0 0 2.11666,2.11667 v -4.23334 a 2.1166666,2.1166666 0 0 0 -2.11666,2.11667 z" /><rect
       style="fill:#f0ece0;fill-opacity:1;stroke-width:7.99999;stroke-linecap:round;stroke-linejoin:round;stroke-miterlimit:17"
       id="rect16"
       width="67.73333"
       height="67.73333"
       x="0"
       y="135.46667" /><path
       id="path29"
       style="fill:#f0ece0;fill-opacity:1;stroke-width:8.54462;stroke-linecap:round;stroke-linejoin:round;stroke-miterlimit:17"
       d="m 33.866667,67.733333 -25.5772505,25.57725 59.4439205,42.156087 42.200003,59.40051 25.53333,-25.53333 c -5.2564,-9.74522 -12.97074,-19.87961 -22.10976,-29.04577 C 104.29111,131.2268 94.265457,123.55281 84.597937,118.27495 79.358396,108.73031 71.792212,98.845636 62.868514,89.88702 53.726214,80.746072 43.60823,73.017232 33.866667,67.733333 Z"
       sodipodi:nodetypes="ccccccccc" /><path
       id="path31"
       style="fill:#d9d5ca;fill-opacity:1;stroke-width:11.7036;stroke-linecap:round;stroke-linejoin:round;stroke-miterlimit:17"
       d="m 84.597942,116.15828 a 2.1166666,2.1166666 0 0 0 -2.116667,2.11667 2.1166666,2.1166666 0 0 0 2.116667,2.11667 2.1166666,2.1166666 0 0 0 2.11666,-2.11667 2.1166666,2.1166666 0 0 0 -2.11666,-2.11667 z" /><path
       id="rect32"
       style="fill:#f0ece0;stroke-width:7.99999;stroke-linecap:round;stroke-linejoin:round;stroke-miterlimit:17"
       d="m 67.733353,135.46667 67.733317,33.86719 1e-5,33.86614 H 67.733353 Z"
       sodipodi:nodetypes="ccccc" /><path
       id="path33"
       style="fill:#d9d5ca;fill-opacity:1;stroke-width:11.7036;stroke-linecap:round;stroke-linejoin:round;stroke-miterlimit:17"
       d="m 133.35,169.33334 a 2.1166666,2.1166666 0 0 1 2.11667,-2.11666 v 4.23333 A 2.1166666,2.1166666 0 0 1 133.35,169.33334 Z" /><path
       id="rect33"
       style="fill:#f0ece0;stroke-width:7.99999;stroke-linecap:round;stroke-linejoin:round;stroke-miterlimit:17"
       d="m 0,67.733345 33.807756,-1.2e-5 33.925574,67.733337 H 0 Z"
       sodipodi:nodetypes="ccccc" /><path
       id="path32"
       style="fill:#d9d5ca;fill-opacity:1;stroke-width:11.7036;stroke-linecap:round;stroke-linejoin:round;stroke-miterlimit:17"
       d="M 33.866667,69.849999 A 2.1166666,2.1166666 0 0 1 31.75,67.733333 h 4.233333 a 2.1166666,2.1166666 0 0 1 -2.116666,2.116666 z" /><path
       id="path40"
       style="fill:#f0ece0;fill-opacity:1;stroke-width:7.99999;stroke-linecap:round;stroke-linejoin:round;stroke-miterlimit:17"
       d="m 203.20001,33.807756 v 67.733334 h -0.77618 a 25.444057,59.459225 0 0 1 -4.59196,-33.866668 25.444057,59.459225 0 0 1 4.53357,-33.866666 z" /><path
       id="path41"
       style="fill:#d9d5ca;fill-opacity:1;stroke-width:11.7036;stroke-linecap:round;stroke-linejoin:round;stroke-miterlimit:17"
       d="M 201.08334,33.866663 A 2.1166666,2.1166666 0 0 0 203.2,35.98333 v -4.233333 a 2.1166666,2.1166666 0 0 0 -2.11666,2.116666 z" /><path
       id="path42"
       style="fill:#d9d5ca;fill-opacity:1;stroke-width:11.7036;stroke-linecap:round;stroke-linejoin:round;stroke-miterlimit:17"
       d="m 201.08334,101.59999 a 2.1166666,2.1166666 0 0 0 2.11666,2.11667 v -4.233329 a 2.1166666,2.1166666 0 0 0 -2.11666,2.116659 z" /></g></svg>
