<?xml version="1.0" encoding="UTF-8" standalone="no"?>
<!-- Created with Inkscape (http://www.inkscape.org/) -->

<svg
   width="256"
   height="256"
   viewBox="0 0 67.733334 67.733334"
   version="1.1"
   id="svg1"
   sodipodi:docname="RubberLevelBackgroundArt.svg"
   inkscape:version="1.3 (0e150ed6c4, 2023-07-21)"
   inkscape:export-filename="RubberLevelBackgroundArt.png"
   inkscape:export-xdpi="96"
   inkscape:export-ydpi="96"
   xml:space="preserve"
   xmlns:inkscape="http://www.inkscape.org/namespaces/inkscape"
   xmlns:sodipodi="http://sodipodi.sourceforge.net/DTD/sodipodi-0.dtd"
   xmlns="http://www.w3.org/2000/svg"
   xmlns:svg="http://www.w3.org/2000/svg"><sodipodi:namedview
     id="namedview1"
     pagecolor="#000000"
     bordercolor="#000000"
     borderopacity="0.25"
     inkscape:showpageshadow="false"
     inkscape:pageopacity="0.0"
     inkscape:pagecheckerboard="true"
     inkscape:deskcolor="#d1d1d1"
     inkscape:document-units="mm"
     showgrid="true"
     inkscape:zoom="1"
     inkscape:cx="214.5"
     inkscape:cy="360.5"
     inkscape:window-width="1858"
     inkscape:window-height="1057"
     inkscape:window-x="54"
     inkscape:window-y="-8"
     inkscape:window-maximized="1"
     inkscape:current-layer="layer1"
     showguides="false"><inkscape:grid
       id="grid1"
       units="px"
       originx="0"
       originy="0"
       spacingx="67.733334"
       spacingy="67.733334"
       empcolor="#0099e5"
       empopacity="0.30196078"
       color="#0099e5"
       opacity="0.14901961"
       empspacing="5"
       dotted="false"
       gridanglex="30"
       gridanglez="30"
       visible="true" /></sodipodi:namedview><defs
     id="defs1"><inkscape:path-effect
       effect="skeletal"
       id="path-effect77"
       is_visible="true"
       lpeversion="1"
       pattern="M 0,4.9921384 C 0,2.236478 2.236478,0 4.9921384,0 c 2.7556604,0 4.9921384,2.236478 4.9921384,4.9921384 0,2.7556604 -2.236478,4.9921384 -4.9921384,4.9921384 C 2.236478,9.9842768 0,7.7477988 0,4.9921384 Z"
       copytype="single_stretched"
       prop_scale="0.5"
       scale_y_rel="false"
       spacing="0"
       normal_offset="0"
       tang_offset="0"
       prop_units="false"
       vertical_pattern="false"
       hide_knot="false"
       fuse_tolerance="0" /><inkscape:perspective
       sodipodi:type="inkscape:persp3d"
       inkscape:vp_x="0 : 33.866667 : 1"
       inkscape:vp_y="0 : 1000 : 0"
       inkscape:vp_z="67.733334 : 33.866667 : 1"
       inkscape:persp3d-origin="33.866667 : 22.577778 : 1"
       id="perspective28" /><inkscape:path-effect
       effect="skeletal"
       id="path-effect57"
       is_visible="true"
       lpeversion="1"
       pattern="M 0,4.9921384 C 0,2.236478 2.236478,0 4.9921384,0 c 2.7556604,0 4.9921384,2.236478 4.9921384,4.9921384 0,2.7556604 -2.236478,4.9921384 -4.9921384,4.9921384 C 2.236478,9.9842768 0,7.7477988 0,4.9921384 Z"
       copytype="single_stretched"
       prop_scale="0.5"
       scale_y_rel="false"
       spacing="0"
       normal_offset="0"
       tang_offset="0"
       prop_units="false"
       vertical_pattern="false"
       hide_knot="false"
       fuse_tolerance="0" /></defs><g
     inkscape:label="Layer 1"
     inkscape:groupmode="layer"
     id="layer1"><rect
       style="fill:#f0ece0;fill-opacity:1;stroke-width:7.99999;stroke-linecap:round;stroke-linejoin:round;stroke-miterlimit:17"
       id="rect16"
       width="67.73333"
       height="67.73333"
       x="-7.5199178e-15"
       y="0" /><path
       id="path31"
       style="fill:#d9d5ca;fill-opacity:1;stroke-width:11.7036;stroke-linecap:round;stroke-linejoin:round;stroke-miterlimit:17"
       d="m 33.86667,31.749997 a 2.1166666,2.1166666 0 0 0 -2.116667,2.11667 2.1166666,2.1166666 0 0 0 2.116667,2.11667 2.1166666,2.1166666 0 0 0 2.11666,-2.11667 2.1166666,2.1166666 0 0 0 -2.11666,-2.11667 z" /><path
       style="fill:#d9d5ca;fill-opacity:1;stroke-width:7.99999;stroke-linecap:round;stroke-linejoin:round;stroke-miterlimit:17"
       d="m 32.77899,33.866666 c 0,0 0.55851,-10.120312 1.087676,-11.178645 0.529167,-1.058334 0.731046,-14.1178382 0.731046,-14.1178382 0,0 0.591874,10.1490882 0.988746,11.2074212 0.396872,1.058333 -1.124479,9.988021 -1.124479,9.988021 l 0.74961,4.101041 z"
       id="path1"
       sodipodi:nodetypes="cscsccc" /><path
       style="fill:#d9d5ca;fill-opacity:1;stroke-width:7.99999;stroke-linecap:round;stroke-linejoin:round;stroke-miterlimit:17"
       d="m 32.575277,33.789192 c 0,0 0.696077,8.757517 0.46096,9.917174 -0.257247,1.268809 0.830428,9.158612 0.830428,9.158612 0,0 0.186071,-10.107351 0.349083,-11.07214 0.453174,-2.682129 0.30039,-5.313395 0.792128,-8.003646 z"
       id="path2"
       sodipodi:nodetypes="cscscc" /><path
       style="fill:#d9d5ca;fill-opacity:1;stroke-width:7.99999;stroke-linecap:round;stroke-linejoin:round;stroke-miterlimit:17"
       d="m 33.164861,35.320168 c 0,0 10.120312,-0.558509 11.178645,-1.087676 1.058334,-0.529167 14.117839,-0.731046 14.117839,-0.731046 0,0 -10.149089,-0.591873 -11.207422,-0.988746 -1.058333,-0.396872 -9.988021,1.12448 -9.988021,1.12448 l -4.101041,-0.74961 z"
       id="path3"
       sodipodi:nodetypes="cscsccc" /><path
       style="fill:#d9d5ca;fill-opacity:1;stroke-width:7.99999;stroke-linecap:round;stroke-linejoin:round;stroke-miterlimit:17"
       d="m 33.242335,33.091283 c 0,0 -8.757517,0.696078 -9.917174,0.46096 -1.268809,-0.257246 -9.158612,0.830428 -9.158612,0.830428 0,0 10.107351,0.186071 11.07214,0.349083 2.682129,0.453174 5.313395,0.30039 8.003646,0.792128 z"
       id="path4"
       sodipodi:nodetypes="cscscc" /><rect
       style="fill:#f0ece0;fill-opacity:1;stroke-width:7.99999;stroke-linecap:round;stroke-linejoin:round;stroke-miterlimit:17"
       id="rect4"
       width="67.73333"
       height="67.73333"
       x="67.73333"
       y="0" /><path
       id="path5"
       style="fill:#d9d5ca;fill-opacity:1;stroke-width:11.7036;stroke-linecap:round;stroke-linejoin:round;stroke-miterlimit:17"
       d="m 101.60001,31.749997 a 2.1166666,2.1166666 0 0 0 -2.11667,2.11667 2.1166666,2.1166666 0 0 0 2.11667,2.11667 2.1166666,2.1166666 0 0 0 2.11666,-2.11667 2.1166666,2.1166666 0 0 0 -2.11666,-2.11667 z" /><path
       style="fill:#d9d5ca;fill-opacity:1;stroke-width:7.99999;stroke-linecap:round;stroke-linejoin:round;stroke-miterlimit:17"
       d="m 100.41879,33.091283 c 0,0 0.46394,3.204062 0.55688,6.336071 0.0777,2.619405 -0.241,5.202469 0,5.684473 0.52916,1.058338 1.26184,13.275939 1.26184,13.275939 0,0 0.0611,-9.307189 0.45795,-10.365522 0.39688,-1.058333 -0.59368,-10.82992 -0.59368,-10.82992 l 0.74961,-4.101041 z"
       id="path6"
       sodipodi:nodetypes="csscsccc" /><path
       style="fill:#d9d5ca;fill-opacity:1;stroke-width:7.99999;stroke-linecap:round;stroke-linejoin:round;stroke-miterlimit:17"
       d="m 100.21507,33.168757 c 0,0 0.69608,-8.757517 0.46096,-9.917174 -0.25724,-1.268809 0.83043,-9.158612 0.83043,-9.158612 0,0 0.18607,10.107351 0.34908,11.07214 0.45318,2.682129 0.30039,5.313395 0.79213,8.003646 z"
       id="path7"
       sodipodi:nodetypes="cscscc" /><path
       style="fill:#d9d5ca;fill-opacity:1;stroke-width:7.99999;stroke-linecap:round;stroke-linejoin:round;stroke-miterlimit:17"
       d="m 100.8982,35.320168 c 0,0 11.12591,-0.114173 12.18424,-0.64334 1.05834,-0.529167 8.94505,-0.810156 8.94505,-0.810156 -5.9831,-1.242736 -10.94438,-0.877856 -17.02825,-0.229492 l -4.10104,-0.74961 z"
       id="path8"
       sodipodi:nodetypes="cscccc" /><path
       style="fill:#d9d5ca;fill-opacity:1;stroke-width:7.99999;stroke-linecap:round;stroke-linejoin:round;stroke-miterlimit:17"
       d="m 100.97567,33.091283 c 0,0 -8.757515,0.696078 -9.917172,0.46096 -1.268809,-0.257246 -9.158612,0.830428 -9.158612,0.830428 0,0 10.107351,0.186071 11.07214,0.349083 2.682129,0.453174 5.313395,0.30039 8.003644,0.792128 z"
       id="path9"
       sodipodi:nodetypes="cscscc" /><rect
       style="fill:#f0ece0;fill-opacity:1;stroke-width:7.99999;stroke-linecap:round;stroke-linejoin:round;stroke-miterlimit:17"
       id="rect19"
       width="67.73333"
       height="67.73333"
       x="0"
       y="67.733345" /><path
       id="path20"
       style="fill:#d9d5ca;fill-opacity:1;stroke-width:11.7036;stroke-linecap:round;stroke-linejoin:round;stroke-miterlimit:17"
       d="m 33.866665,99.483332 a 2.1166666,2.1166666 0 0 0 -2.11666,2.116668 2.1166666,2.1166666 0 0 0 2.11666,2.11667 2.1166666,2.1166666 0 0 0 2.11666,-2.11667 2.1166666,2.1166666 0 0 0 -2.11666,-2.116668 z" /><path
       style="fill:#d9d5ca;fill-opacity:1;stroke-width:7.99999;stroke-linecap:round;stroke-linejoin:round;stroke-miterlimit:17"
       d="m 33.109805,95.95664 c 0,0 0.55851,10.12031 1.08768,11.17865 0.52917,1.05833 0.73105,14.11783 0.73105,14.11783 0,0 0.59187,-10.14908 0.98874,-11.20742 0.39687,-1.05833 -1.12448,-9.98802 -1.12448,-9.98802 l 0.74961,-4.10104 z"
       id="path21"
       sodipodi:nodetypes="cscsccc" /><path
       style="fill:#d9d5ca;fill-opacity:1;stroke-width:7.99999;stroke-linecap:round;stroke-linejoin:round;stroke-miterlimit:17"
       d="m 32.906095,96.034114 c 0,0 0.69608,-8.757517 0.46096,-9.917174 -0.25725,-1.268809 0.83043,-9.158612 0.83043,-9.158612 0,0 0.18607,10.107351 0.34908,11.07214 0.45318,2.682129 0.30039,5.313395 0.79213,8.003646 z"
       id="path22"
       sodipodi:nodetypes="cscscc" /><path
       style="fill:#d9d5ca;fill-opacity:1;stroke-width:7.99999;stroke-linecap:round;stroke-linejoin:round;stroke-miterlimit:17"
       d="m 33.164865,103.0535 c 0,0 10.12031,-0.5585 11.17864,-1.08767 1.05833,-0.52917 14.11784,-0.73105 14.11784,-0.73105 0,0 -10.14909,-0.59187 -11.20742,-0.98874 -1.05834,-0.396877 -9.98802,1.12448 -9.98802,1.12448 l -4.10104,-0.74961 z"
       id="path23"
       sodipodi:nodetypes="cscsccc" /><path
       style="fill:#d9d5ca;fill-opacity:1;stroke-width:7.99999;stroke-linecap:round;stroke-linejoin:round;stroke-miterlimit:17"
       d="m 33.242335,100.82462 c 0,0 -8.75752,0.69608 -9.91717,0.46096 -1.26881,-0.25725 -9.15862,0.83043 -9.15862,0.83043 0,0 10.10735,0.18607 11.07214,0.34908 2.68213,0.45317 5.3134,0.30039 8.00365,0.79213 z"
       id="path24"
       sodipodi:nodetypes="cscscc" /><rect
       style="fill:#f0ece0;fill-opacity:1;stroke-width:7.99999;stroke-linecap:round;stroke-linejoin:round;stroke-miterlimit:17"
       id="rect24"
       width="67.73333"
       height="67.73333"
       x="67.733337"
       y="67.733345" /><path
       id="path25"
       style="fill:#d9d5ca;fill-opacity:1;stroke-width:11.7036;stroke-linecap:round;stroke-linejoin:round;stroke-miterlimit:17"
       d="M 101.60001,99.483332 A 2.1166666,2.1166666 0 0 0 99.483335,101.6 a 2.1166666,2.1166666 0 0 0 2.116675,2.11667 2.1166666,2.1166666 0 0 0 2.11666,-2.11667 2.1166666,2.1166666 0 0 0 -2.11666,-2.116668 z" /><path
       style="fill:#d9d5ca;fill-opacity:1;stroke-width:7.99999;stroke-linecap:round;stroke-linejoin:round;stroke-miterlimit:17"
       d="m 102.63749,101.52253 c 0,0 -0.30223,-5.886982 -0.83139,-6.945315 -0.52917,-1.058334 -0.78889,-12.66263 -0.78889,-12.66263 0,0 -0.72416,8.032422 -1.121035,9.090755 -0.39688,1.058333 1.058325,6.416146 1.058325,6.416146 l -0.74961,4.101044 z"
       id="path26"
       sodipodi:nodetypes="cscsccc" /><path
       style="fill:#d9d5ca;fill-opacity:1;stroke-width:7.99999;stroke-linecap:round;stroke-linejoin:round;stroke-miterlimit:17"
       d="m 102.74121,101.52253 c 0,0 -0.69608,8.75752 -0.46096,9.91717 0.25724,1.26881 -0.83043,9.15861 -0.83043,9.15861 0,0 -0.18607,-10.10735 -0.34908,-11.07214 -0.45318,-2.68212 -0.30039,-5.31339 -0.79213,-8.00364 z"
       id="path27"
       sodipodi:nodetypes="cscscc" /><path
       style="fill:#d9d5ca;fill-opacity:1;stroke-width:7.99999;stroke-linecap:round;stroke-linejoin:round;stroke-miterlimit:17"
       d="m 101.8061,102.61259 c 0,0 -10.120315,-0.55851 -11.178645,-1.08768 -1.05834,-0.52916 -14.11784,-0.73104 -14.11784,-0.73104 0,0 10.14909,-0.59188 11.20742,-0.988751 1.05833,-0.396872 9.98802,1.124481 9.98802,1.124481 l 4.101045,-0.74961 z"
       id="path28"
       sodipodi:nodetypes="cscsccc" /><path
       style="fill:#d9d5ca;fill-opacity:1;stroke-width:7.99999;stroke-linecap:round;stroke-linejoin:round;stroke-miterlimit:17"
       d="m 101.72863,100.3837 c 0,0 8.75751,0.69608 9.91717,0.46096 1.26881,-0.25724 9.15861,0.83043 9.15861,0.83043 0,0 -10.10735,0.18607 -11.07214,0.34908 -2.68213,0.45318 -5.3134,0.30039 -8.00364,0.79213 z"
       id="path29"
       sodipodi:nodetypes="cscscc" /></g></svg>
