<?xml version="1.0" encoding="UTF-8" standalone="no"?>
<!-- Created with Inkscape (http://www.inkscape.org/) -->

<svg
   width="256"
   height="256"
   viewBox="0 0 67.733334 67.733334"
   version="1.1"
   id="svg1"
   sodipodi:docname="RubberBlockArt.svg"
   inkscape:version="1.3 (0e150ed6c4, 2023-07-21)"
   inkscape:export-filename="RubberBlockSprite.png"
   inkscape:export-xdpi="96"
   inkscape:export-ydpi="96"
   xml:space="preserve"
   xmlns:inkscape="http://www.inkscape.org/namespaces/inkscape"
   xmlns:sodipodi="http://sodipodi.sourceforge.net/DTD/sodipodi-0.dtd"
   xmlns="http://www.w3.org/2000/svg"
   xmlns:svg="http://www.w3.org/2000/svg"><sodipodi:namedview
     id="namedview1"
     pagecolor="#000000"
     bordercolor="#000000"
     borderopacity="0.25"
     inkscape:showpageshadow="false"
     inkscape:pageopacity="0.0"
     inkscape:pagecheckerboard="true"
     inkscape:deskcolor="#d1d1d1"
     inkscape:document-units="mm"
     showgrid="true"
     inkscape:zoom="0.70710678"
     inkscape:cx="161.92745"
     inkscape:cy="334.46151"
     inkscape:window-width="1858"
     inkscape:window-height="1057"
     inkscape:window-x="54"
     inkscape:window-y="-8"
     inkscape:window-maximized="1"
     inkscape:current-layer="layer1"><inkscape:grid
       id="grid1"
       units="px"
       originx="0"
       originy="0"
       spacingx="67.733334"
       spacingy="67.733334"
       empcolor="#0099e5"
       empopacity="0.30196078"
       color="#0099e5"
       opacity="0.14901961"
       empspacing="5"
       dotted="false"
       gridanglex="30"
       gridanglez="30"
       visible="true" /></sodipodi:namedview><defs
     id="defs1"><inkscape:path-effect
       effect="skeletal"
       id="path-effect77"
       is_visible="true"
       lpeversion="1"
       pattern="M 0,4.9921384 C 0,2.236478 2.236478,0 4.9921384,0 c 2.7556604,0 4.9921384,2.236478 4.9921384,4.9921384 0,2.7556604 -2.236478,4.9921384 -4.9921384,4.9921384 C 2.236478,9.9842768 0,7.7477988 0,4.9921384 Z"
       copytype="single_stretched"
       prop_scale="0.5"
       scale_y_rel="false"
       spacing="0"
       normal_offset="0"
       tang_offset="0"
       prop_units="false"
       vertical_pattern="false"
       hide_knot="false"
       fuse_tolerance="0" /><inkscape:perspective
       sodipodi:type="inkscape:persp3d"
       inkscape:vp_x="0 : 33.866667 : 1"
       inkscape:vp_y="0 : 1000 : 0"
       inkscape:vp_z="67.733334 : 33.866667 : 1"
       inkscape:persp3d-origin="33.866667 : 22.577778 : 1"
       id="perspective28" /><inkscape:path-effect
       effect="skeletal"
       id="path-effect57"
       is_visible="true"
       lpeversion="1"
       pattern="M 0,4.9921384 C 0,2.236478 2.236478,0 4.9921384,0 c 2.7556604,0 4.9921384,2.236478 4.9921384,4.9921384 0,2.7556604 -2.236478,4.9921384 -4.9921384,4.9921384 C 2.236478,9.9842768 0,7.7477988 0,4.9921384 Z"
       copytype="single_stretched"
       prop_scale="0.5"
       scale_y_rel="false"
       spacing="0"
       normal_offset="0"
       tang_offset="0"
       prop_units="false"
       vertical_pattern="false"
       hide_knot="false"
       fuse_tolerance="0" /></defs><g
     inkscape:label="Layer 1"
     inkscape:groupmode="layer"
     id="layer1"><path
       sodipodi:type="star"
       style="fill:#f0ece0;stroke-width:7.99999;stroke-linecap:round;stroke-linejoin:round;stroke-miterlimit:17;fill-opacity:1"
       id="path9"
       inkscape:flatsided="true"
       sodipodi:sides="4"
       sodipodi:cx="67.73333"
       sodipodi:cy="0"
       sodipodi:r1="135.46666"
       sodipodi:r2="95.789406"
       sodipodi:arg1="1.5707963"
       sodipodi:arg2="2.3561945"
       inkscape:rounded="0.18"
       inkscape:randomized="0"
       d="M 67.733333,135.46666 C 33.249152,135.46666 -67.733329,34.484185 -67.73333,3.6298151e-6 -67.733331,-34.484178 33.249144,-135.46666 67.733326,-135.46666 102.21751,-135.46666 203.19999,-34.484185 203.19999,-3.6298152e-6 203.19999,34.484178 102.21752,135.46666 67.733333,135.46666 Z"
       transform="matrix(0.48437511,0,0,0.48437511,34.924994,67.733333)" /><path
       id="path10"
       style="fill:#d9d5ca;fill-opacity:1;stroke-width:11.7036;stroke-linecap:round;stroke-linejoin:round;stroke-miterlimit:17"
       d="M 2.11666,65.616663 A 2.1166666,2.1166666 0 0 0 0,67.733333 a 2.1166666,2.1166666 0 0 0 2.11666,2.11667 2.1166666,2.1166666 0 0 0 2.11666,-2.11667 2.1166666,2.1166666 0 0 0 -2.11666,-2.11667 z" /><path
       id="path3"
       style="fill:#d9d5ca;fill-opacity:1;stroke-width:11.7036;stroke-linecap:round;stroke-linejoin:round;stroke-miterlimit:17"
       d="m 133.35001,65.616663 a 2.1166666,2.1166666 0 0 0 -2.11666,2.11667 2.1166666,2.1166666 0 0 0 2.11666,2.11667 2.1166666,2.1166666 0 0 0 2.11666,-2.11667 2.1166666,2.1166666 0 0 0 -2.11666,-2.11667 z" /><path
       id="path11"
       style="fill:#d9d5ca;fill-opacity:1;stroke-width:11.7036;stroke-linecap:round;stroke-linejoin:round;stroke-miterlimit:17"
       d="m 65.616665,133.35001 a 2.1166666,2.1166666 0 0 0 2.11667,2.11666 2.1166666,2.1166666 0 0 0 2.11667,-2.11666 2.1166666,2.1166666 0 0 0 -2.11667,-2.11666 2.1166666,2.1166666 0 0 0 -2.11667,2.11666 z" /><path
       id="path12"
       style="fill:#d9d5ca;fill-opacity:1;stroke-width:11.7036;stroke-linecap:round;stroke-linejoin:round;stroke-miterlimit:17"
       d="m 65.616665,2.116658 a 2.1166666,2.1166666 0 0 0 2.11667,2.11666 2.1166666,2.1166666 0 0 0 2.11667,-2.11666 2.1166666,2.1166666 0 0 0 -2.11667,-2.11666 2.1166666,2.1166666 0 0 0 -2.11667,2.11666 z" /><path
       id="path25"
       style="fill:#d9d5ca;fill-opacity:1;stroke-width:11.7036;stroke-linecap:round;stroke-linejoin:round;stroke-miterlimit:17"
       d="m 67.808433,65.694135 a 2.1166666,2.1166666 0 0 0 -2.11667,2.116668 2.1166666,2.1166666 0 0 0 2.11667,2.11667 2.1166666,2.1166666 0 0 0 2.11666,-2.11667 2.1166666,2.1166666 0 0 0 -2.11666,-2.116668 z" /><path
       style="fill:#d9d5ca;fill-opacity:1;stroke-width:7.99999;stroke-linecap:round;stroke-linejoin:round;stroke-miterlimit:17"
       d="m 68.845923,67.733333 c 0,0 -0.30223,-5.886982 -0.83139,-6.945315 -0.52917,-1.058334 -0.78889,-12.66263 -0.78889,-12.66263 0,0 -0.72416,8.032422 -1.12104,9.090755 -0.39688,1.058333 1.05832,6.416146 1.05832,6.416146 l -0.74961,4.101044 z"
       id="path26"
       sodipodi:nodetypes="cscsccc" /><path
       style="fill:#d9d5ca;fill-opacity:1;stroke-width:7.99999;stroke-linecap:round;stroke-linejoin:round;stroke-miterlimit:17"
       d="m 68.949633,67.733333 c 0,0 -0.69607,8.757522 -0.46096,9.917172 0.25724,1.26881 -0.83043,9.15861 -0.83043,9.15861 0,0 -0.18607,-10.10735 -0.34908,-11.07214 -0.45318,-2.682122 -0.30039,-5.313392 -0.79213,-8.003642 z"
       id="path27"
       sodipodi:nodetypes="cscscc" /><path
       style="fill:#d9d5ca;fill-opacity:1;stroke-width:7.99999;stroke-linecap:round;stroke-linejoin:round;stroke-miterlimit:17"
       d="m 68.014533,68.823393 c 0,0 -10.12032,-0.55851 -11.17865,-1.08768 -1.05834,-0.52916 -14.11784,-0.73104 -14.11784,-0.73104 0,0 10.14909,-0.59188 11.20742,-0.988751 1.05833,-0.396872 9.98802,1.124481 9.98802,1.124481 l 4.10105,-0.74961 z"
       id="path28"
       sodipodi:nodetypes="cscsccc" /><path
       style="fill:#d9d5ca;fill-opacity:1;stroke-width:7.99999;stroke-linecap:round;stroke-linejoin:round;stroke-miterlimit:17"
       d="m 67.937053,66.594503 c 0,0 8.75751,0.69608 9.91717,0.46096 1.26881,-0.25724 9.15861,0.83043 9.15861,0.83043 0,0 -10.10735,0.18607 -11.07214,0.34908 -2.68213,0.45318 -5.3134,0.30039 -8.00364,0.79213 z"
       id="path29"
       sodipodi:nodetypes="cscscc" /></g></svg>
